<svg width="105" height="90" viewBox="0 0 105 90" fill="none" xmlns="http://www.w3.org/2000/svg">
<path d="M77.5001 35C84.7935 35 91.7883 37.8973 96.9455 43.0546C102.103 48.2118 105 55.2065 105 62.5C105 69.7935 102.103 76.7882 96.9455 81.9454C91.7883 87.1027 84.7935 90 77.5001 90C70.2066 90 63.2119 87.1027 58.0546 81.9454C52.8974 76.7882 50.0001 69.7935 50.0001 62.5C50.0001 55.2065 52.8974 48.2118 58.0546 43.0546C63.2119 37.8973 70.2066 35 77.5001 35ZM65.1201 50.12C64.6514 50.5888 64.3881 51.2246 64.3881 51.8875C64.3881 52.5504 64.6514 53.1862 65.1201 53.655L73.9651 62.505L65.1301 71.335C64.8976 71.5671 64.7132 71.8427 64.5873 72.1461C64.4613 72.4495 64.3964 72.7747 64.3962 73.1032C64.396 73.4317 64.4604 73.757 64.5859 74.0606C64.7114 74.3642 64.8955 74.6401 65.1276 74.8725C65.3597 75.1049 65.6353 75.2894 65.9387 75.4153C66.2421 75.5412 66.5673 75.6062 66.8958 75.6064C67.2243 75.6066 67.5496 75.5422 67.8532 75.4167C68.1568 75.2912 68.4326 75.1071 68.6651 74.875L77.5001 66.04L86.3501 74.885C86.5807 75.1238 86.8566 75.3142 87.1616 75.4453C87.4666 75.5763 87.7946 75.6452 88.1266 75.6481C88.4585 75.651 88.7877 75.5878 89.095 75.4621C89.4022 75.3363 89.6813 75.1507 89.9161 74.916C90.1508 74.6813 90.3364 74.4021 90.4621 74.0949C90.5878 73.7876 90.6511 73.4584 90.6482 73.1265C90.6453 72.7945 90.5763 72.4665 90.4453 72.1615C90.3143 71.8565 90.1238 71.5806 89.8851 71.35L81.0401 62.5L89.8951 53.65C90.3505 53.1785 90.6025 52.547 90.5968 51.8915C90.5911 51.236 90.3281 50.609 89.8646 50.1455C89.4011 49.6819 88.7741 49.419 88.1186 49.4133C87.4631 49.4076 86.8316 49.6596 86.3601 50.115L77.5051 58.965L68.6551 50.115C68.1863 49.6463 67.5505 49.383 66.8876 49.383C66.2247 49.383 65.5889 49.6463 65.1201 50.115V50.12ZM45.0951 60H3.75008L3.24008 60.035C2.29883 60.1645 1.44183 60.6465 0.842239 61.3835C0.242653 62.1205 -0.0548123 63.0577 0.00994763 64.0056C0.0747076 64.9535 0.496865 65.8415 1.19112 66.4901C1.88537 67.1388 2.79996 67.4997 3.75008 67.5H45.3801C44.9982 65.0192 44.9025 62.5027 45.0951 60ZM48.6601 47.5H3.75008C2.79996 47.4997 1.88537 47.1388 1.19112 46.4901C0.496865 45.8415 0.0747076 44.9535 0.00994763 44.0056C-0.0548123 43.0577 0.242653 42.1205 0.842239 41.3835C1.44183 40.6465 2.29883 40.1645 3.24008 40.035L3.75008 40H54.0501C51.9066 42.2315 50.0917 44.7569 48.6601 47.5ZM96.2501 20H3.75008L3.24008 20.035C2.29883 20.1645 1.44183 20.6465 0.842239 21.3835C0.242653 22.1205 -0.0548123 23.0577 0.00994763 24.0056C0.0747076 24.9535 0.496865 25.8415 1.19112 26.4901C1.88537 27.1388 2.79996 27.4997 3.75008 27.5H96.2501L96.7601 27.465C97.7013 27.3355 98.5583 26.8535 99.1579 26.1165C99.7575 25.3795 100.055 24.4423 99.9902 23.4944C99.9254 22.5465 99.5033 21.6585 98.809 21.0099C98.1148 20.3612 97.2002 20.0003 96.2501 20ZM96.2501 0H3.75008L3.24008 0.0349998C2.29883 0.164507 1.44183 0.64647 0.842239 1.3835C0.242653 2.12054 -0.0548123 3.05769 0.00994763 4.0056C0.0747076 4.95351 0.496865 5.8415 1.19112 6.49014C1.88537 7.13878 2.79996 7.49971 3.75008 7.5H96.2501L96.7601 7.465C97.7013 7.33549 98.5583 6.85353 99.1579 6.1165C99.7575 5.37946 100.055 4.44231 99.9902 3.4944C99.9254 2.54649 99.5033 1.6585 98.809 1.00986C98.1148 0.361222 97.2002 0.000291213 96.2501 0Z" fill="#EF4444"/>
</svg>
