<svg width="20" height="20" viewBox="0 0 20 20" fill="none" xmlns="http://www.w3.org/2000/svg">
<g clip-path="url(#clip0_1055_51634)">
<path d="M9.56755 20.078C9.43057 19.9056 9.28485 19.7441 9.23924 19.5581C9.16088 19.2385 9.14497 18.9036 9.1007 18.5584C9.07683 18.5733 9.02864 18.5965 8.98861 18.6296C8.52572 19.0121 8.01307 19.0029 7.62543 18.6032C7.31866 18.287 7.33857 17.6535 7.68238 17.2794C8.10172 16.823 8.53919 16.3833 8.95435 15.9233C9.0473 15.8203 9.12947 15.6641 9.13246 15.5305C9.14936 14.7761 9.14062 14.021 9.14062 13.3397C8.70479 13.064 8.31395 12.8039 7.90778 12.5705C7.82402 12.5224 7.66099 12.5348 7.57215 12.5855C7.01525 12.9028 6.48543 13.2721 5.91238 13.5547C5.62315 13.6974 5.5676 13.9278 5.50289 14.1624C5.43201 14.4195 5.25287 14.524 5.06612 14.4279C4.94571 14.366 4.85235 14.114 4.86432 13.9561C4.91503 13.2868 5.43649 13.0112 5.95171 12.7297C6.49204 12.4345 7.01645 12.1103 7.55185 11.8059C7.78487 11.6734 7.96957 11.7132 8.20442 11.8902C8.59987 12.1882 9.03681 12.4558 9.4958 12.6351C9.74291 12.7316 9.83405 12.8611 9.83718 13.0589C9.85184 13.9831 9.89713 14.9125 9.81387 15.8294C9.78588 16.1376 9.42574 16.4276 9.18967 16.702C8.86193 17.083 8.49915 17.4339 8.17299 17.8162C8.10924 17.8909 8.14413 18.0497 8.13352 18.1698C8.25038 18.1523 8.40181 18.1751 8.47781 18.1099C8.73372 17.8905 8.9485 17.6223 9.20893 17.4094C9.31836 17.32 9.52283 17.2612 9.64643 17.3021C9.74249 17.334 9.82803 17.5396 9.83499 17.6723C9.85815 18.1138 9.83166 18.5577 9.85018 18.9997C9.85683 19.1584 9.93722 19.314 9.98396 19.4711C10.0413 19.4743 10.0986 19.4776 10.1559 19.4808C10.2081 19.3198 10.2976 19.1605 10.3053 18.9974C10.3263 18.5557 10.298 18.1115 10.3214 17.6701C10.3284 17.5376 10.4156 17.3321 10.5116 17.3011C10.6356 17.261 10.8374 17.3222 10.949 17.4111C11.1916 17.6044 11.3858 17.8582 11.6259 18.0554C11.7236 18.1356 11.8892 18.1331 12.024 18.1682C12.0029 18.0392 12.0262 17.8723 11.9536 17.7876C11.4853 17.2413 10.9887 16.7193 10.5193 16.1739C10.4139 16.0515 10.325 15.8692 10.3216 15.7125C10.3027 14.8406 10.3159 13.9679 10.3104 13.0956C10.3088 12.8443 10.3938 12.7405 10.6542 12.6371C11.1126 12.455 11.5492 12.1898 11.9475 11.8953C12.1786 11.7244 12.3618 11.6651 12.5987 11.8019C13.3598 12.2416 14.1254 12.6743 14.8737 13.1351C15.2856 13.3887 15.2315 13.8896 15.3839 14.2781C15.5434 14.6846 15.6363 15.1169 15.7893 15.5264C15.829 15.6328 15.9843 15.696 16.0865 15.7791C16.1376 15.639 16.2465 15.4905 16.2276 15.3606C16.1883 15.0906 16.061 14.8344 16.0099 14.565C15.9806 14.4105 15.975 14.1482 16.0564 14.1002C16.1819 14.0261 16.4185 14.0406 16.5603 14.1121C17.0527 14.3604 17.5246 14.6494 18.0021 14.9217C18.2894 14.6204 18.2809 14.5185 17.9392 14.3156C17.572 14.0976 17.1883 13.9053 16.8338 13.6687C16.7098 13.586 16.5713 13.3957 16.5861 13.272C16.5996 13.1583 16.7957 13.0298 16.9373 12.9758C17.2049 12.8738 17.4879 12.8021 17.7705 12.7531C17.976 12.7176 18.1182 12.621 18.0282 12.4352C17.9802 12.3363 17.7499 12.2541 17.623 12.2777C17.1296 12.3694 16.6448 12.5071 16.1565 12.6266C15.9011 12.6891 15.631 12.831 15.3931 12.7897C15.0983 12.7386 14.8223 12.5482 14.5517 12.3942C13.9734 12.0651 13.4131 11.7031 12.8258 11.3915C12.593 11.2679 12.5234 11.1065 12.5845 10.8982C12.7461 10.3477 12.7464 9.80891 12.5846 9.25836C12.5235 9.05056 12.5944 8.89128 12.8254 8.76506C13.5963 8.34377 14.335 7.86226 15.114 7.45758C15.3098 7.35588 15.6174 7.41881 15.8605 7.46918C16.4383 7.58886 17.0049 7.7627 17.5836 7.87656C17.7223 7.90385 17.9808 7.82345 18.027 7.72139C18.1468 7.4569 17.8735 7.41946 17.705 7.36951C17.4405 7.29113 17.1581 7.26902 16.899 7.17806C16.7689 7.13238 16.5967 6.99669 16.5833 6.88496C16.5685 6.7617 16.6812 6.56902 16.7957 6.49441C17.1627 6.25513 17.5598 6.06242 17.9386 5.84034C18.2936 5.63221 18.2959 5.51074 17.9718 5.23788C17.4834 5.52239 17.0031 5.82255 16.5009 6.08022C16.3776 6.14349 16.1509 6.11694 16.0329 6.03901C15.9558 5.98809 15.9506 5.76143 15.9808 5.62884C16.0472 5.33698 16.1807 5.05945 16.236 4.76648C16.2581 4.64984 16.146 4.50784 16.0949 4.37738C15.9901 4.45754 15.8266 4.51715 15.7902 4.62121C15.5633 5.2707 15.3749 5.93359 15.1501 6.58385C15.0933 6.74811 14.9826 6.93482 14.8415 7.02199C14.0936 7.48409 13.3284 7.91812 12.5688 8.36101C12.356 8.48504 12.1727 8.48175 11.9888 8.28199C11.6109 7.87163 11.1331 7.63692 10.5966 7.48142C10.4681 7.44418 10.3211 7.17525 10.3298 7.02117C10.3487 6.68555 10.1185 6.26669 10.5311 6.02748C10.748 5.90168 10.9979 6.08752 11.0136 6.35456C11.0241 6.53565 11.0156 6.71785 11.0156 6.81697C11.4486 7.08806 11.8299 7.34128 12.2277 7.56525C12.3229 7.61884 12.499 7.62149 12.5934 7.56845C13.1958 7.23021 13.7987 6.88896 14.3715 6.50425C14.5284 6.39885 14.6118 6.15104 14.6793 5.95178C14.8519 5.44248 14.9886 4.9211 15.1545 4.40939C15.3701 3.74477 15.7741 3.53651 16.3967 3.751C16.8786 3.91698 17.0794 4.43958 16.8617 5.0783C17.5459 4.69731 18.2668 4.16446 18.7965 5.13023C19.0968 5.67773 18.965 6.09508 17.8333 6.68237C18.2176 6.8231 18.5538 6.97277 18.6904 7.43298C18.7955 7.78682 18.6968 8.0711 18.4783 8.24874C18.2529 8.43193 17.9033 8.59889 17.6345 8.56477C17.0036 8.48469 16.3872 8.28531 15.7676 8.12383C15.5079 8.05613 15.3127 8.12551 15.0836 8.26995C14.501 8.63724 13.8869 8.95453 13.3228 9.27089C13.3228 9.8234 13.3228 10.3265 13.3228 10.8795C13.969 11.2494 14.6375 11.6779 15.3499 12.0129C15.5741 12.1183 15.9203 11.9929 16.2036 11.9373C16.6224 11.8551 17.0338 11.7363 17.4503 11.6414C18.1251 11.4878 18.4927 11.6918 18.694 12.3224C18.8297 12.7475 18.5528 13.1966 18.0107 13.4237C17.9565 13.4465 17.8932 13.4476 17.8165 13.4621C19.1121 14.1275 19.0142 14.597 18.7537 15.1239C18.5675 15.5005 18.2112 15.6097 17.8508 15.5323C17.5161 15.4604 17.2075 15.2671 16.9532 15.1561C16.9327 15.3741 16.9342 15.6458 16.8756 15.9039C16.8085 16.199 16.5835 16.3182 16.2925 16.4279C15.8012 16.6131 15.2925 16.272 15.1627 15.8695C14.9861 15.3216 14.8358 14.7648 14.6877 14.2083C14.5975 13.8692 14.4194 13.6183 14.1062 13.4468C13.5995 13.1693 13.1096 12.8607 12.5991 12.5909C12.4967 12.5368 12.3105 12.554 12.2032 12.6124C11.8128 12.8245 11.4395 13.068 11.0156 13.3267C11.0156 14.0185 11.0082 14.7862 11.0233 15.5535C11.0257 15.675 11.1053 15.8169 11.191 15.9113C11.6076 16.3702 12.0416 16.8131 12.4631 17.2675C12.8125 17.6441 12.8589 18.273 12.5461 18.5829C12.1567 18.9688 11.6817 19.0695 11.158 18.6195C11.1237 18.59 11.0889 18.561 11.008 18.4928C11.0463 19.0986 11.0335 19.633 10.6025 20.0551C10.2846 20.078 9.94423 20.078 9.56755 20.078Z" fill="#374151"/>
<path d="M10.5886 0.078125C10.7256 0.250596 10.8713 0.412021 10.9169 0.597995C10.9953 0.917572 11.0112 1.25246 11.0546 1.59062C11.1828 1.51241 11.3294 1.4072 11.4892 1.32874C11.8395 1.15669 12.2756 1.26532 12.5577 1.58072C12.7749 1.8236 12.8347 2.38946 12.6207 2.64669C12.2023 3.14944 11.7658 3.63883 11.3106 4.1084C11.1094 4.31598 10.9599 4.51112 11.0146 4.8115C11.0215 4.8493 11.0318 4.90252 11.0127 4.92633C10.9066 5.05883 10.8128 5.25778 10.6757 5.29697C10.4017 5.37524 10.3629 5.12205 10.3119 4.92169C10.1448 4.26573 10.579 3.87157 10.9572 3.46162C11.3413 3.04517 11.745 2.64667 12.1308 2.24981C12.0077 1.91811 11.8605 1.8406 11.6251 2.08517C11.4267 2.2913 11.2377 2.51184 11.0131 2.68543C10.8776 2.79023 10.6661 2.88814 10.5193 2.85475C10.4222 2.83268 10.3315 2.57507 10.3217 2.41767C10.2948 1.98971 10.3244 1.55844 10.3059 1.1296C10.2994 0.980732 10.2172 0.835145 10.1696 0.688058C10.117 0.682116 10.0645 0.676173 10.0119 0.670231C9.95583 0.828894 9.85956 0.985521 9.8514 1.14661C9.82902 1.58814 9.86083 2.0326 9.83376 2.4736C9.82507 2.61529 9.72837 2.82584 9.61988 2.8667C9.50658 2.90937 9.30193 2.82054 9.18791 2.72725C8.94754 2.53059 8.75178 2.27973 8.51348 2.08004C8.42452 2.0055 8.26796 2.01162 8.14222 1.98095C8.15689 2.10935 8.12416 2.27849 8.19386 2.35957C8.67131 2.91495 9.17676 3.44621 9.65683 3.99945C9.75472 4.11227 9.83263 4.28435 9.83553 4.43077C9.85224 5.27671 9.84284 6.12314 9.84414 6.96941C9.84459 7.26162 9.77048 7.41794 9.43069 7.53388C8.98014 7.68762 8.5717 7.99294 8.18064 8.28123C7.97596 8.43213 7.81927 8.49266 7.59878 8.36383C6.87226 7.93932 6.15614 7.49464 5.41191 7.1036C4.89429 6.83163 4.94195 6.30636 4.7733 5.88169C4.60761 5.46448 4.51663 5.01804 4.36366 4.59499C4.32924 4.49978 4.17364 4.4484 4.07382 4.37684C4.01845 4.5033 3.89979 4.64111 3.92002 4.75403C3.9726 5.04756 4.10607 5.32604 4.1669 5.61891C4.19644 5.76111 4.18776 5.99581 4.10257 6.05611C3.99357 6.13327 3.76104 6.13346 3.63219 6.06781C3.12902 5.81143 2.64576 5.516 2.15745 5.23644C1.8669 5.53195 1.87339 5.63681 2.2136 5.8372C2.59208 6.06012 2.99066 6.25136 3.35472 6.4949C3.47522 6.57551 3.58066 6.78022 3.57072 6.91947C3.56378 7.01676 3.3609 7.13373 3.22445 7.18091C2.9646 7.27076 2.68881 7.31367 2.42127 7.38246C2.24669 7.42735 2.01693 7.48417 2.12854 7.71542C2.1789 7.81979 2.42926 7.90236 2.567 7.87681C3.13484 7.77151 3.70099 7.64355 4.25445 7.47909C4.62059 7.37028 4.92539 7.35038 5.27207 7.5729C5.93723 7.99985 6.62907 8.38749 7.32588 8.76158C7.55356 8.88382 7.63402 9.03988 7.57244 9.25237C7.41305 9.80235 7.40587 10.3411 7.57097 10.8921C7.63218 11.0964 7.56697 11.2599 7.33503 11.3869C6.56455 11.8088 5.82615 12.2904 5.04773 12.6959C4.8513 12.7983 4.54374 12.7404 4.30093 12.69C3.72338 12.5703 3.15727 12.3948 2.579 12.2797C2.43819 12.2516 2.17797 12.3267 2.1295 12.4288C2.00576 12.6894 2.27387 12.7341 2.44475 12.7842C2.70978 12.862 2.98955 12.8912 3.25168 12.9761C3.37865 13.0173 3.57211 13.1384 3.57211 13.2233C3.57212 13.3723 3.48451 13.5733 3.36593 13.6601C3.07371 13.8741 2.74251 14.0346 2.42821 14.2187C2.30893 14.2886 2.16791 14.3432 2.08366 14.444C2.01838 14.5221 2.02599 14.6611 2.00121 14.773C2.10396 14.7937 2.23321 14.8648 2.30515 14.8269C2.74957 14.5931 3.17195 14.3161 3.62237 14.0959C3.75978 14.0287 3.99064 14.0452 4.12402 14.1204C4.19557 14.1607 4.18303 14.414 4.15196 14.559C4.09179 14.8399 3.96683 15.1081 3.91992 15.39C3.90021 15.5085 4.01059 15.6486 4.06183 15.7788C4.16644 15.6986 4.29107 15.6345 4.37122 15.5346C4.50985 15.362 4.44668 14.9672 4.83598 15.0889C4.96179 15.1282 5.13565 15.2905 5.13882 15.4008C5.15999 16.1365 4.407 16.6537 3.72517 16.3977C3.27458 16.2286 3.0995 15.7386 3.26914 15.0841C2.82972 15.3223 2.42916 15.6959 1.89628 15.5146C1.70255 15.4487 1.49509 15.2751 1.39967 15.0947C1.04364 14.4215 1.27808 14.0307 2.32487 13.4744C1.93852 13.3346 1.6077 13.1809 1.46557 12.7276C1.35377 12.3711 1.48699 12.1301 1.66831 11.8991C1.8748 11.6359 2.18032 11.4975 2.51908 11.5714C3.14438 11.7079 3.76652 11.8625 4.38292 12.0347C4.72846 12.1313 4.96648 11.9669 5.23449 11.8021C5.7687 11.4738 6.32025 11.1736 6.8344 10.8792C6.8344 10.338 6.8344 9.83499 6.8344 9.27682C6.19204 8.90841 5.52431 8.47966 4.81263 8.1441C4.58793 8.03815 4.24015 8.15604 3.9584 8.2166C3.48014 8.3194 3.01026 8.46066 2.53559 8.58072C2.17321 8.67237 1.65666 8.39008 1.50553 8.02449C1.32614 7.59055 1.47949 7.10065 1.8743 6.87746C2.01475 6.79805 2.16847 6.7421 2.30697 6.67958C1.2589 6.07487 1.02986 5.66086 1.40801 5.00108C1.61376 4.64209 1.97705 4.54128 2.33726 4.62371C2.65905 4.69735 2.95306 4.89237 3.20459 5.00856C3.22485 4.78356 3.22254 4.51491 3.27904 4.25926C3.34425 3.96418 3.5651 3.83995 3.85638 3.72897C4.32069 3.55205 4.8342 3.8476 4.97347 4.24482C5.1598 4.77627 5.32318 5.31746 5.46232 5.86316C5.55116 6.2116 5.67357 6.50085 6.01208 6.68236C6.5432 6.96713 7.05561 7.28684 7.58733 7.5704C7.67996 7.6198 7.85082 7.60387 7.94753 7.54994C8.336 7.33332 8.70953 7.08991 9.14054 6.8244C9.14054 6.13275 9.14697 5.35231 9.13317 4.57223C9.13125 4.46317 9.05037 4.33728 8.97137 4.25087C8.55326 3.79348 8.12222 3.34795 7.69936 2.89487C7.41797 2.59337 7.32851 2.0964 7.48754 1.76345C7.65292 1.41719 8.04033 1.17996 8.43037 1.26108C8.67538 1.31204 8.89809 1.47021 9.1433 1.5862C9.1098 1.05758 9.12282 0.523152 9.55368 0.101095C9.87157 0.078125 10.2119 0.078125 10.5886 0.078125Z" fill="#374151"/>
<path d="M10.0782 11.8715C9.69155 11.7298 9.3124 11.6312 8.99016 11.4377C8.22323 10.9774 8.13645 9.84097 8.56536 9.13595C8.88817 8.60533 9.72575 8.20031 10.1931 8.29108C11.0546 8.45843 11.67 8.84799 11.8056 9.81002C11.9484 10.824 11.3018 11.7756 10.284 11.8006C10.226 11.802 10.1691 11.8469 10.0782 11.8715ZM9.08727 9.6216C8.80333 10.1038 9.12043 10.8558 9.685 11.104C10.076 11.2759 10.7843 11.0771 11.0225 10.6056C11.3243 10.0083 11.1387 9.47748 10.5793 9.11809C10.1097 8.81644 9.34847 9.06102 9.08727 9.6216Z" fill="#374151"/>
</g>
<defs>
<clipPath id="clip0_1055_51634">
<rect width="20" height="20" fill="white"/>
</clipPath>
</defs>
</svg>
