<svg width="20" height="20" viewBox="0 0 20 20" fill="none" xmlns="http://www.w3.org/2000/svg">
<g clip-path="url(#clip0_1055_51429)">
<path d="M20.0781 16.9943C19.6423 17.2376 19.2066 17.4445 18.7706 17.6508C18.4001 17.8261 18.2854 17.7539 18.2816 17.3419C18.2797 17.1467 18.2534 16.9466 18.2863 16.7571C18.3963 16.1255 18.1586 15.7276 17.5433 15.5948C16.8795 15.7061 16.7016 16.1407 16.7918 16.7593C16.8234 16.9759 16.7949 17.2011 16.7973 17.4223C16.8008 17.7476 16.6454 17.8019 16.379 17.6717C16.0598 17.5157 15.7407 17.3593 15.3973 17.1911C15.4643 17.0506 15.5209 16.932 15.5976 16.7712C15.8301 16.8729 16.0572 16.9721 16.3281 17.0905C16.3281 16.7158 16.3274 16.3719 16.3286 16.0279C16.3289 15.937 16.3135 15.8387 16.3421 15.7567C16.4414 15.4717 17.5706 15.026 17.8384 15.1656C18.0975 15.3006 18.3552 15.4408 18.599 15.6009C18.6739 15.6501 18.7396 15.7706 18.7433 15.861C18.7589 16.2507 18.7499 16.6413 18.7499 17.0915C19.0446 16.9542 19.32 16.8448 19.5723 16.6963C19.6448 16.6537 19.6804 16.499 19.6825 16.3946C19.6932 15.8613 19.7003 15.327 19.6773 14.7944C19.6723 14.6786 19.5588 14.4934 19.4612 14.4672C18.4348 14.1919 18.2068 13.5326 18.2546 12.5174C18.3462 10.5695 18.2866 8.61429 18.2751 6.66218C18.2735 6.38943 18.3634 6.23194 18.6044 6.12136C18.9637 5.95653 19.4625 5.85745 19.6276 5.57181C19.8094 5.25737 19.6809 4.76349 19.6875 4.34778C19.6877 4.33477 19.6875 4.32176 19.6875 4.30874C19.6875 3.40972 19.6875 3.40972 18.75 3.08874C18.75 3.39224 18.7178 3.69118 18.758 3.98004C18.8098 4.35156 18.6582 4.55242 18.3526 4.73702C17.8191 5.05935 17.3189 5.21614 16.7921 4.73221C16.6744 4.62406 16.4998 4.57777 16.3281 4.49125C16.3281 4.27117 16.3281 4.03822 16.3281 3.80528C16.3281 3.57126 16.3281 3.33723 16.3281 3.056C16.0642 3.18605 15.8168 3.2859 15.5959 3.42709C15.4995 3.48863 15.4038 3.63301 15.3998 3.74311C15.3799 4.289 15.3799 4.8364 15.4 5.38226C15.4039 5.48915 15.5097 5.66268 15.5989 5.6853C16.6782 5.9589 16.8696 6.67007 16.8223 7.69818C16.7338 9.62025 16.7901 11.5493 16.8041 13.4754C16.8062 13.766 16.7109 13.9337 16.4563 14.0458C16.2348 14.1435 16.0306 14.2853 15.8036 14.3642C15.5019 14.4691 15.3514 14.6181 15.3733 14.9706C15.3832 15.131 15.2215 15.3118 15.1143 15.4672C15.0011 15.6311 15.0428 15.741 15.1844 15.8487C15.4771 16.0712 15.444 16.2803 15.1764 16.5089C14.9594 16.6943 14.7569 16.9 14.569 17.115C14.3935 17.3159 14.2693 17.2794 14.0897 17.1118C13.981 17.0104 13.7963 16.9281 13.6537 16.9392C13.391 16.9596 13.3203 17.1622 13.3572 17.4125C13.3908 17.6413 13.2904 17.7473 13.0481 17.7371C12.7363 17.7241 12.4235 17.7289 12.1113 17.7355C11.8303 17.7414 11.7347 17.604 11.7072 17.3341C11.6923 17.1877 11.591 16.9932 11.4719 16.9335C11.3861 16.8904 11.1726 17.0012 11.0762 17.1013C10.8865 17.2983 10.7295 17.323 10.574 17.0941C10.0574 16.3338 9.33571 16.1769 8.45655 16.2267C7.82601 16.2624 7.333 16.2952 6.88676 16.8684C5.88684 18.1528 3.67029 18.0461 2.69031 16.4763C2.57132 16.2857 2.42832 16.2424 2.22061 16.2456C1.53101 16.2564 0.841128 16.2497 0.114739 16.2497C0.078125 15.4668 0.078125 14.6839 0.078125 13.8644C0.297338 13.8278 0.516551 13.8278 0.781244 13.8278C0.781244 13.4194 0.829915 13.0257 0.770464 12.6491C0.66706 11.9941 1.0231 11.5942 1.46415 11.2365C2.68329 10.2478 4.05302 9.67697 5.65505 9.76209C6.05725 9.78346 6.46873 9.7177 6.86309 9.77717C7.37124 9.85381 7.63093 9.58506 7.89156 9.23077C8.79698 8.00001 9.85358 6.92647 11.2334 6.22934C12.3947 5.64257 13.6216 5.27728 15 5.30886C15 4.72288 15.0186 4.14269 14.9925 3.56451C14.9785 3.25439 15.1007 3.08897 15.3668 2.97159C15.7047 2.82248 16.031 2.64728 16.367 2.49338C16.6831 2.34854 16.7913 2.41554 16.7954 2.75674C16.8011 3.22467 16.7968 3.69271 16.7968 4.16173C16.9794 4.26877 17.1516 4.37357 17.3274 4.47204C17.6742 4.66626 18.2772 4.32063 18.2805 3.92499C18.2838 3.5347 18.2768 3.14428 18.2827 2.75405C18.2878 2.41555 18.3982 2.3471 18.7137 2.49405C19.152 2.69816 19.5848 2.91403 20.049 3.12477C20.0781 4.0638 20.0781 5.00293 20.0594 5.95069C19.6101 6.17367 19.1796 6.38802 18.75 6.60186C18.75 8.85913 18.7495 11.0928 18.7521 13.3265C18.7522 13.4105 18.757 13.5479 18.8031 13.57C19.2226 13.7715 19.6518 13.953 20.0781 14.1403C20.0781 15.0794 20.0781 16.0186 20.0781 16.9943ZM8.65818 9.04301C8.41346 9.33834 8.17865 9.64282 7.91889 9.92427C7.82208 10.0292 7.66993 10.1397 7.53796 10.1463C6.64636 10.1908 5.75105 10.1768 4.86164 10.244C4.15496 10.2974 3.48526 10.5281 2.77412 10.9372C2.94858 10.9372 3.02138 10.9361 3.09414 10.9373C3.50764 10.9441 3.56613 11.0115 3.51496 11.421C3.45366 11.9116 2.95212 12.331 2.39966 12.3419C2.00051 12.3497 1.60109 12.3434 1.19633 12.3434C1.19633 12.8585 1.19633 13.3315 1.19633 13.8278C1.45285 13.8278 1.68781 13.8055 1.91687 13.8327C2.31707 13.8803 2.60532 13.7934 2.82787 13.4079C2.96844 13.1644 3.23814 12.9844 3.47455 12.8091C4.60867 11.9684 6.39456 12.268 7.19636 13.5575C7.31742 13.7522 7.46347 13.8601 7.72303 13.8342C8.46568 13.76 9.21132 13.7158 9.92959 13.6618C10.0171 13.4317 10.0733 13.284 10.1267 13.1436C9.61977 12.6317 9.6356 12.6559 10.1388 12.1654C10.1947 12.1109 10.2493 12.055 10.3045 11.9998C10.7978 11.5064 10.7978 11.5064 11.3101 11.945C11.6424 11.885 11.8805 11.763 11.8128 11.346C11.802 11.2789 11.9905 11.116 12.0978 11.1052C12.4199 11.0727 12.7482 11.1084 13.0724 11.0889C13.3523 11.0721 13.4303 11.2112 13.4399 11.4539C13.4465 11.6197 13.3805 11.7916 13.6396 11.8903C13.901 11.9898 13.9915 11.8348 14.1142 11.7019C14.2524 11.5522 14.3724 11.5051 14.5334 11.6755C14.7962 11.9538 15.0854 12.2087 15.3307 12.501C15.3865 12.5674 15.3553 12.8099 15.284 12.8622C14.9615 13.0988 15.0553 13.3329 15.2351 13.6001C15.415 13.6001 15.6085 13.5597 15.7766 13.6079C16.2243 13.7364 16.3279 13.6741 16.328 13.2026C16.3283 11.1725 16.3284 9.14243 16.3274 7.11232C16.3273 6.98739 16.3168 6.86246 16.3113 6.74222C13.2571 6.50598 11.5755 7.19741 10.3224 8.68657C10.6015 8.75196 10.9307 8.76898 11.1973 8.90705C11.5178 9.07305 11.5312 9.41367 11.436 9.77785C12.8841 9.77785 14.3238 9.77785 15.7867 9.77785C15.7748 9.92175 15.7657 10.0304 15.7553 10.1559C13.607 10.1559 11.4872 10.1559 9.36733 10.1559C8.61018 10.1559 8.60786 10.1557 8.67467 9.39851C8.68453 9.28672 8.72839 9.17792 8.79867 9.05011C8.80257 9.01474 8.80646 8.97937 8.81036 8.944C8.77291 8.96513 8.73547 8.98625 8.65818 9.04301ZM9.95463 14.0622C9.38158 14.1121 9.84016 14.5217 9.63655 14.7658C10.0835 14.7362 10.3709 14.7479 10.5003 15.2329C10.6009 15.6101 10.7557 15.9058 10.4062 16.1441C10.5694 16.3154 10.708 16.4608 10.7729 16.529C11.0356 16.4634 11.2872 16.3121 11.4611 16.3751C11.842 16.5132 12.4028 16.5709 12.1667 17.2653C12.3393 17.2653 12.454 17.2653 12.5687 17.2653C12.6944 17.2653 12.8202 17.2653 12.9414 17.2653C12.9997 16.6188 12.9916 16.5926 13.6777 16.3822C13.871 16.3229 14.1263 16.4657 14.354 16.516C14.4506 16.4392 14.6196 16.3048 14.7264 16.2199C14.6296 15.9906 14.4766 15.8044 14.4996 15.6432C14.5378 15.3755 14.688 15.1235 14.7929 14.8657C14.9015 14.5987 15.0124 14.3326 15.1167 14.0799C14.5472 14.1234 14.7406 13.5056 14.5301 13.2114C14.4589 13.1117 14.6377 12.8334 14.7219 12.5765C14.6293 12.4958 14.4747 12.3612 14.3028 12.2116C13.982 12.8142 13.5552 12.3952 13.1995 12.2398C13.0114 12.1576 12.9168 11.8616 12.7799 11.6621C12.8084 11.6352 12.837 11.6083 12.8655 11.5814C12.6511 11.5814 12.4368 11.5814 12.1686 11.5814C12.4267 12.2823 11.8151 12.294 11.4576 12.4473C11.2878 12.5201 11.0162 12.3555 10.7945 12.2995C10.6951 12.3877 10.5424 12.5231 10.3713 12.6749C10.7004 12.9145 10.7574 13.1925 10.5089 13.5191C10.4579 13.5861 10.4302 13.6821 10.4215 13.7678C10.3961 14.0191 10.2554 14.0978 9.95463 14.0622ZM3.07933 13.8353C3.03713 13.9279 2.99696 14.0215 2.95242 14.1129C2.26084 15.5326 3.27029 17.0815 4.69369 17.2508C6.26945 17.4382 7.53643 15.9417 7.09276 14.4158C6.83599 13.5328 5.90851 12.794 4.96329 12.8106C4.17797 12.8244 3.58721 13.1895 3.07933 13.8353ZM7.94445 15.859C8.54208 15.859 9.13974 15.8624 9.73733 15.8577C10.0984 15.855 10.1525 15.7687 10.0217 15.4405C9.99534 15.3742 9.97754 15.3045 9.95844 15.2448C9.29992 15.2204 9.30084 15.2204 9.296 14.577C9.29515 14.4649 9.28295 14.3529 9.27627 14.2453C8.72358 14.2453 8.199 14.2453 7.65643 14.2453C7.65643 14.7253 7.64638 15.1792 7.666 15.6317C7.6694 15.7102 7.79829 15.7833 7.94445 15.859ZM0.468756 15.2681C0.468756 15.4579 0.468756 15.6477 0.468756 15.8303C1.09679 15.8303 1.67411 15.8303 2.24705 15.8303C2.24705 15.2854 2.24705 14.7695 2.24705 14.2406C1.65121 14.2406 1.07408 14.2406 0.468756 14.2406C0.468756 14.5722 0.468756 14.882 0.468756 15.2681ZM9.84765 8.41575C11.3496 6.72629 13.2664 6.09283 15.5972 6.27044C15.2559 6.05926 15.0401 5.82453 14.8044 5.80249C14.4045 5.76509 13.9859 5.82994 13.586 5.908C12.253 6.16826 11.0619 6.74974 10.019 7.61327C9.60696 7.95447 9.2522 8.36485 8.87136 8.74372C8.89209 8.7692 8.91281 8.79467 8.93354 8.82014C9.22679 8.68175 9.63449 8.87134 9.84765 8.41575ZM10.6825 9.16005C10.3345 9.15357 9.98506 9.12505 9.63877 9.14661C9.27106 9.16952 9.03023 9.31577 9.21133 9.79494C9.71662 9.7629 10.2393 9.74022 10.7588 9.68684C10.8487 9.6776 10.9253 9.53835 11.008 9.45915C10.9167 9.37393 10.8254 9.2887 10.6825 9.16005ZM2.35167 11.8746C2.58487 11.7588 2.81808 11.643 3.05128 11.5271C3.02507 11.4658 2.99886 11.4044 2.97265 11.3431C2.53626 11.4752 2.09986 11.6072 1.65404 11.7421C1.6962 11.843 1.70029 11.8622 1.70488 11.8624C1.89796 11.8675 2.09108 11.871 2.35167 11.8746Z" fill="#374151"/>
<path d="M13.265 12.9649C14.276 13.4874 14.3156 14.4706 14.0146 15.1423C13.6545 15.9462 12.684 16.2388 11.8939 15.8626C10.945 15.4109 10.8258 14.5064 11.1187 13.7503C11.4068 13.0064 12.3113 12.5361 13.265 12.9649ZM13.0776 15.403C13.5856 15.0894 13.7341 14.7712 13.621 14.2426C12.9133 14.2426 12.2063 14.2426 11.5013 14.2426C11.4414 15.2054 12.0855 15.7008 13.0776 15.403ZM13.4002 13.6734C12.82 13.1068 12.1794 13.1502 11.6659 13.8235C12.2668 13.8235 12.8422 13.824 13.4176 13.8191C13.4254 13.819 13.4326 13.7522 13.4002 13.6734Z" fill="#374151"/>
<path d="M3.51511 14.8643C3.49297 14.1961 4.26766 13.5829 4.81927 13.5745C5.49444 13.5643 5.98666 13.7999 6.27629 14.3737C6.77331 15.3584 6.03906 16.5225 5.01514 16.4987C4.33179 16.4828 3.85442 16.2334 3.60085 15.6156C3.51284 15.4012 3.54036 15.1394 3.51511 14.8643ZM5.93678 14.9727C5.88989 14.3581 5.4709 14.0141 4.81051 14.0651C4.3732 14.0988 3.942 14.4468 3.97965 15.112C4.01161 15.6765 4.37747 16.0199 4.99426 16.0155C5.54655 16.0115 5.9251 15.6192 5.93678 14.9727Z" fill="#374151"/>
</g>
<defs>
<clipPath id="clip0_1055_51429">
<rect width="20" height="20" fill="white"/>
</clipPath>
</defs>
</svg>
