<svg width="32" height="32" viewBox="0 0 32 32" fill="none" xmlns="http://www.w3.org/2000/svg">
<g clip-path="url(#clip0_954_59623)">
<path d="M32.125 27.1915C31.4277 27.5807 30.7305 27.9117 30.0329 28.2419C29.4402 28.5224 29.2567 28.4069 29.2505 27.7476C29.2476 27.4353 29.2054 27.1151 29.2582 26.812C29.4341 25.8013 29.0537 25.1647 28.0693 24.9523C27.0072 25.1303 26.7226 25.8257 26.8669 26.8154C26.9175 27.1621 26.8718 27.5223 26.8756 27.8762C26.8812 28.3967 26.6326 28.4836 26.2064 28.2754C25.6956 28.0258 25.1852 27.7755 24.6356 27.5064C24.7429 27.2815 24.8335 27.0917 24.9562 26.8346C25.3282 26.9972 25.6916 27.156 26.125 27.3454C26.125 26.7459 26.1239 26.1955 26.1257 25.6452C26.1262 25.4998 26.1016 25.3426 26.1473 25.2113C26.3062 24.7553 28.1129 24.0422 28.5414 24.2655C28.956 24.4815 29.3683 24.7059 29.7584 24.9621C29.8783 25.0407 29.9834 25.2335 29.9892 25.3782C30.0143 26.0017 29.9999 26.6267 29.9999 27.3471C30.4714 27.1273 30.9119 26.9522 31.3157 26.7147C31.4316 26.6465 31.4886 26.399 31.492 26.232C31.5091 25.3786 31.5205 24.5238 31.4837 23.6716C31.4757 23.4864 31.2941 23.19 31.1379 23.1481C29.4957 22.7077 29.1309 21.6528 29.2073 20.0284C29.3539 16.9119 29.2586 13.7834 29.2401 10.6601C29.2375 10.2237 29.3814 9.97169 29.767 9.79476C30.3419 9.53103 31.1399 9.3725 31.4042 8.91547C31.6951 8.41237 31.4894 7.62217 31.5 6.95704C31.5003 6.93622 31.5 6.91539 31.5 6.89457C31.5 5.45614 31.5 5.45614 30 4.94257C30 5.42817 29.9485 5.90647 30.0129 6.36865C30.0956 6.96308 29.8531 7.28446 29.3642 7.57982C28.5105 8.09555 27.7103 8.34642 26.8674 7.57213C26.679 7.39908 26.3997 7.32501 26.125 7.18658C26.125 6.83445 26.125 6.46174 26.125 6.08904C26.125 5.7146 26.125 5.34016 26.125 4.89018C25.7027 5.09827 25.3069 5.25803 24.9534 5.48393C24.7993 5.58239 24.646 5.81339 24.6396 5.98957C24.6078 6.86298 24.6078 7.73882 24.64 8.61221C24.6463 8.78322 24.8155 9.06088 24.9582 9.09707C26.6852 9.53483 26.9914 10.6727 26.9157 12.3177C26.7741 15.393 26.8642 18.4795 26.8866 21.5612C26.8899 22.0262 26.7374 22.2945 26.3301 22.4739C25.9757 22.6301 25.6489 22.857 25.2857 22.9833C24.803 23.1511 24.5623 23.3895 24.5972 23.9535C24.6131 24.2102 24.3544 24.4995 24.1828 24.7481C24.0018 25.0103 24.0684 25.1862 24.2951 25.3585C24.7633 25.7144 24.7103 26.049 24.2822 26.4148C23.935 26.7114 23.611 27.0406 23.3104 27.3847C23.0296 27.706 22.8308 27.6477 22.5434 27.3794C22.3696 27.2172 22.074 27.0855 21.8458 27.1033C21.4257 27.136 21.3125 27.4601 21.3714 27.8606C21.4254 28.2266 21.2646 28.3962 20.877 28.38C20.3781 28.3591 19.8775 28.3668 19.378 28.3774C18.9285 28.3869 18.7756 28.167 18.7316 27.7352C18.7077 27.501 18.5456 27.1897 18.3551 27.0941C18.2178 27.0252 17.8762 27.2025 17.7219 27.3627C17.4184 27.6778 17.1672 27.7174 16.9184 27.3512C16.0918 26.1347 14.9371 25.8835 13.5305 25.9633C12.5216 26.0204 11.7328 26.073 11.0188 26.9901C9.41894 29.0451 5.87246 28.8743 4.3045 26.3627C4.11411 26.0577 3.88532 25.9884 3.55298 25.9936C2.44961 26.0108 1.3458 26.0001 0.183582 26.0001C0.125 24.7474 0.125 23.4948 0.125 22.1836C0.475741 22.1251 0.826482 22.1251 1.24999 22.1251C1.24999 21.4716 1.32786 20.8418 1.23274 20.2392C1.0673 19.1911 1.63696 18.5513 2.34263 17.979C4.29327 16.397 6.48483 15.4837 9.04808 15.6199C9.6916 15.6541 10.35 15.5489 10.981 15.6441C11.794 15.7667 12.2095 15.3367 12.6265 14.7698C14.0752 12.8006 15.7657 11.0829 17.9734 9.96753C19.8316 9.0287 21.7945 8.44423 24 8.49476C24 7.5572 24.0298 6.62888 23.988 5.7038C23.9656 5.2076 24.1612 4.94294 24.5868 4.75512C25.1275 4.51656 25.6496 4.23623 26.1871 3.99C26.693 3.75825 26.8661 3.86546 26.8727 4.41136C26.8818 5.16005 26.8749 5.90893 26.8749 6.65936C27.167 6.83062 27.4426 6.9983 27.7239 7.15584C28.2787 7.4666 29.2435 6.9136 29.2489 6.28058C29.2541 5.6561 29.2428 5.03144 29.2523 4.40706C29.2605 3.86546 29.4371 3.75594 29.942 3.99107C30.6432 4.31764 31.3357 4.66304 32.0785 5.00022C32.125 6.50267 32.125 8.00528 32.095 9.52169C31.3762 9.87846 30.6873 10.2214 30.0001 10.5636C30.0001 14.1752 29.9992 17.7491 30.0034 21.323C30.0035 21.4573 30.0113 21.6772 30.085 21.7126C30.7562 22.035 31.4428 22.3253 32.125 22.6251C32.125 24.1277 32.125 25.6303 32.125 27.1915ZM13.8531 14.4694C13.4615 14.9419 13.0858 15.4291 12.6702 15.8794C12.5153 16.0473 12.2719 16.2241 12.0607 16.2347C10.6342 16.3058 9.20168 16.2835 7.77862 16.391C6.64794 16.4764 5.57642 16.8455 4.4386 17.5C4.71772 17.5 4.8342 17.4984 4.95063 17.5003C5.61222 17.5111 5.7058 17.619 5.62394 18.2742C5.52586 19.0592 4.7234 19.7302 3.83946 19.7476C3.20082 19.7601 2.56175 19.75 1.91414 19.75C1.91414 20.5742 1.91414 21.331 1.91414 22.125C2.32456 22.125 2.70049 22.0893 3.06699 22.1329C3.70731 22.2091 4.16851 22.0701 4.52459 21.4532C4.7495 21.0636 5.18102 20.7756 5.55928 20.4952C7.37387 19.1501 10.2313 19.6294 11.5142 21.6926C11.7079 22.0041 11.9416 22.1767 12.3568 22.1353C13.5451 22.0166 14.7381 21.9459 15.8874 21.8595C16.0274 21.4914 16.1173 21.2551 16.2027 21.0304C15.3916 20.2113 15.417 20.25 16.2221 19.4652C16.3115 19.378 16.3988 19.2886 16.4871 19.2002C17.2765 18.4108 17.2765 18.4108 18.0962 19.1125C18.6278 19.0165 19.0087 18.8213 18.9005 18.1542C18.8831 18.0469 19.1849 17.7863 19.3565 17.7689C19.8718 17.7169 20.3971 17.774 20.9158 17.7428C21.3637 17.7159 21.4885 17.9384 21.5039 18.3268C21.5144 18.5921 21.4087 18.8671 21.8234 19.0251C22.2415 19.1843 22.3863 18.9363 22.5826 18.7236C22.8038 18.4841 22.9959 18.4088 23.2534 18.6814C23.6739 19.1267 24.1366 19.5345 24.5292 20.0021C24.6184 20.1084 24.5685 20.4964 24.4544 20.5801C23.9385 20.9586 24.0885 21.3333 24.3762 21.7607C24.664 21.7607 24.9736 21.6961 25.2425 21.7733C25.9588 21.9789 26.1247 21.8791 26.1248 21.1248C26.1253 17.8766 26.1255 14.6285 26.1238 11.3803C26.1237 11.1804 26.1068 10.9805 26.0981 10.7881C21.2113 10.4102 18.5208 11.5164 16.5158 13.8991C16.9624 14.0037 17.4892 14.031 17.9157 14.2519C18.4284 14.5175 18.4499 15.0625 18.2977 15.6451C20.6146 15.6451 22.9181 15.6451 25.2587 15.6451C25.2396 15.8754 25.2252 16.0492 25.2085 16.2501C21.7712 16.2501 18.3795 16.2501 14.9877 16.2501C13.7763 16.2501 13.7726 16.2497 13.8795 15.0382C13.8952 14.8593 13.9654 14.6853 14.0779 14.4808C14.0841 14.4242 14.0903 14.3676 14.0966 14.311C14.0367 14.3448 13.9767 14.3786 13.8531 14.4694ZM15.9274 22.5001C15.0105 22.58 15.7443 23.2353 15.4185 23.6258C16.1335 23.5786 16.5934 23.5972 16.8004 24.3733C16.9614 24.9767 17.2092 25.4499 16.6499 25.8312C16.911 26.1052 17.1328 26.3379 17.2367 26.447C17.6569 26.342 18.0595 26.0999 18.3377 26.2008C18.9472 26.4217 19.8445 26.5141 19.4668 27.625C19.7429 27.625 19.9264 27.625 20.1099 27.625C20.3111 27.625 20.5123 27.625 20.7063 27.625C20.7994 26.5906 20.7866 26.5488 21.8843 26.2121C22.1936 26.1172 22.6022 26.3457 22.9664 26.4261C23.1209 26.3033 23.3914 26.0882 23.5622 25.9524C23.4073 25.5856 23.1626 25.2876 23.1994 25.0296C23.2605 24.6014 23.5008 24.1982 23.6686 23.7857C23.8424 23.3585 24.0199 22.9328 24.1867 22.5285C23.2755 22.5981 23.5849 21.6096 23.2482 21.1388C23.1342 20.9794 23.4203 20.534 23.5551 20.1229C23.4069 19.9939 23.1595 19.7786 22.8844 19.5391C22.3712 20.5033 21.6883 19.8329 21.1193 19.5843C20.8183 19.4528 20.6668 18.9791 20.4478 18.66C20.4935 18.6169 20.5391 18.5738 20.5848 18.5308C20.2418 18.5308 19.8989 18.5308 19.4697 18.5308C19.8827 19.6522 18.9041 19.6709 18.3321 19.9162C18.0605 20.0327 17.626 19.7694 17.2711 19.6797C17.1121 19.8208 16.8679 20.0376 16.5941 20.2804C17.1206 20.6638 17.2118 21.1087 16.8142 21.6311C16.7327 21.7383 16.6883 21.892 16.6744 22.029C16.6337 22.4312 16.4086 22.557 15.9274 22.5001ZM4.92692 22.1371C4.8594 22.2852 4.79514 22.4349 4.72387 22.5812C3.61735 24.8527 5.23246 27.331 7.5099 27.6018C10.0311 27.9016 12.0583 25.5073 11.3484 23.0659C10.9376 21.653 9.45361 20.471 7.94126 20.4975C6.68476 20.5196 5.73954 21.1038 4.92692 22.1371ZM12.7111 25.375C13.6673 25.375 14.6236 25.3804 15.5797 25.373C16.1574 25.3685 16.2439 25.2306 16.0348 24.7053C15.9925 24.5993 15.9641 24.4879 15.9335 24.3922C14.8799 24.3532 14.8813 24.3532 14.8736 23.3238C14.8722 23.1445 14.8527 22.9652 14.842 22.793C13.9577 22.793 13.1184 22.793 12.2503 22.793C12.2503 23.5611 12.2342 24.2873 12.2656 25.0113C12.271 25.1369 12.4773 25.2538 12.7111 25.375ZM0.75001 24.4295C0.75001 24.7332 0.75001 25.037 0.75001 25.329C1.75486 25.329 2.67858 25.329 3.59528 25.329C3.59528 24.4572 3.59528 23.6317 3.59528 22.7855C2.64194 22.7855 1.71852 22.7855 0.75001 22.7855C0.75001 23.3161 0.75001 23.8118 0.75001 24.4295ZM15.7562 13.4658C18.1594 10.7627 21.2262 9.74912 24.9555 10.0333C24.4094 9.6954 24.0642 9.31984 23.6871 9.28457C23.0472 9.22473 22.3774 9.32849 21.7377 9.45338C19.6048 9.8698 17.699 10.8002 16.0304 12.1818C15.3711 12.7277 14.8035 13.3843 14.1942 13.9905C14.2273 14.0313 14.2605 14.0721 14.2937 14.1128C14.7629 13.8914 15.4152 14.1947 15.7562 13.4658ZM17.092 14.6567C16.5352 14.6463 15.9761 14.6007 15.422 14.6352C14.8337 14.6718 14.4484 14.9058 14.7381 15.6725C15.5466 15.6212 16.3828 15.5849 17.214 15.4995C17.3579 15.4848 17.4804 15.2619 17.6128 15.1352C17.4667 14.9989 17.3206 14.8625 17.092 14.6567ZM3.76266 19C4.13579 18.8147 4.50892 18.6293 4.88205 18.444C4.84012 18.3459 4.79818 18.2477 4.75624 18.1495C4.05801 18.3608 3.35978 18.5721 2.64646 18.788C2.71392 18.9493 2.72046 18.9802 2.72782 18.9804C3.03674 18.9886 3.34573 18.9942 3.76266 19Z" fill="#286FFF"/>
<path d="M21.2235 20.7434C22.841 21.5795 22.9043 23.1526 22.4228 24.2273C21.8466 25.5135 20.2938 25.9818 19.0296 25.3798C17.5115 24.657 17.3207 23.2099 17.7893 22C18.2503 20.8099 19.6975 20.0574 21.2235 20.7434ZM20.9236 24.6444C21.7364 24.1427 21.974 23.6335 21.7931 22.7878C20.6606 22.7878 19.5294 22.7878 18.4015 22.7878C18.3057 24.3282 19.3363 25.1208 20.9236 24.6444ZM21.4397 21.877C20.5114 20.9704 19.4864 21.0399 18.6648 22.1173C19.6263 22.1173 20.547 22.118 21.4676 22.1102C21.48 22.1101 21.4915 22.0032 21.4397 21.877Z" fill="#286FFF"/>
<path d="M5.62477 23.7828C5.58933 22.7138 6.82884 21.7327 7.71142 21.7193C8.7917 21.7028 9.57925 22.0798 10.0427 22.9979C10.8379 24.5734 9.66308 26.436 8.02481 26.3979C6.93146 26.3724 6.16766 25.9734 5.76194 24.9849C5.62114 24.6419 5.66516 24.223 5.62477 23.7828ZM9.49943 23.9564C9.42441 22.973 8.75403 22.4225 7.6974 22.5041C6.9977 22.5582 6.30778 23.1149 6.36803 24.1792C6.41917 25.0825 7.00454 25.6319 7.99141 25.6248C8.87507 25.6184 9.48075 24.9908 9.49943 23.9564Z" fill="#286FFF"/>
</g>
<defs>
<clipPath id="clip0_954_59623">
<rect width="32" height="32" fill="white"/>
</clipPath>
</defs>
</svg>
