<svg width="20" height="20" viewBox="0 0 20 20" fill="none" xmlns="http://www.w3.org/2000/svg">
<g clip-path="url(#clip0_1055_51714)">
<path d="M14.8073 7.23462C14.6658 7.05015 14.4816 6.9119 14.3629 6.73077C14.2534 6.56387 14.2143 6.3509 14.1441 6.15822C14.3048 6.1107 14.4643 6.0589 14.6266 6.01798C14.6839 6.00354 14.7479 6.01567 14.8735 5.92646C14.709 5.7879 14.5508 5.64072 14.3782 5.51298C14.1664 5.35614 14.0516 5.12763 14.1648 4.91546C14.2227 4.80682 14.4934 4.80971 14.6692 4.76724C14.7129 4.75667 14.7614 4.76566 14.9064 4.76566C14.6783 4.54706 14.5268 4.37159 14.3455 4.23605C14.1344 4.07827 14.0722 3.85269 14.1647 3.66057C14.213 3.5603 14.4695 3.55683 14.6339 3.51781C14.6906 3.50436 14.7532 3.51567 14.926 3.51567C14.6546 3.26179 14.4326 3.09914 14.2738 2.88876C14.1795 2.76372 14.1512 2.5609 14.1641 2.39869C14.1684 2.34527 14.3946 2.27201 14.5197 2.27136C16.1471 2.2628 17.7747 2.26341 19.4021 2.27048C19.5177 2.27098 19.7266 2.33105 19.7312 2.37893C19.747 2.54255 19.7402 2.74806 19.6513 2.87326C19.4968 3.091 19.2747 3.2608 19.0355 3.49518C19.1934 3.50393 19.302 3.49762 19.4049 3.51889C19.5225 3.5432 19.7287 3.58397 19.7328 3.63168C19.7469 3.79557 19.7383 4.00081 19.6485 4.12553C19.4928 4.34171 19.2699 4.50948 19.0046 4.76568C19.1961 4.76568 19.3055 4.75049 19.4085 4.76969C19.5259 4.79157 19.7312 4.83708 19.7348 4.88461C19.7471 5.04874 19.7366 5.25357 19.6457 5.37781C19.4888 5.5924 19.2652 5.75821 18.9948 6.01568C19.198 6.01568 19.3084 6.00007 19.4121 6.01982C19.5292 6.0421 19.7264 6.08082 19.7368 6.13946C19.7634 6.28829 19.7541 6.48827 19.6703 6.60251C19.5052 6.82745 19.2798 7.00816 19.0784 7.20821C19.1108 7.23603 19.1269 7.26189 19.1434 7.26216C19.8174 7.27301 19.7664 7.17365 19.7661 7.89605C19.7659 8.39081 19.7476 8.88651 19.7726 9.38C19.7889 9.70165 19.6675 9.79491 19.3658 9.77029C19.0967 9.74834 18.8245 9.76568 18.516 9.76568C18.516 9.92773 18.516 10.0666 18.516 10.2055C18.516 13.2522 18.5121 16.2989 18.522 19.3455C18.523 19.6591 18.4551 19.8002 18.1113 19.7723C17.7491 19.7428 17.3819 19.7502 17.0184 19.7706C16.7312 19.7867 16.6308 19.6928 16.6351 19.3965C16.6503 18.3421 16.641 17.2873 16.641 16.2327C16.641 16.171 16.641 16.1093 16.641 16.0318C12.2569 16.0318 7.9025 16.0318 3.51604 16.0318C3.51604 17.1353 3.50064 18.2256 3.52466 19.315C3.53272 19.6804 3.42779 19.8052 3.06345 19.7722C2.7277 19.7417 2.38516 19.7437 2.04899 19.7718C1.71102 19.8001 1.63345 19.6679 1.63467 19.3488C1.64559 16.4844 1.64104 13.62 1.64104 10.7555C1.64104 10.4436 1.64104 10.1316 1.64104 9.76568C1.35419 9.76568 1.0729 9.74886 0.794537 9.77025C0.496951 9.79312 0.370698 9.70852 0.38419 9.38328C0.408454 8.79839 0.401469 8.21149 0.386344 7.62598C0.379487 7.36052 0.455229 7.24141 0.738298 7.2613C1.02204 7.28124 1.30827 7.26568 1.61716 7.26568C1.61716 7.06403 1.61716 6.87584 1.61716 6.68319C0.80068 6.39663 0.341375 5.89341 0.383528 4.94128C0.419771 4.12262 0.388968 3.30107 0.391829 2.48082C0.393513 1.99817 0.752746 1.64445 1.23899 1.64112C1.57508 1.63882 1.91121 1.64068 2.24435 1.64068C2.30011 0.870603 2.72902 0.435985 3.34286 0.381622C4.22647 0.303368 4.77471 0.836903 4.79187 1.64068C5.14007 1.64068 5.48957 1.63647 5.83892 1.64176C6.26474 1.6482 6.63758 2.02076 6.63971 2.44854C6.64412 3.33388 6.61877 4.22 6.64792 5.1044C6.67231 5.84474 6.1756 6.47761 5.40346 6.65953C5.40346 6.84776 5.40346 7.03893 5.40346 7.24791C6.43593 7.24791 7.45826 7.24791 8.49836 7.24791C8.49836 7.06424 8.49836 6.88646 8.49836 6.68037C7.96121 6.48968 7.46538 6.21491 7.32795 5.56901C7.3046 5.45928 7.26933 5.34852 7.26875 5.23808C7.26396 4.3267 7.26469 3.41529 7.26657 2.50389C7.26762 1.98883 7.61455 1.64371 8.12998 1.64099C8.45398 1.63929 8.778 1.64068 8.97626 1.64068C9.20292 1.25441 9.34949 0.9089 9.58086 0.635029C9.85786 0.307159 10.2839 0.378369 10.6642 0.394084C11.2036 0.416375 11.6293 0.950173 11.649 1.64068C11.982 1.64068 12.3169 1.63928 12.6518 1.641C13.1681 1.64365 13.5143 1.98801 13.5155 2.50359C13.5175 3.33687 13.4882 4.17134 13.5237 5.00311C13.561 5.87778 13.0731 6.43654 12.2757 6.67445C12.2757 6.85264 12.2757 7.03382 12.2757 7.26215C13.1117 7.26215 13.9525 7.26215 14.8073 7.23462ZM13.5742 9.90762C12.7084 10.7714 11.8427 11.6354 10.9767 12.499C10.4239 13.0503 9.7365 13.0544 9.19019 12.5089C8.34307 11.663 7.49829 10.8147 6.64794 9.97209C6.56215 9.88707 6.4458 9.77654 6.34204 9.77483C5.40927 9.7595 4.47615 9.76588 3.53288 9.76588C3.53288 11.2376 3.53288 12.675 3.53288 14.112C7.91197 14.112 12.2742 14.112 16.6128 14.112C16.6128 12.6456 16.6128 11.2081 16.6128 9.76568C15.6997 9.76568 14.8148 9.76255 13.9301 9.76979C13.8242 9.77066 13.7187 9.82786 13.5742 9.90762ZM11.4067 11.0547C12.4459 10.0153 13.4851 8.97584 14.5419 7.91889C11.5374 7.91889 8.59397 7.91889 5.6233 7.91889C7.01137 9.30903 8.37209 10.6707 9.73126 12.034C9.96776 12.2712 10.193 12.2736 10.4292 12.032C10.7383 11.7157 11.0545 11.4062 11.4067 11.0547ZM3.63323 3.51568C2.76633 3.51568 1.89944 3.51568 1.01608 3.51568C1.01608 4.00116 0.978533 4.44599 1.0243 4.88207C1.10663 5.66664 1.41242 5.96385 2.18875 6.00489C3.0715 6.05155 3.95869 6.02287 4.8438 6.01298C5.37732 6.00702 5.87608 5.6945 5.92773 5.28753C6.0013 4.70783 6.01024 4.11992 6.04802 3.51568C5.21801 3.51568 4.46468 3.51568 3.63323 3.51568ZM11.9136 3.51568C10.5782 3.51568 9.24275 3.51568 7.89108 3.51568C7.89108 4.00172 7.85343 4.44665 7.89932 4.88279C7.98182 5.66673 8.28758 5.964 9.06453 6.00493C9.94733 6.05144 10.8345 6.02301 11.7197 6.01293C12.2542 6.00685 12.751 5.69476 12.8028 5.28661C12.8763 4.70698 12.8852 4.11913 12.9229 3.51568C12.5609 3.51568 12.2761 3.51568 11.9136 3.51568ZM15.8961 15.3907C16.1394 15.3907 16.3827 15.3907 16.6196 15.3907C16.6196 15.16 16.6196 14.972 16.6196 14.7869C12.243 14.7869 7.88783 14.7869 3.53762 14.7869C3.53762 14.9967 3.53762 15.1847 3.53762 15.3907C7.64574 15.3907 11.7323 15.3907 15.8961 15.3907ZM17.266 17.461C17.266 18.0162 17.266 18.5715 17.266 19.1183C17.4987 19.1183 17.6866 19.1183 17.8691 19.1183C17.8691 15.9908 17.8691 12.8857 17.8691 9.78806C17.6585 9.78806 17.4708 9.78806 17.266 9.78806C17.266 12.3346 17.266 14.8587 17.266 17.461ZM2.26604 15.9766C2.26604 17.0265 2.26604 18.0763 2.26604 19.1183C2.49866 19.1183 2.68654 19.1183 2.86918 19.1183C2.86918 15.9909 2.86918 12.8858 2.86918 9.78802C2.65845 9.78802 2.47057 9.78802 2.26604 9.78802C2.26604 11.8397 2.26604 13.8691 2.26604 15.9766ZM4.70827 8.03298C4.54546 7.98555 4.3831 7.89894 4.21975 7.89703C3.15824 7.88465 2.09651 7.89068 1.03722 7.89068C1.03722 8.32957 1.03722 8.72563 1.03722 9.11957C2.62224 9.11957 4.18598 9.11957 5.82924 9.11957C5.43736 8.73697 5.0963 8.40399 4.70827 8.03298ZM18.1637 9.14068C18.4837 9.14068 18.8037 9.14068 19.1204 9.14068C19.1204 8.70193 19.1204 8.30631 19.1204 7.89069C17.9851 7.89069 16.8703 7.88976 15.7556 7.89285C15.6839 7.89305 15.5895 7.90079 15.5444 7.94476C15.1543 8.32536 14.773 8.71507 14.3508 9.14068C15.6451 9.14068 16.8654 9.14068 18.1637 9.14068ZM9.33698 2.26568C9.03787 2.26568 8.73863 2.26003 8.43969 2.26706C8.03564 2.27658 7.89659 2.44162 7.91928 2.879C9.56739 2.879 11.2161 2.879 12.8642 2.879C12.8847 2.42629 12.7421 2.26843 12.3019 2.26679C11.3396 2.2632 10.3772 2.26568 9.33698 2.26568ZM4.95644 2.26568C3.83786 2.26568 2.71926 2.26322 1.60069 2.26691C1.16256 2.26835 1.01776 2.43235 1.0472 2.87821C2.69556 2.87821 4.3445 2.87821 5.99308 2.87821C6.00522 2.4351 5.86727 2.27813 5.46175 2.26634C5.31879 2.26219 5.17562 2.26568 4.95644 2.26568ZM16.8364 2.89068C16.3387 2.89068 15.8411 2.89068 15.3303 2.89068C15.6352 3.40798 16.0451 3.60006 16.6045 3.52281C16.8973 3.48238 17.2066 3.47689 17.4973 3.52405C18.0414 3.6123 18.2828 3.25012 18.6076 2.89068C18.0023 2.89068 17.4584 2.89068 16.8364 2.89068ZM15.4284 4.14086C15.405 4.1463 15.3805 4.14906 15.3589 4.15844C15.3496 4.16245 15.3387 4.18804 15.3414 4.19063C15.6162 4.45774 15.806 4.83662 16.3029 4.77442C16.6612 4.72957 17.0358 4.72341 17.3921 4.77544C17.9467 4.85641 18.2772 4.58156 18.5857 4.14069C17.5356 4.14069 16.5146 4.14069 15.4284 4.14086ZM17.0695 6.01568C18.1131 6.01568 18.1889 5.98406 18.5387 5.41231C17.4791 5.41231 16.4118 5.41231 15.3421 5.41231C15.6359 5.90552 16.0456 6.11451 16.6035 6.01886C16.7295 5.99724 16.8624 6.01568 17.0695 6.01568ZM15.7664 6.64068C15.6223 6.64068 15.4782 6.64068 15.352 6.64068C15.6352 7.22997 16.1077 7.33284 16.6637 7.27029C16.9073 7.24288 17.1624 7.23176 17.4021 7.27252C17.9545 7.36642 18.2778 7.07071 18.5922 6.64068C17.6484 6.64068 16.7437 6.64068 15.7664 6.64068ZM3.47711 7.26568C3.90199 7.26568 4.32687 7.26568 4.7437 7.26568C4.7437 7.03323 4.7437 6.84518 4.7437 6.66259C3.90766 6.66259 3.09413 6.66259 2.28841 6.66259C2.28841 6.87316 2.28841 7.06121 2.28841 7.26568C2.67346 7.26568 3.03629 7.26568 3.47711 7.26568ZM11.641 6.91635C11.635 6.78467 11.6938 6.63238 11.4502 6.63629C10.69 6.64848 9.92957 6.64076 9.15536 6.64076C9.15536 6.85966 9.15536 7.04672 9.15536 7.26559C9.9296 7.26559 10.6901 7.25786 11.4502 7.27007C11.6939 7.27399 11.6349 7.12167 11.641 6.91635ZM10.3546 1.64068C10.5447 1.64068 10.7348 1.64068 10.939 1.64068C10.9114 1.24375 10.7134 1.08518 10.3662 1.09435C10.031 1.1032 9.85948 1.27562 9.84766 1.64068C10.0008 1.64068 10.1416 1.64068 10.3546 1.64068ZM3.48379 1.09381C3.15213 1.10717 2.98536 1.27939 2.9727 1.62607C3.33901 1.62607 3.69317 1.62607 4.05945 1.62607C4.04671 1.27895 3.8794 1.10723 3.48379 1.09381Z" fill="#374151"/>
</g>
<defs>
<clipPath id="clip0_1055_51714">
<rect width="20" height="20" fill="white"/>
</clipPath>
</defs>
</svg>
