<svg width="20" height="20" viewBox="0 0 20 20" fill="none" xmlns="http://www.w3.org/2000/svg">
<g clip-path="url(#clip0_1055_51794)">
<path d="M18.2027 8.12532C18.2027 8.7241 18.1887 9.28428 18.2075 9.84336C18.2203 10.2224 18.0852 10.5338 17.7974 10.7441C17.6004 10.8881 17.5694 11.0394 17.5742 11.2521C17.5852 11.7465 17.5333 12.2463 17.5888 12.7346C17.6602 13.3635 16.7974 14.1903 16.181 14.1557C15.1974 14.1005 14.2083 14.1409 13.2242 14.1409C13.1579 15.0623 12.7696 15.3737 11.6635 15.3969C11.6559 15.4913 11.6413 15.5891 11.6412 15.6869C11.6396 16.9235 11.6321 18.1602 11.6461 19.3966C11.6494 19.6923 11.5501 19.7774 11.2633 19.7715C10.4696 19.7554 9.67513 19.7541 8.88153 19.772C8.58156 19.7788 8.50717 19.6688 8.50979 19.3861C8.52196 18.0723 8.51518 16.7583 8.51518 15.4805C8.13638 15.381 7.74093 15.351 7.42764 15.1748C7.08892 14.9844 6.89885 14.6236 6.96166 14.1409C6.7345 14.1409 6.52023 14.1409 6.30597 14.1409C5.31671 14.1409 4.32539 14.1024 3.33895 14.1551C2.72843 14.1878 1.93235 13.359 1.93851 12.7644C1.96943 9.78397 1.95268 6.803 1.95268 3.82221C1.95268 2.85677 2.50763 2.28507 3.47601 2.25894C3.66866 1.93923 3.14171 1.13714 4.14022 1.34983C4.14022 1.10321 4.11092 0.88055 4.1524 0.671966C4.17361 0.565305 4.3188 0.406806 4.41272 0.403406C5.0627 0.37987 5.71433 0.379888 6.36432 0.403259C6.45928 0.406674 6.6048 0.56225 6.6279 0.668874C6.67064 0.866161 6.64013 1.07932 6.64013 1.28251C7.22618 1.38149 7.22618 1.38148 7.28692 2.26576C7.79942 2.26576 8.31554 2.27065 8.8313 2.25933C8.89297 2.25797 8.96054 2.17554 9.01203 2.11861C9.28924 1.81218 9.60117 1.63056 10.0447 1.63356C12.3746 1.64934 14.7046 1.64078 17.0346 1.64105C17.7306 1.64113 18.2025 2.11542 18.2026 2.81464C18.2028 4.57185 18.2027 6.32905 18.2027 8.12532ZM7.53861 13.5159C10.2468 13.5159 12.955 13.5163 15.6632 13.5157C16.2847 13.5155 16.8046 13.2312 16.8638 12.7875C16.9411 12.2085 16.9468 11.6199 16.9846 11.0159C14.5917 11.0159 12.2755 10.9973 9.96006 11.0302C9.43749 11.0376 8.80533 10.4062 8.81341 9.8837C8.84724 7.69683 8.82768 5.50914 8.82768 3.32176C8.82768 3.18379 8.82768 3.04582 8.82768 2.89095C7.15767 2.89095 5.53195 2.88991 3.90622 2.89135C2.9987 2.89216 2.57853 3.31219 2.57811 4.21916C2.57689 6.86225 2.58061 9.50535 2.57611 12.1484C2.5745 13.0929 3.00075 13.5219 3.94505 13.5173C5.11684 13.5116 6.28868 13.5159 7.53861 13.5159ZM17.3855 10.1536C17.4496 9.91284 17.5675 9.67246 17.5692 9.43126C17.584 7.36311 17.5838 5.29479 17.5742 3.22658C17.571 2.53164 17.3198 2.27161 16.6048 2.2688C14.5496 2.26071 12.4943 2.26551 10.4391 2.26619C9.73266 2.26642 9.45316 2.54582 9.45292 3.25203C9.45223 5.29427 9.45225 7.33651 9.4529 9.37874C9.45313 10.1235 9.72554 10.3894 10.452 10.3902C12.4682 10.3924 14.4845 10.3983 16.5006 10.3824C16.7809 10.3802 17.0603 10.263 17.3855 10.1536ZM11.0152 16.4463C11.0152 16.0998 11.0152 15.7533 11.0152 15.4133C10.3659 15.4133 9.76134 15.4133 9.16245 15.4133C9.16245 16.6651 9.16245 17.8945 9.16245 19.1185C9.78952 19.1185 10.3941 19.1185 11.0152 19.1185C11.0152 18.2389 11.0152 17.3815 11.0152 16.4463ZM11.5083 14.7659C12.2237 14.7655 12.4493 14.6234 12.4707 14.1528C10.8713 14.1528 9.27221 14.1528 7.67178 14.1528C7.72148 14.578 7.95202 14.7612 8.46504 14.7642C9.45448 14.7701 10.444 14.7659 11.5083 14.7659ZM6.63454 2.22133C6.6462 2.07803 6.67829 1.94517 6.44288 1.94895C5.6821 1.96117 4.92101 1.95351 4.13402 1.95351C4.14935 2.08266 4.16021 2.17412 4.17073 2.26266C4.99388 2.26266 5.78378 2.26266 6.63454 2.22133ZM5.87493 1.32823C5.93192 1.24254 5.98892 1.15685 6.06962 1.03551C5.56893 1.03551 5.17408 1.03551 4.78385 1.03551C4.78385 1.13989 4.78385 1.22271 4.78385 1.32843C5.13483 1.32843 5.46804 1.32843 5.87493 1.32823Z" fill="#374151"/>
<path d="M3.5154 4.76839C3.5154 3.82834 3.5154 3.82833 4.4131 3.82834C5.45367 3.82834 6.49433 3.83568 7.53475 3.82333C7.80512 3.82012 7.90081 3.90272 7.89569 4.17937C7.88077 4.98554 7.88129 5.79232 7.89547 6.59851C7.90025 6.87015 7.81386 6.96124 7.53856 6.95854C6.31601 6.94653 5.09321 6.94688 3.87065 6.95833C3.59986 6.96087 3.50238 6.87829 3.5102 6.60187C3.5271 6.00402 3.5154 5.40536 3.5154 4.76839ZM6.52058 4.45334C5.73206 4.45334 4.94355 4.45334 4.16378 4.45334C4.16378 5.10468 4.16378 5.70929 4.16378 6.30496C5.20842 6.30496 6.22953 6.30496 7.24187 6.30496C7.24187 5.67672 7.24187 5.07212 7.24187 4.45334C7.0116 4.45334 6.80475 4.45334 6.52058 4.45334Z" fill="#374151"/>
<path d="M5.17602 12.5711C4.78308 12.5258 4.39432 12.5428 4.06959 12.4068C3.59082 12.2063 3.37911 11.5273 3.51899 10.9343C3.6299 10.4641 4.13572 10.0798 4.64602 10.0781C5.37594 10.0757 5.87908 10.3897 6.01048 10.9297C6.18363 11.6412 5.92131 12.1763 5.17602 12.5711ZM5.24094 11.5956C5.39648 11.3399 5.35439 11.0484 5.14188 10.917C4.96393 10.807 4.63652 10.793 4.45203 10.887C4.31198 10.9584 4.21598 11.2739 4.23484 11.4677C4.27925 11.9241 4.81486 12.0156 5.24094 11.5956Z" fill="#374151"/>
<path d="M10.7035 7.65399C10.7035 6.53625 10.7023 5.45722 10.7041 4.37819C10.7049 3.86545 11.0533 3.51654 11.5657 3.51589C12.8658 3.51423 14.1658 3.51424 15.4658 3.51588C15.9782 3.51652 16.3273 3.86553 16.328 4.37766C16.3296 5.6777 16.3296 6.97774 16.328 8.27778C16.3273 8.7897 15.9779 9.13914 15.4661 9.13979C14.179 9.14144 12.892 9.14081 11.6049 9.14012C11.0332 9.13981 10.705 8.81055 10.7036 8.23871C10.7032 8.05671 10.7035 7.8747 10.7035 7.65399ZM15.7035 4.97316C15.7035 4.22575 15.6175 4.14034 14.8652 4.14034C13.8888 4.14033 12.9124 4.13863 11.936 4.14111C11.4949 4.14223 11.3307 4.30201 11.3295 4.73531C11.3265 5.78982 11.327 6.84435 11.3292 7.89887C11.3302 8.36116 11.4856 8.51393 11.9536 8.51476C12.9951 8.5166 14.0366 8.51659 15.0781 8.51477C15.5463 8.51395 15.7017 8.36134 15.7028 7.89929C15.7051 6.94893 15.7035 5.99855 15.7035 4.97316Z" fill="#374151"/>
<path d="M15.0783 5.97452C15.0552 6.31319 15.099 6.6423 14.9958 6.91601C14.7446 7.58242 14.2453 7.90142 13.501 7.90243C12.8015 7.90338 12.3144 7.59526 12.0616 6.99873C11.6536 6.03633 12.1652 4.76041 13.4179 4.76466C14.3565 4.76784 14.8103 5.08618 15.0783 5.97452ZM12.6713 6.61786C12.7739 6.74652 12.8642 6.88786 12.9816 7.00115C13.2096 7.22115 13.6768 7.25993 13.9397 7.09828C14.2834 6.88697 14.4693 6.43931 14.367 6.06958C14.2888 5.78725 13.9001 5.48112 13.6036 5.46843C12.9622 5.44098 12.6544 5.79424 12.6713 6.61786Z" fill="#374151"/>
</g>
<defs>
<clipPath id="clip0_1055_51794">
<rect width="20" height="20" fill="white"/>
</clipPath>
</defs>
</svg>
