<svg width="72" height="72" viewBox="0 0 72 72" fill="none" xmlns="http://www.w3.org/2000/svg">
<path d="M20.2805 66H51.7205C60.0005 66 63.3005 60.93 63.6905 54.75L65.2505 29.97C65.6705 23.49 60.5105 18 54.0005 18C52.1705 18 50.4905 16.95 49.6505 15.33L47.4905 10.98C46.1105 8.25 42.5105 6 39.4505 6H32.5805C29.4905 6 25.8905 8.25 24.5105 10.98L22.3505 15.33C21.5105 16.95 19.8305 18 18.0005 18C11.4905 18 6.3305 23.49 6.7505 29.97L8.3105 54.75C8.6705 60.93 12.0005 66 20.2805 66Z" stroke="#374151" stroke-width="4.5" stroke-linecap="round" stroke-linejoin="round"/>
<path d="M31.5 24H40.5" stroke="#374151" stroke-width="4.5" stroke-linecap="round" stroke-linejoin="round"/>
<path d="M36 54C41.37 54 45.75 49.62 45.75 44.25C45.75 38.88 41.37 34.5 36 34.5C30.63 34.5 26.25 38.88 26.25 44.25C26.25 49.62 30.63 54 36 54Z" stroke="#374151" stroke-width="4.5" stroke-linecap="round" stroke-linejoin="round"/>
</svg>
