<svg width="32" height="32" viewBox="0 0 32 32" fill="none" xmlns="http://www.w3.org/2000/svg">
<rect x="0.5" y="0.5" width="31" height="31" rx="15.5" fill="white" stroke="#121212"/>
<path d="M11.6331 24.3333H20.3665C22.6665 24.3333 23.5831 22.925 23.6915 21.2083L24.1248 14.325C24.2415 12.525 22.8081 11 20.9998 11C20.4915 11 20.0248 10.7083 19.7915 10.2583L19.1915 9.04996C18.8081 8.29163 17.8081 7.66663 16.9581 7.66663H15.0498C14.1915 7.66663 13.1915 8.29163 12.8081 9.04996L12.2081 10.2583C11.9748 10.7083 11.5081 11 10.9998 11C9.19148 11 7.75815 12.525 7.87481 14.325L8.30815 21.2083C8.40815 22.925 9.33315 24.3333 11.6331 24.3333Z" stroke="#121212" stroke-width="1.25" stroke-linecap="round" stroke-linejoin="round"/>
<path d="M14.75 12.6666H17.25" stroke="#121212" stroke-width="1.25" stroke-linecap="round" stroke-linejoin="round"/>
<path d="M16.0003 21C17.492 21 18.7087 19.7834 18.7087 18.2917C18.7087 16.8 17.492 15.5834 16.0003 15.5834C14.5087 15.5834 13.292 16.8 13.292 18.2917C13.292 19.7834 14.5087 21 16.0003 21Z" stroke="#121212" stroke-width="1.25" stroke-linecap="round" stroke-linejoin="round"/>
</svg>
