<svg width="20" height="20" viewBox="0 0 20 20" fill="none" xmlns="http://www.w3.org/2000/svg">
<g clip-path="url(#clip0_1055_51701)">
<path d="M0.078125 8.125C0.0781251 7.31608 0.0781251 6.50715 0.103794 5.68464C0.158648 5.64551 0.206198 5.62478 0.214356 5.59371C0.488257 4.5506 1.05165 3.69905 1.87463 3.0036C2.9666 2.08085 4.23951 1.76379 5.62734 1.89988C5.86146 1.92284 5.97341 1.88645 6.10764 1.74497C6.81896 0.995241 7.65574 0.458263 8.67473 0.226053C8.70926 0.218183 8.72533 0.129265 8.75 0.078125C9.61101 0.0781249 10.472 0.0781249 11.3465 0.104439C11.3761 0.150991 11.389 0.184524 11.409 0.189565C12.4796 0.459191 13.3805 1.00907 14.1297 1.8175C14.1909 1.88355 14.2988 1.94051 14.3863 1.94247C14.9555 1.95519 15.5345 1.88664 16.0925 1.96738C17.1051 2.11389 17.9698 2.62775 18.6777 3.34562C19.2624 3.93859 19.6873 4.6579 19.9251 5.47236C19.9428 5.53297 20.0256 5.57457 20.0781 5.625C20.0781 6.43392 20.0781 7.24285 20.0518 8.06522C19.9969 8.10491 19.95 8.12666 19.9424 8.15802C19.6157 9.49204 18.8615 10.5049 17.6749 11.1978C17.4936 11.3038 17.4113 11.4435 17.413 11.6848C17.4283 13.7927 17.4306 15.9008 17.417 18.0087C17.4124 18.7134 17.207 19.3483 16.5886 19.781C16.4663 19.8665 16.3624 19.9784 16.25 20.0781C12.1598 20.0781 8.06965 20.0781 3.96547 20.0545C3.92801 19.9999 3.91126 19.9541 3.88013 19.94C3.03792 19.5575 2.73703 18.8449 2.74002 17.9856C2.74466 16.6536 2.79171 15.3217 2.81049 13.9896C2.82148 13.2102 2.82142 12.4302 2.80288 11.6511C2.8001 11.5341 2.69625 11.3763 2.59274 11.3114C1.42278 10.5783 0.578323 9.60238 0.228789 8.23929C0.216524 8.19146 0.130025 8.16267 0.078125 8.125ZM14.5294 4.68398C14.5037 4.61381 14.4716 4.54527 14.4532 4.47324C14.2692 3.75506 13.9538 3.09572 13.4469 2.55864C12.3645 1.41192 11.0567 0.85858 9.44925 1.0867C8.50062 1.22132 7.69618 1.62348 7.00506 2.25906C6.0407 3.14594 5.61664 4.28349 5.5481 5.57001C5.53328 5.84821 5.38226 5.98496 5.1201 6.01461C4.84654 6.04554 4.64366 5.90323 4.62189 5.6534C4.59325 5.32481 4.60809 4.97936 4.67964 4.65794C4.8116 4.06514 4.99847 3.48456 5.17903 2.83972C4.90869 2.86465 4.60039 2.86267 4.30602 2.92569C3.24792 3.15223 2.38527 3.70108 1.77452 4.59843C1.09799 5.59243 0.840832 6.6661 1.16112 7.86754C1.50043 9.14038 2.2605 10.0322 3.43824 10.5818C3.68603 10.6975 3.75876 10.8602 3.75534 11.1235C3.74217 12.1385 3.75 13.1538 3.75 14.169C3.75 14.5943 3.75 15.0196 3.75 15.4517C7.98427 15.4517 12.1813 15.4517 16.4062 15.4517C16.4062 15.308 16.4062 15.181 16.4062 15.0539C16.4062 13.7524 16.4112 12.4508 16.4024 11.1494C16.4004 10.8592 16.5157 10.6866 16.7653 10.5434C17.1458 10.325 17.5589 10.121 17.8601 9.81448C18.7996 8.85864 19.2807 7.73031 19.0715 6.34438C18.896 5.18134 18.3283 4.29042 17.3964 3.60935C16.7813 3.15987 16.1021 2.88403 15.3272 2.88975C15.2029 2.89066 15.0786 2.89722 14.9543 2.90117C14.9906 3.01298 15.0161 3.12977 15.065 3.23581C15.41 3.98466 15.6123 4.76749 15.5295 5.59207C15.5141 5.74488 15.2964 5.9396 15.1302 6.00052C14.8768 6.09338 14.6704 5.91682 14.6186 5.66786C14.5566 5.36973 14.5575 5.05852 14.5294 4.68398ZM6.13281 16.4844C5.34438 16.4844 4.55595 16.4844 3.77707 16.4844C3.76207 16.552 3.75209 16.5762 3.75203 16.6004C3.75069 17.1208 3.76314 17.6416 3.74636 18.1614C3.73023 18.6608 4.27407 19.1498 4.75421 19.1479C8.30573 19.1344 11.8573 19.1413 15.4089 19.1399C15.8738 19.1397 16.3604 18.79 16.3933 18.3489C16.4391 17.7338 16.4048 17.1128 16.4048 16.4844C12.974 16.4844 9.59246 16.4844 6.13281 16.4844Z" fill="#374151"/>
<path d="M6.19063 11.1432C6.42801 11.4742 6.6546 11.777 6.86884 12.0883C7.03646 12.3318 6.96887 12.59 6.74842 12.7157C6.59346 12.8041 6.25311 12.8304 6.1653 12.7324C5.37909 11.8547 4.69913 10.9088 4.60981 9.6716C4.58796 9.369 4.71519 9.171 5.02659 9.14361C5.35011 9.11516 5.46893 9.29164 5.56192 9.60234C5.71755 10.1223 5.96546 10.6147 6.19063 11.1432Z" fill="#374151"/>
<path d="M14.121 10.8388C14.2976 10.3993 14.4784 9.9883 14.6003 9.56056C14.6849 9.26397 14.8306 9.10823 15.1343 9.14363C15.4152 9.17639 15.5429 9.34617 15.55 9.63737C15.5695 10.437 15.1541 11.0771 14.784 11.7269C14.5922 12.0638 14.3414 12.3738 14.0804 12.6628C13.8061 12.9667 13.3396 12.8616 13.2383 12.4772C13.2027 12.3424 13.2606 12.1522 13.3373 12.0243C13.5757 11.6267 13.8437 11.2469 14.121 10.8388Z" fill="#374151"/>
<path d="M10.2722 12.7978C9.75052 12.8699 9.60277 12.7877 9.60753 12.1803C9.61406 11.3489 9.60814 10.5173 9.60963 9.68584C9.6103 9.3105 9.76761 9.13119 10.0909 9.14207C10.4306 9.1535 10.5518 9.34984 10.5491 9.67286C10.5419 10.5433 10.5594 11.4141 10.5357 12.284C10.5311 12.4529 10.3846 12.618 10.2722 12.7978Z" fill="#374151"/>
</g>
<defs>
<clipPath id="clip0_1055_51701">
<rect width="20" height="20" fill="white"/>
</clipPath>
</defs>
</svg>
