<svg width="20" height="20" viewBox="0 0 20 20" fill="none" xmlns="http://www.w3.org/2000/svg">
<g clip-path="url(#clip0_1055_51565)">
<path d="M10.4686 0.0781251C11.9806 0.078125 13.4926 0.078125 15.0163 0.108845C15.0446 0.47285 15.0726 0.806026 15.0758 1.13944C15.0861 2.19742 15.1661 2.12305 14.1276 2.10447C13.7733 2.09813 13.4438 2.10615 13.1856 2.45425C13.4731 3.03535 13.7724 3.64006 14.0852 4.2722C13.851 4.39509 13.6321 4.50996 13.4121 4.6254C13.1177 4.04874 12.8353 3.49578 12.549 2.93506C12.2047 3.14058 12.098 3.37646 12.0939 3.72935C12.0895 4.11154 12.1825 4.39486 12.4786 4.63452C12.6797 4.7973 12.8327 5.02052 13.037 5.17815C13.6016 5.61382 13.896 6.14945 13.7523 6.87811C13.7437 6.92198 13.7679 6.97234 13.7791 7.03126C14.1984 7.03126 14.6002 7.03362 15.002 7.03049C15.313 7.02808 15.4714 7.1717 15.4692 7.48839C15.4664 7.87862 15.4686 8.26889 15.4685 8.65914C15.4685 8.97085 15.3096 9.13134 15.0009 9.13959C14.7973 9.14503 14.5935 9.14062 14.409 9.14062C14.3156 9.83844 14.2284 10.4929 14.1403 11.1473C14.0388 11.9017 13.93 12.6553 13.8383 13.4109C13.8108 13.638 13.7645 14.0454 13.8382 14.0729C14.3664 14.2708 14.8853 14.6448 15.4958 14.3849C16.1297 14.1149 16.7841 14.0509 17.4697 14.0514C18.6129 14.0521 19.433 15.008 19.4509 16.0615C19.4619 16.7117 19.4603 17.3624 19.4511 18.0127C19.4392 18.8453 19.1198 19.5033 18.3486 19.8979C18.2858 19.93 18.2508 20.0168 18.2029 20.0781C17.4982 20.0781 16.7934 20.0781 16.0749 20.053C15.6772 19.9144 15.2959 19.7277 14.9085 19.7138C14.6571 19.7048 14.3968 19.948 14.1404 20.0781C13.4357 20.0781 12.7309 20.0781 12.0122 20.0544C11.5823 19.7987 11.2678 19.4292 10.6977 19.4378C8.30326 19.474 5.90795 19.4508 3.51299 19.4561C3.22316 19.4568 3.05675 19.3878 3.03919 19.0527C3.01598 18.6094 2.94727 18.168 2.8865 17.7273C2.76169 16.8224 2.62078 15.9197 2.5025 15.014C2.41013 14.3067 2.34986 13.5952 2.26108 12.8873C2.13938 11.917 1.98155 10.9507 1.88211 9.97829C1.80553 9.22952 1.83509 9.22508 1.08952 9.14125C0.811156 9.10995 0.700075 8.94806 0.702178 8.68137C0.705154 8.30393 0.700315 7.92642 0.703639 7.54898C0.707196 7.14496 0.818387 7.03525 1.2265 7.0319C1.59761 7.02885 1.96877 7.03125 2.34355 7.03125C2.34355 6.25957 2.35201 5.54375 2.3398 4.82827C2.33413 4.49637 2.35909 4.20322 2.62993 3.95348C2.83179 3.76736 2.96136 3.50521 3.14993 3.30177C3.51061 2.91262 3.72762 2.50482 3.68735 1.93391C3.64402 1.31984 3.72376 0.69709 3.7498 0.078125C4.61081 0.078125 5.47182 0.078125 6.3446 0.105745C6.39898 0.302989 6.46988 0.471209 6.47838 0.642525C6.49706 1.01881 6.52571 1.40234 6.47506 1.77262C6.38467 2.43341 6.63031 2.93087 7.08429 3.38054C7.62091 3.91205 7.9325 4.52288 7.82636 5.32994C7.75313 5.88684 7.8123 6.46115 7.8123 7.01893C8.01839 7.01893 8.17142 7.01893 8.35918 7.01893C8.35918 6.69908 8.39242 6.38588 8.35205 6.08247C8.27517 5.50462 8.43197 5.04459 8.92042 4.71271C9.37602 4.40316 9.46714 3.97179 9.33614 3.4375C9.20389 3.4375 9.06404 3.43758 8.92418 3.43749C8.44571 3.43716 8.29324 3.28724 8.36293 2.81672C8.54482 1.58854 9.16235 0.686968 10.355 0.230107C10.4049 0.210976 10.4312 0.130189 10.4686 0.0781251ZM2.89022 11.9308C2.91633 12.1846 2.94051 12.4386 2.96892 12.6922C3.04693 13.3885 3.11943 14.0856 3.20777 14.7806C3.30219 15.5235 3.41233 16.2644 3.51539 17.0062C3.59176 17.5558 3.66779 18.1055 3.742 18.6409C6.11382 18.6409 8.44512 18.6409 10.7922 18.6409C10.7576 18.4853 10.7078 18.3628 10.7066 18.2399C10.6994 17.4589 10.6634 16.675 10.7157 15.8974C10.7563 15.2953 10.9926 14.7188 11.5647 14.4292C12.0113 14.2031 12.5173 14.0944 13.0329 13.9214C13.2283 12.402 13.4366 10.7825 13.6455 9.15834C12.4606 9.15834 11.2811 9.15834 10.0902 9.15834C10.0902 9.39237 10.0902 9.60867 10.0902 9.81229C10.6685 10.1005 11.2305 10.3841 11.7958 10.6612C12.304 10.9103 12.5504 11.2926 12.5054 11.8771C12.4555 12.5248 11.8382 12.9975 11.2025 12.8106C10.8219 12.6988 10.4568 12.5341 10.0779 12.3906C10.0779 13.3324 10.082 14.2812 10.0737 15.2299C10.0724 15.3772 10.0366 15.5331 9.97939 15.6693C9.73969 16.24 9.22874 16.4606 8.68201 16.47C7.50561 16.4903 6.32657 16.4571 5.15116 16.3965C4.51328 16.3636 4.06241 15.7935 4.06235 15.1461C4.0622 13.2714 4.0623 11.3967 4.0623 9.52201C4.0623 9.3981 4.0623 9.27419 4.0623 9.16327C3.50894 9.16327 3.00746 9.16327 2.51825 9.16327C2.56573 9.60112 2.60114 10.0192 2.65868 10.4341C2.72474 10.9106 2.81041 11.3844 2.89022 11.9308ZM4.76543 8.40316C4.76543 10.5633 4.77146 12.7235 4.76039 14.8836C4.75815 15.3217 4.95936 15.5631 5.3931 15.7274C5.3931 14.7079 5.3931 13.7291 5.3931 12.7561C5.64785 12.7561 5.86175 12.7561 6.1049 12.7561C6.1049 13.7471 6.1049 14.7168 6.1049 15.682C6.32383 15.682 6.51176 15.682 6.72916 15.682C6.72916 14.6917 6.72916 13.7221 6.72916 12.7551C6.97416 12.7551 7.18801 12.7551 7.43129 12.7551C7.43129 13.7451 7.43129 14.7149 7.43129 15.683C7.65016 15.683 7.83804 15.683 8.05555 15.683C8.05555 14.6937 8.05555 13.7241 8.05555 12.7541C8.30056 12.7541 8.51439 12.7541 8.75321 12.7541C8.75321 13.7437 8.75321 14.7138 8.75321 15.7069C9.19369 15.5973 9.37978 15.3414 9.37696 14.9195C9.37026 13.9176 9.37425 12.9155 9.37504 11.9135C9.37542 11.4202 9.61054 11.2696 10.0609 11.4825C10.4132 11.6491 10.7677 11.8142 11.1051 12.008C11.3823 12.1673 11.6167 12.1366 11.7541 11.8668C11.8934 11.5931 11.6647 11.4535 11.4552 11.3476C10.8946 11.064 10.3381 10.7701 9.76438 10.5155C9.46193 10.3813 9.36006 10.1943 9.36898 9.87436C9.38801 9.1911 9.3748 8.50694 9.3748 7.83698C7.80911 7.83698 6.29365 7.83698 4.76543 7.83698C4.76543 8.01624 4.76543 8.17127 4.76543 8.40316ZM15.9676 17.1093C16.4601 17.3902 17.0008 17.3506 17.5361 17.3433C17.9761 17.3374 18.5231 16.898 18.6604 16.444C18.7961 15.9955 18.5651 15.3312 18.2034 15.0763C17.5509 14.6164 16.8604 14.6733 16.183 14.962C15.4308 15.2824 14.7075 15.298 13.9653 14.9518C13.4523 14.7125 12.909 14.6821 12.3698 14.848C11.7911 15.026 11.5214 15.4697 11.4735 16.0652C11.4302 16.6041 11.8679 17.1991 12.3666 17.3006C12.8922 17.4075 13.4569 17.4312 13.9895 17.1911C14.6098 16.9116 15.2509 16.8354 15.9676 17.1093ZM4.72638 4.76562C4.19788 4.76562 3.66939 4.76562 3.14728 4.76562C3.14728 5.54533 3.14728 6.28005 3.14728 7.00886C4.4513 7.00886 5.73273 7.00886 7.00857 7.00886C7.00857 6.25155 7.00857 5.51683 7.00857 4.76562C6.25898 4.76562 5.53174 4.76562 4.72638 4.76562ZM14.4691 19.0053C15.056 18.9755 15.6314 18.9356 16.1998 19.2027C16.4952 19.3414 16.8639 19.3615 17.2007 19.3678C18.2483 19.3874 18.7595 18.8054 18.6406 17.7703C17.4758 18.2555 16.9635 18.2584 15.7162 17.8173C15.2565 17.6548 14.807 17.6852 14.3383 17.8633C13.9568 18.0083 13.5313 18.1161 13.1284 18.107C12.5773 18.0945 12.0291 17.9556 11.4888 17.8723C11.4622 18.9019 11.9211 19.4058 13.03 19.3604C13.4972 19.3412 13.9578 19.1612 14.4691 19.0053ZM11.2107 7.03125C11.8176 7.03125 12.4244 7.03125 13.0121 7.03125C13.1429 6.51462 13.0025 6.13531 12.6075 5.84686C12.5349 5.7938 12.4653 5.72815 12.415 5.65425C11.8761 4.8633 11.1237 4.61973 10.2044 4.76055C9.96076 4.79788 9.15852 5.42047 9.14682 5.66753C9.12558 6.11622 9.14079 6.56664 9.14079 7.03125C9.83522 7.03125 10.4839 7.03125 11.2107 7.03125ZM12.3792 0.78125C12.1191 0.78125 11.8576 0.798696 11.5992 0.778221C10.4976 0.690965 9.31982 1.55493 9.1572 2.73435C9.92628 2.73435 10.6927 2.73707 11.4591 2.73029C11.539 2.72958 11.6322 2.68974 11.6956 2.63875C12.0132 2.3837 12.2925 2.06379 12.6426 1.87077C13.133 1.60044 13.0632 1.21327 13.0246 0.78125C12.8175 0.78125 12.6367 0.78125 12.3792 0.78125ZM13.9424 8.35938C14.185 8.35938 14.4277 8.35938 14.668 8.35938C14.668 8.15759 14.668 7.99618 14.668 7.83918C13.1266 7.83918 11.6046 7.83918 10.0899 7.83918C10.0899 8.01866 10.0899 8.17136 10.0899 8.35938C11.3561 8.35938 12.6106 8.35938 13.9424 8.35938ZM4.8828 4.0625C5.45858 4.0625 6.03436 4.0625 6.61748 4.0625C6.2299 3.49279 5.8868 3.07626 5.07787 3.07839C4.25674 3.08056 3.91987 3.50145 3.53938 4.0625C3.97607 4.0625 4.39043 4.0625 4.8828 4.0625ZM5.7029 0.99039C5.64215 0.920717 5.58465 0.794521 5.52009 0.7908C5.17372 0.770836 4.82559 0.78137 4.47093 0.78137C4.47093 1.31741 4.47093 1.81775 4.47093 2.32555C4.88532 2.32555 5.2815 2.32555 5.70293 2.32555C5.70293 1.89406 5.70293 1.48024 5.7029 0.99039ZM1.54681 7.81621C1.51881 7.98355 1.49081 8.15089 1.45942 8.3385C2.35405 8.3385 3.19992 8.3385 4.04231 8.3385C4.04231 8.15594 4.04231 7.99471 4.04231 7.81276C3.22209 7.81276 2.42166 7.81276 1.54681 7.81621ZM10.2883 3.43752C9.83775 3.51451 10.2015 3.84309 10.0561 4.03953C10.5351 4.03953 10.9644 4.03953 11.3847 4.03953C11.3847 3.82903 11.3847 3.64238 11.3847 3.4375C11.0303 3.4375 10.6971 3.4375 10.2883 3.43752ZM13.7501 1.2763C13.9489 1.33374 14.1477 1.39118 14.3504 1.44975C14.3504 1.16464 14.3504 0.978163 14.3504 0.802638C14.139 0.802638 13.9524 0.802638 13.7498 0.802638C13.7498 0.950171 13.7498 1.07687 13.7501 1.2763Z" fill="#374151"/>
<path d="M12.3438 16.0199C12.3121 15.7789 12.3713 15.6716 12.6055 15.6997C12.7668 15.719 12.9324 15.7034 13.1103 15.7034C13.1103 15.9726 13.1103 16.2107 13.1103 16.4667C12.8625 16.4667 12.6243 16.4667 12.3438 16.4667C12.3438 16.3298 12.3438 16.1933 12.3438 16.0199Z" fill="#374151"/>
<path d="M16.2422 15.7031C16.3479 15.7635 16.4651 15.8166 16.4753 15.8856C16.5029 16.0712 16.4847 16.2635 16.4847 16.4685C16.218 16.4685 15.98 16.4685 15.7227 16.4685C15.7227 16.2243 15.7227 15.9861 15.7227 15.7031C15.8811 15.7031 16.043 15.7031 16.2422 15.7031Z" fill="#374151"/>
<path d="M13.672 15.5577C13.916 15.4602 14.1597 15.3997 14.4364 15.3311C14.4364 15.6297 14.4364 15.8418 14.4364 16.0739C14.1947 16.0739 13.9565 16.0739 13.6719 16.0739C13.6719 15.9177 13.6719 15.7562 13.672 15.5577Z" fill="#374151"/>
<path d="M17.0314 15.5577C17.2753 15.4602 17.5191 15.3997 17.7958 15.3311C17.7958 15.6297 17.7958 15.8418 17.7958 16.0739C17.554 16.0739 17.3159 16.0739 17.0312 16.0739C17.0312 15.9177 17.0313 15.7562 17.0314 15.5577Z" fill="#374151"/>
</g>
<defs>
<clipPath id="clip0_1055_51565">
<rect width="20" height="20" fill="white"/>
</clipPath>
</defs>
</svg>
