<svg width="20" height="20" viewBox="0 0 20 20" fill="none" xmlns="http://www.w3.org/2000/svg">
<g clip-path="url(#clip0_1055_51642)">
<path d="M1.48499 13.1398C1.71354 12.4442 2.05058 11.834 2.54062 11.3408C3.12456 10.7532 3.82844 10.3156 4.65469 10.1631C6.09144 9.89779 7.42491 10.1051 8.57222 11.1053C9.52698 11.9377 10.0405 12.9627 10.082 14.2342C10.1056 14.9569 10.0409 15.6556 9.69816 16.3119C10.0435 16.3579 10.3641 16.4006 10.6848 16.4433C10.643 16.8824 10.6954 17.358 10.5416 17.7535C10.1046 18.8775 9.26295 19.4703 8.01695 19.457C6.40411 19.4398 4.79094 19.4487 3.17793 19.4541C1.76249 19.4588 0.491448 18.0694 0.712676 16.5431C0.724566 16.4611 0.868647 16.3498 0.962286 16.3377C1.19246 16.3078 1.4291 16.3279 1.69232 16.3279C1.25118 15.292 1.19096 14.2422 1.48499 13.1398ZM6.44484 18.8278C6.87375 18.8278 7.30445 18.8525 7.73109 18.8214C8.22929 18.785 8.75031 18.7753 9.16204 18.4306C9.61319 18.0529 10.0137 17.6358 9.99627 16.9675C9.18404 16.9675 8.39618 16.9675 7.57767 16.9675C7.57767 17.0818 7.57815 17.1819 7.57759 17.2821C7.57423 17.8804 7.25254 18.2023 6.65671 18.2027C5.99385 18.2031 5.3302 18.2208 4.66862 18.1917C4.47416 18.1831 4.20594 18.0935 4.11127 17.9493C3.92879 17.6713 3.84592 17.3279 3.70408 16.9667C3.00709 16.9667 2.21915 16.9667 1.41527 16.9667C1.36586 17.4187 1.59887 17.7417 1.84825 18.0608C2.31529 18.6584 2.97714 18.8059 3.67643 18.8226C4.57272 18.844 5.46992 18.8278 6.44484 18.8278ZM3.44101 11.517C3.35856 11.6001 3.27792 11.6851 3.19341 11.766C2.01237 12.8969 1.74406 14.2393 2.26213 15.7662C2.46037 16.3505 2.45778 16.3514 3.08924 16.3104C2.45205 15.0069 2.56976 15.0639 2.58323 14.0996C2.5949 13.2635 3.01344 12.607 3.60951 12.0551C4.61371 11.1253 6.35649 11.0467 7.3619 11.7412C9.08314 12.9302 9.21877 14.5372 8.29202 16.4066C8.56878 16.3191 8.88449 16.3164 8.96337 16.1784C9.39466 15.4235 9.466 14.5915 9.32885 13.7406C9.17949 12.814 8.66379 12.1022 7.96191 11.5223C7.29927 10.9749 6.49097 10.7242 5.65767 10.7371C4.88064 10.7491 4.12368 10.9841 3.44101 11.517ZM5.11966 16.3278C5.36321 16.2964 5.63376 16.4209 5.83433 16.1589C6.46617 15.3335 7.11687 14.5224 7.73721 13.6886C7.82642 13.5687 7.84626 13.3343 7.79517 13.1891C7.73282 13.0119 7.5616 12.8731 7.40606 12.6784C6.43862 13.9084 5.49661 15.106 4.53566 16.3278C4.73678 16.3278 4.8929 16.3278 5.11966 16.3278ZM3.98201 15.8814C4.91347 14.6828 5.84493 13.4843 6.79754 12.2586C6.59324 12.1756 6.40205 12.0979 6.19422 12.0135C5.97801 12.2964 5.77685 12.5577 5.57765 12.8205C4.92747 13.6782 4.27448 14.5339 3.63436 15.3992C3.57755 15.476 3.55739 15.6535 3.60676 15.7182C3.68339 15.8187 3.83446 15.8624 3.98201 15.8814ZM3.5897 13.2419C3.30927 13.6451 3.22585 14.0905 3.30926 14.6495C3.97443 13.7602 4.60315 12.9196 5.28813 12.0037C4.51692 12.2346 3.9608 12.5766 3.5897 13.2419ZM6.12028 17.5778C6.22399 17.5778 6.34454 17.6118 6.42782 17.5705C6.58782 17.4912 6.72669 17.3693 6.87432 17.2651C6.72655 17.161 6.58492 16.9795 6.42986 16.9672C5.94031 16.9283 5.4441 16.9307 4.95407 16.9664C4.807 16.9771 4.57561 17.1296 4.55065 17.2515C4.49545 17.521 4.7529 17.5651 4.95647 17.5736C5.31885 17.5885 5.68229 17.5778 6.12028 17.5778ZM6.6781 16.321C6.90417 16.3043 7.16909 16.3574 7.34878 16.2574C7.82283 15.9935 8.1833 15.0351 8.06541 14.4324C7.58668 15.0599 7.12894 15.6599 6.6781 16.321Z" fill="#374151"/>
<path d="M17.1387 19.3652C16.2115 19.6391 15.5235 19.3205 15.2811 18.5204C15.245 18.4012 15.2361 18.2699 15.236 18.1442C15.2332 16.2833 15.2692 14.4216 15.2192 12.5621C15.1943 11.6389 15.0155 10.7196 14.9018 9.79908C14.8348 9.25704 14.7514 8.71696 14.6899 8.17435C14.6495 7.81796 14.5855 7.45385 14.6193 7.10158C14.6916 6.34883 14.4722 5.67327 14.1841 5.00257C13.9965 4.56578 13.8206 4.12389 13.6433 3.68273C13.4169 3.1194 13.6826 2.42264 14.2378 2.10783C15.7629 1.24296 17.2922 1.23839 18.8098 2.11219C19.4839 2.50028 19.6297 3.06423 19.3327 3.90134C19.1032 4.5481 18.7988 5.16794 18.5425 5.80572C18.4781 5.96604 18.4443 6.14883 18.4413 6.32206C18.4109 8.08607 18.2304 9.83119 17.8211 11.5502C17.7947 11.6612 17.8125 11.7831 17.8124 11.9C17.8121 13.8779 17.7964 15.8561 17.8214 17.8337C17.8293 18.4606 17.6978 18.9812 17.1387 19.3652ZM16.4057 5.12488C16.4387 5.30977 16.4718 5.49465 16.5185 5.75651C16.6224 5.2744 16.744 4.87389 16.7864 4.46517C16.8258 4.08549 17.0832 4.08169 17.2946 4.16444C17.4041 4.20731 17.4838 4.48985 17.4685 4.65396C17.4364 4.99657 17.3323 5.33244 17.251 5.70195C17.5306 5.67719 17.8019 5.82005 17.9369 5.4644C18.1852 4.81011 18.4625 4.16683 18.7113 3.51271C18.8275 3.20717 18.7686 2.92633 18.4704 2.74145C17.2418 1.97986 15.7647 1.98334 14.539 2.77223C14.2438 2.96224 14.2339 3.23982 14.3638 3.54792C14.607 4.12498 14.8423 4.70549 15.0717 5.28817C15.2599 5.76614 15.2787 5.78088 15.7884 5.63913C15.7087 5.2971 15.5992 4.95752 15.5628 4.61028C15.5472 4.46229 15.6486 4.20257 15.7592 4.16154C15.9872 4.07691 16.2389 4.10619 16.2572 4.47477C16.2669 4.67091 16.3519 4.86333 16.4057 5.12488ZM17.6556 8.07284C17.6863 7.49957 17.7171 6.92631 17.748 6.34808C16.9074 6.34808 16.1209 6.34808 15.2265 6.34808C15.4236 8.02731 15.6171 9.67482 15.8102 11.3199C16.3165 11.3199 16.7303 11.3199 17.1762 11.3199C17.3133 10.4997 17.4499 9.68263 17.5927 8.82854C17.3603 8.82854 17.1542 8.82292 16.9486 8.83001C16.7083 8.83829 16.4834 8.80864 16.4899 8.50518C16.4958 8.2312 16.7027 8.20038 16.9314 8.19952C17.1715 8.19863 17.4115 8.16584 17.6556 8.07284ZM17.1091 14.3364C17.1091 13.548 17.1091 12.7597 17.1091 11.975C16.6956 11.975 16.3256 11.975 15.9372 11.975C15.9372 14.0103 15.9366 16.0242 15.9376 18.0381C15.9379 18.503 16.1541 18.7555 16.5401 18.7504C16.8995 18.7457 17.1081 18.4894 17.1086 18.0431C17.11 16.8336 17.1091 15.624 17.1091 14.3364Z" fill="#374151"/>
<path d="M14.4527 18.2801C14.4527 18.6051 14.4766 18.8944 14.4401 19.1758C14.4269 19.2777 14.2711 19.4384 14.1773 19.4406C13.3193 19.4612 12.4604 19.4612 11.6024 19.4406C11.5088 19.4383 11.3404 19.2694 11.3395 19.1765C11.3235 17.4857 11.3232 15.7946 11.3377 14.1037C11.3387 13.9864 11.481 13.8703 11.6402 13.7892C11.6402 12.7498 11.6402 11.7103 11.6403 10.6709C11.6403 10.1337 11.7807 9.9732 12.3108 9.9043C12.9452 9.82185 13.9113 10.4053 14.0795 11.0038C14.1437 11.2321 14.1353 11.4842 14.1378 11.7257C14.1448 12.402 14.1402 13.0783 14.1402 13.7547C14.1793 13.7451 14.2183 13.7355 14.2573 13.7259C14.3224 13.9043 14.4419 14.0819 14.4441 14.261C14.4601 15.5876 14.4527 16.9144 14.4527 18.2801ZM11.9527 16.8359C11.9527 17.4945 11.9527 18.153 11.9527 18.8052C12.6024 18.8052 13.207 18.8052 13.8053 18.8052C13.8053 17.7614 13.8053 16.7404 13.8053 15.7253C13.178 15.7253 12.5734 15.7253 11.9527 15.7253C11.9527 16.0845 11.9527 16.4213 11.9527 16.8359ZM13.2308 13.8277C13.392 13.8372 13.5284 13.8549 13.5212 13.6033C13.5031 12.9658 13.5305 12.3271 13.511 11.6897C13.4906 11.0203 12.977 10.6023 12.2846 10.659C12.2846 11.7076 12.2846 12.7562 12.2846 13.8277C12.5876 13.8277 12.8715 13.8277 13.2308 13.8277ZM13.1606 15.0777C13.3777 15.0777 13.5948 15.0777 13.8065 15.0777C13.8065 14.8474 13.8065 14.6594 13.8065 14.4737C13.1799 14.4737 12.5746 14.4737 11.9741 14.4737C11.9741 14.6834 11.9741 14.8713 11.9741 15.0777C12.3579 15.0777 12.7206 15.0777 13.1606 15.0777Z" fill="#374151"/>
<path d="M7.40979 1.95485C7.93449 1.73778 8.29279 1.3942 8.51526 0.896844C8.55678 0.804028 8.72113 0.716653 8.82868 0.716797C8.93623 0.716942 9.09871 0.80448 9.14183 0.897755C9.36309 1.37643 9.69729 1.71999 10.1806 1.93707C10.4699 2.06697 10.5012 2.43502 10.2325 2.60742C9.77357 2.90193 9.32391 3.18357 9.10648 3.72902C9.03305 3.91323 8.61006 3.87694 8.5235 3.68328C8.31111 3.2081 7.93518 2.90683 7.50399 2.65738C7.18147 2.47079 7.182 2.23427 7.40979 1.95485ZM8.75298 2.6987C8.95709 2.57271 9.16121 2.44673 9.34447 2.33362C9.14392 2.14391 8.96552 1.97516 8.84927 1.86519C8.66496 2.03877 8.49944 2.19465 8.3394 2.34538C8.4443 2.43287 8.57904 2.54526 8.75298 2.6987Z" fill="#374151"/>
<path d="M11.142 6.64023C10.8748 6.68672 10.7232 6.59121 10.6305 6.37322C10.4472 5.94229 10.0686 5.71012 9.69797 5.46939C9.32517 5.22724 9.33151 4.86564 9.73202 4.69712C10.165 4.51493 10.4544 4.22751 10.64 3.79602C10.694 3.6707 10.8883 3.54493 11.0263 3.53548C11.1412 3.52761 11.3312 3.66428 11.3781 3.78104C11.5706 4.2608 11.9321 4.53968 12.3761 4.75299C12.6223 4.87131 12.6925 5.23813 12.4688 5.37023C11.927 5.69011 11.5101 6.11915 11.142 6.64023ZM11.37 5.00236C11.2495 4.86903 11.129 4.73571 11.0727 4.67342C10.8712 4.85219 10.6956 5.00792 10.5245 5.15971C10.6737 5.27888 10.8483 5.41827 11.0267 5.56072C11.201 5.39955 11.3641 5.24884 11.5227 5.10215C11.4957 5.0881 11.4519 5.06537 11.37 5.00236Z" fill="#374151"/>
<path d="M7.18848 5.69485C7.32383 5.57306 7.458 5.40822 7.58837 5.41117C7.71668 5.41408 7.89607 5.56116 7.95714 5.69032C8.14981 6.09787 8.43197 6.3837 8.844 6.56808C9.26721 6.75746 9.27203 7.08811 8.87637 7.35072C8.4755 7.61679 8.08578 7.88557 7.88312 8.35823C7.7784 8.60247 7.38915 8.59994 7.27144 8.36023C7.04445 7.89796 6.67543 7.59644 6.24602 7.33904C5.88902 7.12505 5.90304 6.74546 6.27847 6.58472C6.69427 6.40669 6.99181 6.12639 7.18848 5.69485ZM7.34331 6.75836C7.24737 6.84224 7.15144 6.92612 7.0565 7.00914C7.23754 7.15354 7.4122 7.29286 7.58969 7.43443C7.76469 7.27332 7.92813 7.12285 8.06991 6.99232C7.90048 6.83445 7.71766 6.66411 7.54772 6.50576C7.48888 6.58168 7.43582 6.65013 7.34331 6.75836Z" fill="#374151"/>
</g>
<defs>
<clipPath id="clip0_1055_51642">
<rect width="20" height="20" fill="white"/>
</clipPath>
</defs>
</svg>
