<svg width="20" height="20" viewBox="0 0 20 20" fill="none" xmlns="http://www.w3.org/2000/svg">
<g clip-path="url(#clip0_1055_51813)">
<path d="M7.83518 18.3762C7.18722 19.0011 6.16808 18.9788 5.61544 18.5087C5.41068 18.3345 5.26099 18.0956 5.11528 17.9211C4.81156 18.1891 4.54967 18.5067 4.21519 18.6958C3.67804 18.9995 2.60131 18.9092 2.22768 18.2C2.08647 17.9319 1.88956 17.8638 1.60579 17.8854C1.29511 17.909 0.978772 17.9128 0.670176 17.8782C0.568632 17.8668 0.409863 17.7136 0.403554 17.617C0.374772 17.1762 0.385996 16.7324 0.392267 16.2898C0.398866 15.8241 0.784571 16.1057 1.01587 15.9694C1.01587 15.5115 1.0007 15.0198 1.02468 14.5299C1.03234 14.3736 1.14385 14.2223 1.20785 14.0687C1.24802 14.0784 1.28819 14.0881 1.32837 14.0977C1.32837 12.9921 1.33912 11.8863 1.32154 10.781C1.31654 10.4666 1.4177 10.3393 1.72327 10.3918C2.1872 10.4716 2.43959 10.2707 2.69574 9.87007C3.89615 7.99276 5.14854 6.14875 6.37332 4.28689C6.9678 3.3832 7.54811 2.47001 8.12251 1.5534C8.28858 1.2884 8.49706 1.30457 8.7522 1.36164C8.91871 1.39889 9.11763 1.44096 9.26581 1.38498C9.97792 1.11597 10.8935 1.53656 11.0151 2.21455C11.1578 3.01014 10.9 3.46955 10.0784 3.85999C10.0784 3.99342 10.0872 4.13626 10.0767 4.27766C10.0438 4.71981 10.0525 5.11556 10.5025 5.40491C10.7728 5.57871 10.7862 6.27701 10.6046 6.54615C10.3704 6.89325 9.80242 7.07693 9.39671 6.93676C9.05667 6.81928 8.81929 6.42396 8.86051 6.01442C9.12847 6.05635 9.43729 5.8874 9.64864 6.2199C9.66895 6.25185 9.86505 6.17206 9.97954 6.14414C9.93953 6.02384 9.91552 5.80808 9.857 5.79828C9.37336 5.71726 9.45003 5.36588 9.45263 5.04096C9.45575 4.6516 9.45337 4.26219 9.38459 3.83308C7.95842 6.00981 6.53225 8.18655 5.10354 10.3672C5.44605 10.4421 5.71923 10.4127 5.91737 10.0714C6.06002 9.82563 6.31886 9.75081 6.61697 9.75985C7.25436 9.77919 7.89274 9.76576 8.53071 9.76577C9.09953 9.76579 9.51637 10.1378 9.69616 10.6659C10.0487 11.7017 10.1346 12.759 10.0801 13.8391C10.0729 13.9822 10.0426 14.1087 10.2673 14.1845C10.3743 14.2206 10.3883 14.5324 10.4529 14.7476C10.807 14.7476 11.2045 14.7476 11.6409 14.7476C11.6409 14.2923 11.6409 13.8409 11.6409 13.3896C11.6409 12.5042 11.6473 11.6188 11.6367 10.7336C11.6338 10.4874 11.7015 10.3818 11.9663 10.3861C12.7603 10.399 13.5547 10.385 14.3488 10.3926C14.9516 10.3984 15.5246 10.9344 15.701 11.6417C15.7831 11.9706 15.8355 12.3095 15.9486 12.627C15.9969 12.7628 16.1493 12.9243 16.2827 12.9564C16.9312 13.1126 17.5905 13.2233 18.2437 13.3609C18.886 13.4961 19.1407 13.821 19.1408 14.4784C19.141 14.9831 19.1409 15.4878 19.1409 16.0159C19.288 16.0159 19.4177 15.9819 19.5121 16.0251C19.6139 16.0717 19.7495 16.1868 19.7545 16.2783C19.7793 16.7327 19.7795 17.1899 19.7538 17.6441C19.7488 17.7308 19.6012 17.8439 19.4966 17.8813C19.3812 17.9226 19.2385 17.9018 19.1096 17.8887C18.6931 17.8464 18.4213 17.9521 18.1429 18.3435C17.637 19.0546 16.1845 19.0565 15.6966 18.237C15.5362 17.9676 15.3399 17.8728 15.0144 17.8805C13.8985 17.9072 12.7815 17.8908 11.6408 17.8908C11.6408 18.0375 11.6747 18.167 11.6316 18.2615C11.5851 18.3633 11.4681 18.5029 11.3793 18.5048C10.5203 18.523 9.66086 18.5153 8.80155 18.5159C8.3293 18.5163 8.59684 18.1361 8.4849 17.9165C8.08194 17.7564 8.01329 18.125 7.83518 18.3762ZM10.0656 3.0469C10.3615 2.88559 10.3594 2.61557 10.278 2.35422C10.196 2.09125 9.98493 1.9923 9.70091 2.04906C10.1651 2.46127 10.1797 2.5213 9.90484 3.03162C9.89455 3.05781 9.88426 3.08401 9.87398 3.11021C9.91801 3.09123 9.96205 3.07224 10.0656 3.0469ZM17.6499 15.8121C17.9209 15.9015 18.1918 15.991 18.4956 16.0913C18.4956 15.6816 18.4956 15.3889 18.4956 15.0676C18.2869 15.0676 18.0984 15.0676 17.91 15.0676C17.91 14.8488 17.91 14.6602 17.91 14.4487C18.0943 14.4487 18.2596 14.4487 18.4249 14.4487C18.4456 14.4158 18.4663 14.3828 18.487 14.3499C18.368 14.2542 18.2619 14.1275 18.1266 14.0705C17.9564 13.9988 17.763 13.979 17.5781 13.9456C16.5045 13.7518 15.4496 13.4265 14.3367 13.5116C13.9876 13.5383 13.6335 13.4972 13.2841 13.5213C12.9735 13.5428 12.8748 13.436 12.8842 13.1241C12.9054 12.4271 12.8909 11.729 12.8909 11.0372C12.6598 11.0372 12.472 11.0372 12.2854 11.0372C12.2854 12.7034 12.2854 14.3482 12.2854 16.0158C13.4725 16.0158 14.6403 16.0181 15.808 16.0113C15.8996 16.0108 15.9997 15.9612 16.0807 15.9104C16.5635 15.6071 17.0728 15.6557 17.6499 15.8121ZM8.40228 16.0158C8.85222 16.0158 9.30216 16.0158 9.74229 16.0158C9.74229 15.5723 9.74229 15.1761 9.74229 14.7878C7.03196 14.7878 4.34525 14.7878 1.66265 14.7878C1.66265 15.2066 1.66265 15.603 1.66265 16.0137C2.10004 16.0075 2.48727 16.0173 2.89902 15.8039C3.33772 15.5765 3.86349 15.6321 4.33577 15.8666C4.83073 16.1124 5.32863 16.1125 5.82482 15.8646C6.29587 15.6293 6.81786 15.5832 7.26285 15.8043C7.62174 15.9826 7.95774 16.0164 8.40228 16.0158ZM5.18979 14.1408C5.35425 14.1408 5.51871 14.1408 5.68275 14.1408C5.68275 13.0785 5.68275 12.0574 5.68275 11.0365C4.4326 11.0365 3.20318 11.0365 1.97416 11.0365C1.97416 12.0784 1.97416 13.0995 1.97416 14.1408C3.03413 14.1408 4.07342 14.1408 5.18979 14.1408ZM5.1214 9.05945C5.17079 8.95751 5.20949 8.84854 5.27117 8.75468C6.17605 7.37746 7.0827 6.00139 7.99185 4.62698C8.35987 4.07063 8.74495 3.5252 9.09803 2.95966C9.16544 2.85168 9.18027 2.62546 9.11181 2.53721C8.99673 2.38882 8.79539 2.30733 8.5997 2.17734C6.81394 4.9027 5.03289 7.62089 3.23225 10.369C4.21101 10.4346 4.21077 10.4344 4.68682 9.69959C4.81666 9.49916 4.9484 9.29996 5.1214 9.05945ZM6.38554 14.1363C7.4054 14.1363 8.42525 14.1363 9.42783 14.1363C9.42783 13.5877 9.42783 13.0878 9.42783 12.5783C8.7147 12.5783 8.02655 12.5628 7.33964 12.5851C7.02114 12.5955 6.93671 12.4831 6.94728 12.1804C6.96799 11.5877 6.95337 10.9938 6.95337 10.3996C6.47492 10.4193 6.33104 10.5503 6.32984 10.9646C6.32684 12.0038 6.3313 13.0431 6.38554 14.1363ZM15.0786 12.2223C14.9531 11.1191 14.3186 10.9444 13.5356 11.0591C13.5356 11.6622 13.5356 12.2654 13.5356 12.8602C14.1135 12.8602 14.6712 12.8602 15.2591 12.8602C15.1926 12.6463 15.137 12.4675 15.0786 12.2223ZM2.65751 17.4929C2.76811 17.6455 2.86116 17.8157 2.99325 17.9466C3.21349 18.1648 3.69887 18.1942 3.9525 18.0316C4.29304 17.8133 4.50468 17.3426 4.35508 16.9982C4.21718 16.6809 3.99464 16.4153 3.59022 16.405C2.97421 16.3894 2.65649 16.7334 2.65751 17.4929ZM16.6628 18.1098C16.805 18.1149 16.9479 18.132 17.0892 18.1228C17.4857 18.097 17.8166 17.6888 17.8127 17.243C17.8091 16.8238 17.4707 16.436 17.0827 16.4064C16.6502 16.3734 16.2233 16.6271 16.1074 16.9858C15.9716 17.4058 16.1548 17.7905 16.6628 18.1098ZM7.50024 17.1679C7.4026 16.6256 7.00469 16.3339 6.46201 16.4067C6.05284 16.4616 5.73807 16.9252 5.78155 17.4089C5.81842 17.8191 6.23346 18.1395 6.70928 18.1251C7.161 18.1115 7.49034 17.7401 7.50024 17.1679ZM14.4135 17.2658C14.7344 17.2658 15.0553 17.2658 15.3759 17.2658C15.3908 17.0356 15.4032 16.8434 15.4163 16.6408C14.7816 16.6408 14.1594 16.6408 13.5373 16.6408C12.907 16.6408 12.2768 16.6408 11.6665 16.6408C11.6665 16.8799 11.6665 17.0677 11.6665 17.2658C12.5732 17.2658 13.4544 17.2658 14.4135 17.2658ZM10.5784 17.8908C10.717 17.8908 10.8556 17.8908 10.9959 17.8908C10.9959 17.4547 10.9959 17.0585 10.9959 16.6408C10.6791 16.6408 10.3821 16.6408 10.085 16.6408C9.77701 16.6408 9.46898 16.6408 9.16115 16.6408C9.16115 17.0775 9.16115 17.4737 9.16115 17.8908C9.62146 17.8908 10.0618 17.8908 10.5784 17.8908ZM8.7033 11.9533C8.89606 11.9533 9.08882 11.9533 9.28866 11.9533C8.86781 10.3794 8.7052 10.2355 7.57837 10.4382C7.57837 10.6798 7.57837 10.9248 7.57837 11.1699C7.57837 11.4252 7.57837 11.6804 7.57837 11.9533C7.95623 11.9533 8.29196 11.9533 8.7033 11.9533ZM10.9023 16.0158C11.1431 16.0158 11.3839 16.0158 11.6223 16.0158C11.6223 15.7876 11.6223 15.601 11.6223 15.4187C11.2004 15.4187 10.7976 15.4187 10.4171 15.4187C10.4171 15.634 10.4171 15.8201 10.4171 16.0158C10.5712 16.0158 10.6991 16.0158 10.9023 16.0158ZM1.29873 17.2658C1.51398 17.2658 1.72923 17.2658 1.93906 17.2658C1.95343 17.0361 1.96512 16.8493 1.9772 16.6563C1.6806 16.6563 1.3629 16.6563 0.991103 16.6563C1.13766 16.8599 0.778357 17.1839 1.29873 17.2658ZM18.8006 16.6408C18.6866 16.6408 18.5725 16.6408 18.4841 16.6408C18.5041 16.865 18.5216 17.0617 18.5377 17.2423C18.755 17.2423 18.9419 17.2423 19.1892 17.2423C18.9996 17.0451 19.4147 16.6311 18.8006 16.6408ZM8.39834 17.2654C8.45258 17.0685 8.50682 16.8716 8.56592 16.6571C8.37148 16.6571 8.25973 16.6571 8.12651 16.6571C8.19819 16.8737 8.26301 17.0696 8.39834 17.2654Z" fill="#374151"/>
<path d="M13.817 14.1408C14.422 14.13 14.0115 14.5425 14.1704 14.75C13.7178 14.75 13.3241 14.75 12.9102 14.75C12.9102 14.5584 12.9102 14.3717 12.9102 14.1408C13.1958 14.1408 13.4877 14.1408 13.817 14.1408Z" fill="#374151"/>
<path d="M3.05398 12.8906C3.73769 12.8906 4.38336 12.8906 5.05341 12.8906C5.05341 13.0904 5.05341 13.2779 5.05341 13.4907C4.25072 13.4907 3.43126 13.4907 2.59473 13.4907C2.59473 13.3016 2.59473 13.1146 2.59473 12.8906C2.73906 12.8906 2.8775 12.8906 3.05398 12.8906Z" fill="#374151"/>
<path d="M3.6723 12.2661C3.29656 12.2661 2.95973 12.2661 2.60059 12.2661C2.60059 12.0618 2.60059 11.8738 2.60059 11.6631C3.40604 11.6631 4.21959 11.6631 5.05571 11.6631C5.05571 11.8455 5.05571 12.0335 5.05571 12.2661C4.61311 12.2661 4.16216 12.2661 3.6723 12.2661Z" fill="#374151"/>
</g>
<defs>
<clipPath id="clip0_1055_51813">
<rect width="20" height="20" fill="white"/>
</clipPath>
</defs>
</svg>
