<svg width="20" height="20" viewBox="0 0 20 20" fill="none" xmlns="http://www.w3.org/2000/svg">
<g clip-path="url(#clip0_1055_51738)">
<path d="M0.0781252 14.3334C0.327859 14.1254 0.577593 13.9538 0.78125 13.8139C0.78125 13.3259 0.78125 12.854 0.78125 12.382C0.78125 9.45402 0.795052 6.5259 0.771786 3.59806C0.765784 2.84275 1.38447 2.32075 2.02556 2.32816C5.05727 2.36318 8.08993 2.36737 11.1215 2.32728C11.8843 2.31719 12.5086 2.88978 12.4228 3.6592C12.4157 3.72341 12.4219 3.78911 12.4219 3.90628C12.6546 3.90628 12.8831 3.90628 13.1117 3.90628C14.0616 3.90628 15.0132 3.94022 15.9611 3.89646C16.8574 3.8551 17.4806 4.46299 17.4971 5.43517C17.511 6.25477 17.4898 7.07504 17.5089 7.89444C17.5125 8.05176 17.5999 8.2317 17.7021 8.35788C18.1355 8.893 18.6384 9.37924 19.0155 9.94974C19.2154 10.2523 19.2668 10.6881 19.2851 11.0685C19.3238 11.8735 19.298 12.6816 19.2961 13.4885C19.2956 13.6971 19.2687 13.8752 19.5735 13.9402C19.7476 13.9774 19.8817 14.2016 20.056 14.3193C20.0781 14.6893 20.0781 15.0816 20.056 15.4881C19.7355 15.7248 19.5289 16.0787 19.0565 16.026C18.6193 15.9773 18.1714 16.0006 17.7303 16.0265C17.623 16.0328 17.4748 16.152 17.4283 16.2563C17.0792 17.0396 16.2379 17.917 14.8366 17.8199C13.9675 17.7597 13.0435 17.0954 12.7237 16.2566C12.6839 16.1522 12.5217 16.0268 12.4152 16.0259C10.7748 16.0112 9.1342 16.0114 7.4938 16.0259C7.39056 16.0268 7.24293 16.1531 7.1933 16.2578C6.78506 17.1186 6.14119 17.6939 5.18599 17.803C4.03523 17.9343 3.11005 17.5001 2.59033 16.4421C2.40948 16.0739 2.21793 15.9943 1.8556 16.008C1.23487 16.0315 0.569992 16.1513 0.133056 15.5117C0.132696 15.5112 0.0972051 15.5346 0.078125 15.5469C0.078125 15.1546 0.078125 14.7622 0.0781252 14.3334ZM3.99802 12.9139C5.08726 12.6408 6.03272 12.8582 6.80802 13.7105C6.88483 13.795 7.05855 13.8223 7.18771 13.8233C8.2939 13.8318 9.40019 13.8282 10.5064 13.8282C10.9049 13.8282 11.3033 13.8282 11.6815 13.8282C11.7054 13.7732 11.7145 13.7621 11.7145 13.7509C11.7163 10.341 11.7142 6.93119 11.7235 3.52136C11.7245 3.15218 11.484 2.9937 11.2162 2.98278C10.3503 2.94747 9.48218 2.9696 8.59375 2.9696C8.59375 4.29501 8.59793 5.58116 8.58829 6.8672C8.58712 7.02224 8.53015 7.29842 8.46624 7.3084C8.28202 7.33717 8.04065 7.31532 7.89413 7.21133C7.44394 6.8918 7.02756 6.52465 6.59813 6.1761C6.15647 6.53736 5.74502 6.90034 5.30246 7.22029C5.1644 7.3201 4.9209 7.36782 4.76663 7.31643C4.67348 7.2854 4.61765 7.01823 4.616 6.85644C4.60377 5.6592 4.60994 4.46178 4.60833 3.26442C4.60819 3.16658 4.59323 3.06877 4.58498 2.96878C3.79761 2.96878 3.04267 2.97831 2.28808 2.96595C1.60972 2.95485 1.40153 3.1828 1.40309 3.84347C1.41026 6.87591 1.40772 9.90837 1.40414 12.9408C1.40375 13.2701 1.42345 13.6217 1.77461 13.727C2.18581 13.8503 2.61968 13.9925 3.02255 13.5967C3.28645 13.3373 3.64013 13.1694 3.99802 12.9139ZM17.2095 13.8277C17.6877 13.8277 18.166 13.8277 18.6577 13.8277C18.6577 13.6072 18.6577 13.4175 18.6577 13.2175C17.9639 13.1552 17.501 12.7551 17.1638 12.1974C16.6041 11.2718 17.13 10.3275 18.2006 10.3111C18.28 10.3099 18.359 10.2884 18.5649 10.2569C18.0959 9.78316 17.7057 9.37747 17.2989 8.9892C17.2298 8.92325 17.0896 8.91102 16.9819 8.90976C16.3705 8.90258 15.7589 8.91461 15.1478 8.90055C14.991 8.89694 14.7922 8.87013 14.687 8.77326C14.0069 8.14699 13.1971 8.42385 12.4464 8.35092C12.4464 10.2176 12.4464 12.02 12.4464 13.8023C12.8589 13.9192 13.1143 13.7321 13.3811 13.468C14.0424 12.8135 14.8547 12.6845 15.7388 12.8905C16.3232 13.0266 16.7512 13.3972 17.2095 13.8277ZM12.4219 6.21094C12.4219 6.68688 12.4219 7.16283 12.4219 7.65628C12.8146 7.65628 13.1666 7.68406 13.5124 7.6496C13.9998 7.60105 14.4029 7.7739 14.7916 8.03034C14.8948 8.09836 15.0101 8.1915 15.1222 8.19494C15.6753 8.21194 16.2293 8.20267 16.7969 8.20267C16.7969 7.20863 16.8012 6.26084 16.7948 5.31313C16.7922 4.91086 16.4135 4.53642 16.0094 4.53311C15.2423 4.52682 14.4751 4.53128 13.708 4.53128C13.2843 4.53128 12.8607 4.53128 12.4219 4.53128C12.4219 5.09569 12.4219 5.61426 12.4219 6.21094ZM7.89062 3.94614C7.89062 3.62597 7.89062 3.3058 7.89062 2.9892C7.00918 2.9892 6.17125 2.9892 5.33194 2.9892C5.33194 4.10429 5.33194 5.19886 5.33194 6.31324C5.65873 6.05295 5.97143 5.81856 6.26671 5.56397C6.49688 5.36551 6.6966 5.35631 6.93095 5.55871C7.23196 5.81866 7.55165 6.05699 7.89062 6.32636C7.89062 5.5289 7.89062 4.77649 7.89062 3.94614ZM13.2827 15.862C13.3338 15.9624 13.383 16.0638 13.4362 16.1631C13.8072 16.8552 14.4248 17.2279 15.1694 17.1669C16.2302 17.08 17.0339 16.2127 16.8754 15.051C16.7351 14.0228 15.8792 13.4211 15.0263 13.4578C13.7422 13.513 12.9568 14.7192 13.2827 15.862ZM5.65221 16.9612C5.82757 16.839 6.03693 16.7462 6.17229 16.5894C6.70927 15.9676 6.83309 15.1002 6.40807 14.3711C6.08372 13.8147 5.18802 13.281 4.40851 13.5099C3.73486 13.7078 3.27751 14.1295 3.05749 14.7688C2.81879 15.4625 3.0096 16.0993 3.52935 16.6075C4.12583 17.1908 4.83361 17.31 5.65221 16.9612ZM7.2655 14.6655C7.30335 14.8998 7.3412 15.1341 7.3798 15.373C9.10569 15.373 10.8298 15.373 12.5518 15.373C12.5811 15.0661 12.6087 14.7768 12.6396 14.4532C12.5196 14.4532 12.3922 14.4532 12.2647 14.4532C11.0419 14.4532 9.81912 14.4532 8.59634 14.4532C8.18007 14.4532 7.76374 14.4503 7.34767 14.4594C7.3186 14.4601 7.29146 14.5494 7.2655 14.6655ZM17.6543 14.4532C17.59 14.4532 17.5257 14.4532 17.4667 14.4532C17.5182 14.77 17.5676 15.0739 17.6191 15.3907C18.0531 15.3907 18.4797 15.3882 18.9063 15.3915C19.2208 15.3938 19.4168 15.2457 19.4486 14.9341C19.4775 14.6509 19.2454 14.4592 18.8926 14.4544C18.5037 14.4491 18.1147 14.4532 17.6543 14.4532ZM1.46074 15.3907C1.75296 15.3907 2.04517 15.3907 2.32022 15.3907C2.34843 15.0529 2.37238 14.7663 2.39851 14.4534C1.98525 14.4534 1.57146 14.4328 1.16185 14.4652C1.02868 14.4757 0.860694 14.5965 0.787667 14.7154C0.551727 15.0996 0.81398 15.3855 1.46074 15.3907ZM17.7364 11.819C17.9504 12.1798 18.2034 12.4884 18.6437 12.5351C18.6437 11.9902 18.6437 11.4657 18.6437 10.9435C17.7223 10.9239 17.4736 11.1535 17.7364 11.819Z" fill="#374151"/>
<path d="M6.9534 11.4175C6.95342 10.613 7.26069 10.3127 8.04586 10.3127C8.75992 10.3127 9.47397 10.3122 10.188 10.3128C10.6881 10.3132 11.1046 10.5929 11.1487 11.0735C11.1927 11.5523 11.1462 12.0458 11.0856 12.5261C11.0328 12.9446 10.6899 13.1082 10.3165 13.118C9.46024 13.1406 8.60294 13.1292 7.74611 13.1234C7.32471 13.1206 6.96025 12.7405 6.95417 12.3116C6.95012 12.026 6.9534 11.7403 6.9534 11.4175ZM9.64196 12.5002C10.4958 12.5166 10.4853 12.5312 10.4693 11.685C10.4675 11.5943 10.4594 11.5023 10.4707 11.4129C10.5171 11.0455 10.3073 10.9393 9.99414 10.9381C9.54034 10.9364 9.08638 10.9453 8.63277 10.9362C7.4612 10.9125 7.5817 10.9433 7.57787 12.0491C7.57677 12.3676 7.74012 12.5034 8.04847 12.5012C8.55411 12.4975 9.05979 12.5002 9.64196 12.5002Z" fill="#374151"/>
<path d="M13.6121 10.0005C13.4851 10.0002 13.3656 10.0361 13.3097 9.99178C13.203 9.90728 13.0613 9.77277 13.0676 9.66694C13.0737 9.56469 13.2399 9.40118 13.3495 9.38907C13.6827 9.35225 14.0247 9.35449 14.3583 9.38923C14.4509 9.39888 14.568 9.56283 14.5998 9.67668C14.6499 9.85582 14.5935 10.0111 14.3487 10.0022C14.1156 9.99379 13.8819 10.0004 13.6121 10.0005Z" fill="#374151"/>
<path d="M15.5526 14.2633C16.1895 14.6311 16.2862 15.0611 16.1631 15.7141C16.0969 16.0654 15.5216 16.4539 15.0799 16.4845C14.5953 16.5181 13.976 16.0082 13.9091 15.5029C13.8347 14.9411 14.1555 14.3557 14.7267 14.2303C14.982 14.1742 15.2627 14.2335 15.5526 14.2633ZM14.8563 15.7574C15.3525 15.8028 15.6803 15.5268 15.5093 15.1819C15.4356 15.0331 15.2295 14.8881 15.0661 14.865C14.9341 14.8464 14.7091 14.9794 14.6445 15.1059C14.5374 15.3156 14.5831 15.5569 14.8563 15.7574Z" fill="#374151"/>
<path d="M5.13095 14.2193C5.97324 14.6492 6.16953 15.2959 5.70406 16.0032C5.4515 16.387 4.88908 16.5547 4.36548 16.4025C3.99882 16.2958 3.69756 15.8265 3.66538 15.4101C3.6206 14.8306 3.85722 14.3365 4.62401 14.1761C4.77291 14.145 4.94025 14.2021 5.13095 14.2193ZM4.32777 15.1618C4.22406 15.5087 4.4089 15.7273 4.70861 15.7591C4.87055 15.7763 5.12765 15.6213 5.21189 15.4711C5.32999 15.2606 5.22271 14.9931 4.99267 14.8887C4.74768 14.7775 4.49533 14.8151 4.32777 15.1618Z" fill="#374151"/>
</g>
<defs>
<clipPath id="clip0_1055_51738">
<rect width="20" height="20" fill="white"/>
</clipPath>
</defs>
</svg>
