<svg width="20" height="20" viewBox="0 0 20 20" fill="none" xmlns="http://www.w3.org/2000/svg">
<g clip-path="url(#clip0_1055_51778)">
<path d="M15.0786 11.6405C16.1593 11.6405 17.201 11.6405 18.2426 11.6405C18.8937 11.6405 19.0627 11.8145 19.0628 12.4886C19.0633 14.1292 19.063 15.7698 19.063 17.4104C19.063 17.537 19.063 17.6636 19.063 17.7717C19.2992 17.8919 19.6363 17.6534 19.7253 17.9786C19.8386 18.3928 19.8053 18.8193 19.5269 19.1788C19.2111 19.5866 18.8068 19.7771 18.2677 19.7737C15.5335 19.756 12.7991 19.7539 10.0649 19.7723C9.1978 19.7781 8.54251 18.9417 8.68637 18.0539C8.70169 17.9594 8.8764 17.8664 8.99559 17.8204C9.09583 17.7817 9.2229 17.8124 9.35643 17.8124C9.35643 16.8231 9.35643 15.853 9.35643 14.8437C8.53764 14.8437 7.72189 14.8494 6.90626 14.8418C6.26631 14.8359 5.82594 14.3872 5.85987 13.795C5.88436 13.3678 6.26792 12.9885 6.69945 12.9696C6.84241 12.9634 6.99176 12.9426 7.12799 12.9735C7.54386 13.0678 7.66858 12.8118 7.73088 12.4899C7.81707 12.0445 7.88647 11.5958 7.96875 11.1153C7.85429 11.1079 7.74522 11.0947 7.63614 11.0946C6.41221 11.0931 5.18828 11.094 3.96434 11.0935C3.32067 11.0932 2.74106 10.5684 2.73893 9.9346C2.72953 7.13521 2.72114 4.33566 2.74509 1.53644C2.75067 0.883858 3.29224 0.407143 3.90655 0.403487C8.07298 0.378697 12.2396 0.386362 16.4062 0.395099C17.0207 0.396387 17.4288 0.863616 17.4268 1.43806C17.417 4.22443 17.4228 7.01084 17.4221 9.79724C17.4219 10.5686 16.8992 11.0936 16.1349 11.0936C14.8343 11.0937 13.5336 11.0937 12.236 11.0937C12.1413 11.6278 12.151 11.6403 12.6568 11.6405C13.4511 11.6407 14.2453 11.6405 15.0786 11.6405ZM16.6376 1.12726C16.4952 1.09001 16.3529 1.02045 16.2105 1.02024C12.2008 1.01438 8.19104 1.01534 4.18132 1.01575C3.63244 1.01581 3.36023 1.2882 3.36008 1.83721C3.35952 3.94622 3.35958 6.05522 3.36062 8.16423C3.36068 8.27637 3.37188 8.3885 3.3775 8.49337C7.86338 8.49337 12.3216 8.49337 16.7973 8.49337C16.7973 6.12971 16.7986 3.78818 16.7926 1.44666C16.7924 1.35619 16.7232 1.2659 16.6376 1.12726ZM14.8052 17.8124C15.6981 17.8124 16.5911 17.8124 17.478 17.8124C17.478 16.1995 17.478 14.6315 17.478 13.0692C15.2886 13.0692 13.1218 13.0692 10.9604 13.0692C10.9604 14.6597 10.9604 16.2276 10.9604 17.8124C12.2309 17.8124 13.479 17.8124 14.8052 17.8124ZM3.73037 10.4043C3.82652 10.4258 3.92265 10.4659 4.01882 10.466C8.05526 10.4691 12.0917 10.467 16.1281 10.472C16.4213 10.4724 16.6352 10.3424 16.7062 10.0889C16.7892 9.79281 16.7892 9.47342 16.8254 9.16294C12.2931 9.16294 7.83396 9.16294 3.35941 9.16294C3.39294 9.59911 3.22239 10.0616 3.73037 10.4043ZM16.4457 12.4218C16.8362 12.4218 17.2267 12.4211 17.6172 12.4219C18.089 12.4229 18.1251 12.459 18.1253 12.9369C18.1258 14.5491 18.1255 16.1612 18.1255 17.789C18.2389 17.789 18.3302 17.789 18.415 17.789C18.415 15.9377 18.415 14.1095 18.415 12.2878C15.6005 12.2878 12.8091 12.2878 10.0005 12.2878C10.0005 14.0656 10.0048 15.821 9.99587 17.5764C9.99455 17.8382 10.1026 17.8444 10.313 17.7804C10.313 16.1599 10.3127 14.5477 10.3132 12.9354C10.3133 12.4584 10.3492 12.4221 10.8227 12.422C12.671 12.4215 14.5193 12.4218 16.4457 12.4218ZM16.9145 19.1405C17.3565 19.1405 17.7984 19.141 18.2403 19.1404C18.706 19.1397 18.9578 18.9491 19.1295 18.4557C18.1433 18.4557 17.1634 18.4557 16.1843 18.4557C16.1551 18.9562 16.0412 19.0622 15.5451 19.0623C14.7002 19.0626 13.8553 19.0624 13.0104 19.0624C12.426 19.0623 12.3404 18.9965 12.2142 18.46C11.2448 18.46 10.2782 18.46 9.3033 18.46C9.5072 18.9841 9.72892 19.1405 10.2464 19.1405C12.4431 19.1406 14.6397 19.1405 16.9145 19.1405ZM9.92087 11.6405C10.4631 11.6405 11.0054 11.6405 11.5418 11.6405C11.5418 11.4362 11.5418 11.2744 11.5418 11.0937C10.6118 11.0937 9.70265 11.0866 8.79399 11.1043C8.70047 11.1062 8.54398 11.2452 8.52874 11.3388C8.44205 11.8713 8.38939 12.4094 8.32421 12.9535C8.6523 12.9535 8.99871 12.9535 9.37549 12.9535C9.37549 12.7609 9.35017 12.5775 9.38104 12.4041C9.43621 12.0942 9.40965 11.7182 9.92087 11.6405ZM9.37548 13.9427C9.36968 13.8315 9.36388 13.7203 9.35728 13.5937C8.52798 13.5937 7.72565 13.5982 6.92344 13.5906C6.70893 13.5886 6.50267 13.6277 6.49675 13.8626C6.49046 14.1124 6.68269 14.2204 6.93146 14.2195C7.67054 14.217 8.40974 14.2246 9.14853 14.2098C9.22542 14.2083 9.29987 14.0843 9.37548 13.9427Z" fill="#374151"/>
<path d="M0.390626 17.1095C0.390626 15.7957 0.390002 14.5209 0.390884 13.2462C0.39134 12.5888 0.635824 12.344 1.28742 12.3439C2.25 12.3439 3.21259 12.3435 4.17517 12.3441C4.66687 12.3444 4.92144 12.5936 4.9216 13.0767C4.92226 15.0409 4.9224 17.0051 4.9215 18.9693C4.92128 19.4501 4.66384 19.7535 4.19247 19.7608C3.16509 19.7768 2.13717 19.775 1.10973 19.761C0.717722 19.7557 0.397518 19.3914 0.392557 18.9827C0.385136 18.3714 0.390627 17.76 0.390626 17.1095ZM1.01563 18.6198C1.01615 19.1407 1.01615 19.1408 1.55287 19.1408C2.29465 19.1408 3.03643 19.1408 3.77821 19.1408C4.29672 19.1407 4.29683 19.1407 4.29685 18.6403C4.29692 17.1567 4.29688 15.6732 4.29688 14.1896C4.29688 13.7904 4.29688 13.3912 4.29688 12.9689C3.31196 12.9689 2.36421 12.9847 1.41748 12.9606C1.07098 12.9518 1.00756 13.0816 1.00976 13.3913C1.022 15.109 1.01563 16.8269 1.01563 18.6198Z" fill="#374151"/>
<path d="M10.5988 10.0777C10.2112 10.0777 9.85828 10.097 9.50992 10.0658C9.40622 10.0565 9.26063 9.9214 9.22986 9.81602C9.16772 9.60316 9.30517 9.52248 9.51764 9.52812C9.88154 9.53779 10.2472 9.51346 10.6093 9.54097C10.7232 9.54963 10.8917 9.658 10.9237 9.75688C10.9923 9.96834 10.8826 10.1055 10.5988 10.0777Z" fill="#374151"/>
<path d="M3.27796 18.7501C3.13838 19.0191 2.41789 19.1865 2.19641 19.0333C2.05104 18.9327 2.08202 18.618 2.24931 18.4957C2.49314 18.3175 3.12233 18.4536 3.27796 18.7501Z" fill="#374151"/>
</g>
<defs>
<clipPath id="clip0_1055_51778">
<rect width="20" height="20" fill="white"/>
</clipPath>
</defs>
</svg>
