<svg width="20" height="20" viewBox="0 0 20 20" fill="none" xmlns="http://www.w3.org/2000/svg">
<path d="M18.9799 1.01986C18.1099 0.149859 16.8799 -0.190141 15.6899 0.109859L5.88986 2.55986C4.23986 2.96986 2.96986 4.24986 2.55986 5.88986L0.109859 15.6999C-0.190141 16.8899 0.149859 18.1199 1.01986 18.9899C1.67986 19.6399 2.54986 19.9999 3.44986 19.9999C3.72986 19.9999 4.01986 19.9699 4.29986 19.8899L14.1099 17.4399C15.7499 17.0299 17.0299 15.7599 17.4399 14.1099L19.8899 4.29986C20.1899 3.10986 19.8499 1.87986 18.9799 1.01986ZM9.99986 13.8799C7.85986 13.8799 6.11986 12.1399 6.11986 9.99986C6.11986 7.85986 7.85986 6.11986 9.99986 6.11986C12.1399 6.11986 13.8799 7.85986 13.8799 9.99986C13.8799 12.1399 12.1399 13.8799 9.99986 13.8799Z" fill="#286FFF"/>
</svg>
