<svg width="20" height="20" viewBox="0 0 20 20" fill="none" xmlns="http://www.w3.org/2000/svg">
<g clip-path="url(#clip0_1055_51590)">
<path d="M6.36455 20.0781C6.18059 19.7844 6.3485 19.5562 6.48044 19.3169C6.55931 19.1739 6.62109 19.0214 6.69741 18.8585C5.42579 18.4629 4.55667 17.6554 4.20148 16.3495C4.12916 16.0836 4.06912 15.804 4.06821 15.5306C4.05865 12.6694 4.05923 9.8082 4.06348 6.94703C4.06598 5.27071 4.8211 4.08623 6.38202 3.43058C6.46199 3.39699 6.5518 3.27222 6.55431 3.18746C6.57003 2.65619 6.56225 2.12422 6.56225 1.56548C6.14895 1.60984 5.85715 1.42327 5.7358 1.07463C5.61681 0.732758 5.69106 0.388249 5.96003 0.102454C8.64728 0.078125 11.3572 0.078125 14.1038 0.078125C14.1428 0.118622 14.1286 0.177219 14.15 0.196877C14.4302 0.453512 14.5518 0.743398 14.3899 1.11813C14.2271 1.49517 13.9244 1.59818 13.5155 1.56071C13.5155 2.10771 13.5057 2.63917 13.525 3.16956C13.5283 3.26012 13.6385 3.39335 13.7291 3.42715C15.0071 3.90393 15.7714 4.80631 16.0143 6.14702C16.055 6.37137 16.0898 6.6007 16.0902 6.8278C16.0953 9.67825 16.0886 12.5287 16.0955 15.3792C16.0994 16.9732 15.054 18.4271 13.4459 18.8586C13.5521 19.0988 13.6701 19.3317 13.7572 19.5756C13.8069 19.7148 13.8062 19.8719 13.828 20.0496C11.3523 20.0781 8.87675 20.0781 6.36455 20.0781ZM7.22637 15.3125C9.99408 15.3125 12.7618 15.3125 15.5244 15.3125C15.5244 12.476 15.5244 9.6841 15.5244 6.89728C11.8768 6.89728 8.25168 6.89728 4.63151 6.89728C4.63151 9.7115 4.63151 12.5034 4.63151 15.3125C5.48523 15.3125 6.31674 15.3125 7.22637 15.3125ZM6.36701 6.32812C9.39574 6.32812 12.4245 6.32812 15.5551 6.32812C15.3848 5.91668 15.2875 5.53259 15.0838 5.21719C14.4529 4.24026 13.5309 3.75381 12.3646 3.75092C10.8427 3.74715 9.32083 3.74881 7.79895 3.75038C6.61542 3.75161 5.68966 4.25678 5.04996 5.23907C4.85041 5.54549 4.77087 5.93006 4.6174 6.32812C5.2503 6.32812 5.76959 6.32812 6.36701 6.32812ZM12.2956 18.4375C14.135 18.4932 15.4204 17.04 15.4446 15.8814C11.8616 15.8814 8.27871 15.8814 4.59838 15.8814C4.77279 16.2856 4.88006 16.6657 5.08443 16.9832C5.71623 17.965 6.6509 18.4292 7.80958 18.4355C9.27951 18.4436 10.7495 18.4375 12.2956 18.4375ZM10.4493 3.20288C10.8359 3.20288 11.2226 3.20288 11.6122 3.20288C11.6122 2.63749 11.6122 2.10238 11.6122 1.58924C10.5636 1.58924 9.54337 1.58924 8.54153 1.58924C8.54153 2.14243 8.54153 2.66867 8.54153 3.17894C8.96527 3.17894 9.36265 3.17894 9.75475 3.17894C9.75475 3.0008 9.75475 2.84693 9.75475 2.65543C9.65915 2.65543 9.55192 2.68783 9.4925 2.64833C9.38604 2.57756 9.30835 2.46351 9.21864 2.36755C9.31539 2.2815 9.40711 2.129 9.50979 2.12121C9.89753 2.09181 10.2899 2.0939 10.678 2.12088C10.7695 2.12725 10.9169 2.27472 10.9196 2.36098C10.9225 2.45595 10.8071 2.5946 10.7086 2.64169C10.6064 2.69055 10.4627 2.65257 10.2839 2.65257C10.3191 2.8628 10.3472 3.03117 10.4493 3.20288ZM12.5268 19.5312C12.7141 19.5312 12.9013 19.5312 13.087 19.5312C13.0049 19.0833 12.7653 18.9645 12.3382 18.9727C10.7894 19.0024 9.23938 19.0024 7.69062 18.9728C7.25812 18.9645 7.12244 19.162 7.03498 19.5312C8.85965 19.5312 10.6558 19.5312 12.5268 19.5312ZM13.0043 0.625C10.9081 0.625 8.81194 0.624947 6.71577 0.625156C6.61172 0.625167 6.49918 0.60366 6.4065 0.636729C6.34064 0.660226 6.26076 0.759501 6.26195 0.823557C6.26315 0.887898 6.34546 0.978473 6.41331 1.00652C6.49134 1.03878 6.59251 1.01555 6.68363 1.01555C8.94906 1.01565 11.2145 1.01563 13.4799 1.01559C13.558 1.01559 13.6491 1.04019 13.711 1.00839C13.7883 0.968686 13.8416 0.882326 13.9053 0.81611C13.8388 0.752642 13.778 0.643444 13.7048 0.63443C13.4995 0.60916 13.2892 0.625235 13.0043 0.625ZM7.11344 1.62095C7.11344 2.17188 7.11344 2.72281 7.11344 3.24805C7.42031 3.22362 7.68262 3.20274 7.95167 3.18132C7.95167 2.6415 7.95167 2.11571 7.95167 1.5671C7.67893 1.5671 7.42231 1.5671 7.11344 1.62095ZM13.0467 2.45943C13.0467 2.16555 13.0467 1.87167 13.0467 1.58388C12.7368 1.58388 12.4712 1.58388 12.2067 1.58388C12.2067 2.13141 12.2067 2.65735 12.2067 3.18187C12.4894 3.20345 12.753 3.22356 13.0467 3.24598C13.0467 3.02496 13.0467 2.78035 13.0467 2.45943Z" fill="#374151"/>
<path d="M8.35947 9.70018C8.44881 8.52574 8.91272 7.6026 9.91925 7.0117C10.0393 6.94121 10.2402 6.97231 10.3887 7.01203C10.4253 7.02179 10.4224 7.25342 10.405 7.37851C10.2562 8.447 10.5965 9.40316 11.5705 10.156C11.8775 10.3932 12.2514 10.5739 12.4873 10.8669C12.996 11.499 12.9791 12.2658 12.803 13.0083C12.6097 13.8233 12.233 14.5473 11.4975 15.0242C11.4452 15.0581 11.39 15.1042 11.3326 15.1102C11.1347 15.1308 10.8633 15.2221 10.7515 15.1288C10.5325 14.946 10.7599 14.74 10.8708 14.5575C11.4332 13.6327 11.4825 12.81 10.8668 11.6221C10.9188 12.4113 10.4763 12.8512 9.93267 13.237C9.49491 13.5478 9.46677 14.387 9.85328 14.7453C9.93499 14.821 10.0037 14.9798 9.98048 15.0769C9.96325 15.1489 9.78364 15.2336 9.6829 15.2261C8.80816 15.1601 8.14121 14.7275 7.73933 13.9605C7.05289 12.6505 7.0693 11.3126 7.71443 9.98683C7.76259 9.88785 7.9126 9.83842 8.01526 9.76596C8.0781 9.85984 8.16782 9.94586 8.19805 10.0493C8.25711 10.2513 8.28293 10.4631 8.35947 10.6691C8.35947 10.3585 8.35947 10.0479 8.35947 9.70018ZM8.98448 14.086C9.02179 13.5742 9.16057 13.1056 9.59765 12.7875C10.5501 12.0942 10.3283 11.8299 10.1602 11.0343C10.1296 10.8893 10.161 10.7312 10.1637 10.5792C10.334 10.6003 10.5417 10.5661 10.6682 10.6519C11.3847 11.1373 11.692 11.872 11.7892 12.6971C11.8346 13.0826 11.797 13.478 11.797 13.8689C11.8307 13.8754 11.8645 13.8819 11.8982 13.8884C12.045 13.4559 12.2189 13.0304 12.3323 12.5894C12.4964 11.9509 12.2277 11.2952 11.6687 10.93C10.5515 10.2 9.838 9.23515 9.78522 7.82278C9.54634 8.12672 9.28742 8.42807 9.15258 8.77733C8.82384 9.62884 8.78572 10.4998 9.12758 11.3725C9.17542 11.4946 9.1516 11.7337 9.06914 11.7949C8.97161 11.8672 8.74388 11.8582 8.62656 11.7906C8.36044 11.6374 8.12741 11.4267 7.89358 11.2491C7.58577 12.1404 7.9806 14.1002 9.06236 14.4435C9.03395 14.3369 9.00925 14.2443 8.98448 14.086Z" fill="#374151"/>
</g>
<defs>
<clipPath id="clip0_1055_51590">
<rect width="20" height="20" fill="white"/>
</clipPath>
</defs>
</svg>
