<svg width="20" height="20" viewBox="0 0 20 20" fill="none" xmlns="http://www.w3.org/2000/svg">
<g clip-path="url(#clip0_1055_51539)">
<path d="M1.32781 11.641C1.32781 10.3792 1.32781 9.15655 1.32781 7.93672C0.607899 7.81604 0.390317 7.55585 0.390313 6.83265C0.390311 6.42907 0.388558 6.02548 0.390755 5.62191C0.393542 5.10998 0.741714 4.76686 1.2614 4.76644C2.81063 4.76519 4.35986 4.76599 5.90908 4.76599C6.03652 4.76599 6.16396 4.76599 6.35002 4.76599C6.18227 3.43138 6.4975 2.2475 7.47218 1.3368C8.21429 0.643401 9.14388 0.274015 10.1698 0.323789C11.2924 0.378255 12.252 0.807352 13.0029 1.70023C13.7561 2.59594 13.8981 3.6311 13.8164 4.76599C15.0249 4.76599 16.1929 4.76599 17.3608 4.76599C17.8685 4.76599 18.3762 4.76501 18.884 4.76626C19.4234 4.76759 19.7637 5.1095 19.7651 5.65072C19.7662 6.05429 19.7653 6.45788 19.7653 6.86146C19.7653 7.55346 19.523 7.83454 18.8278 7.92754C18.8278 8.73033 18.8278 9.5361 18.8278 10.3419C18.8278 12.5551 18.8281 14.7682 18.8276 16.9814C18.8275 17.5581 18.5006 17.8895 17.9323 17.8909C17.6212 17.8916 17.3102 17.891 16.9528 17.891C16.9528 18.4073 16.9403 18.9101 16.9578 19.4119C16.9673 19.6857 16.8739 19.7761 16.5995 19.7712C15.7926 19.7566 14.9851 19.7563 14.1782 19.7713C13.9002 19.7765 13.8137 19.6791 13.823 19.4091C13.8399 18.9171 13.8278 18.4242 13.8278 17.9115C11.639 17.9115 9.47111 17.9115 7.30282 17.9115C7.0587 19.1562 6.232 19.7706 4.80558 19.766C3.89969 19.763 3.05258 18.9575 2.85083 17.891C2.63474 17.891 2.41467 17.892 2.19462 17.8908C1.67684 17.8878 1.32883 17.5452 1.3284 17.0308C1.32688 15.2472 1.32781 13.4636 1.32781 11.641ZM10.0778 9.41741C10.0778 11.4035 10.0778 13.3896 10.0778 15.3681C12.8118 15.3681 15.4993 15.3681 18.1801 15.3681C18.1801 12.8658 18.1801 10.3866 18.1801 7.91289C12.7619 7.91289 7.3664 7.91289 1.97448 7.91289C1.97448 10.4141 1.97448 12.8934 1.97448 15.3691C2.39277 15.3691 2.78901 15.3691 3.20281 15.3691C3.20281 15.2189 3.20281 15.0906 3.20281 14.9622C3.20281 12.9444 3.20895 10.9266 3.19634 8.90884C3.1944 8.59873 3.28442 8.50731 3.59521 8.50947C5.48275 8.52256 7.37043 8.51599 9.25806 8.51599C10.0778 8.51599 10.0778 8.51599 10.0778 9.41741ZM3.82781 13.6332C3.82781 14.2138 3.82781 14.7944 3.82781 15.3685C5.72723 15.3685 7.58163 15.3685 9.43034 15.3685C9.43034 13.2832 9.43034 11.2205 9.43034 9.16348C7.5534 9.16348 5.699 9.16348 3.82781 9.16348C3.82781 10.6423 3.82781 12.0987 3.82781 13.6332ZM8.91542 1.27786C7.2405 2.12279 6.82383 3.37107 7.05529 4.68262C7.4684 7.02345 10.1432 7.89437 11.9057 6.59934C13.646 5.32058 13.563 2.47278 11.4822 1.40673C10.6693 0.990253 9.82815 1.00742 8.91542 1.27786ZM13.32 16.016C11.1311 16.016 8.9421 16.016 6.77651 16.016C6.97747 16.4433 7.16541 16.8429 7.36442 17.266C10.576 17.266 13.8289 17.2531 17.0816 17.2727C18.2852 17.28 18.2194 17.1491 18.1973 16.0922C18.1969 16.0716 18.1711 16.0517 18.1464 16.016C16.5703 16.016 14.9842 16.016 13.32 16.016ZM18.6692 5.39106C17.1099 5.39104 15.5505 5.3865 13.9913 5.39896C13.8561 5.40004 13.6402 5.48054 13.6003 5.57978C13.3256 6.26435 12.8424 6.77824 12.2704 7.26599C14.3906 7.26599 16.4694 7.26723 18.5481 7.26498C18.9794 7.26451 19.1356 7.09891 19.1399 6.65767C19.1421 6.43678 19.1306 6.21533 19.1427 5.99508C19.1596 5.68694 19.0397 5.48166 18.6692 5.39106ZM1.34926 5.40701C1.09496 5.5177 0.996847 5.7137 1.0129 5.98648C1.02509 6.19367 1.0147 6.40216 1.01543 6.61007C1.01723 7.12149 1.16133 7.26547 1.67687 7.26574C3.11924 7.26647 4.56161 7.26599 6.00397 7.26599C6.6202 7.26599 7.23643 7.26599 7.89207 7.26599C7.40308 6.84334 6.88519 6.40333 6.61919 5.64554C6.53941 5.41828 6.38748 5.38595 6.17313 5.38699C4.58786 5.39473 3.00254 5.39168 1.34926 5.40701ZM5.95403 18.8269C6.66812 18.2667 6.6625 17.633 6.51589 17.1235C6.33859 16.5072 5.83892 16.0281 4.9373 16.0914C3.90392 16.1639 3.38788 17.1451 3.65193 18.0727C3.91008 18.9795 5.14752 19.3825 5.95403 18.8269ZM14.5112 17.8954C14.4841 18.2998 14.457 18.7042 14.4288 19.1248C15.0893 19.1248 15.6938 19.1248 16.3114 19.1248C16.3114 18.7124 16.3114 18.3162 16.3114 17.8913C15.7259 17.8913 15.1564 17.8913 14.5112 17.8954ZM2.34731 17.2646C2.5152 17.2646 2.6831 17.2646 2.79126 17.2646C2.99647 16.8284 3.18445 16.4289 3.37077 16.0329C2.92454 16.0329 2.45234 16.0329 1.95281 16.0329C1.95281 16.2414 1.96222 16.4341 1.95059 16.6255C1.9336 16.905 2.00073 17.131 2.34731 17.2646Z" fill="#374151"/>
<path d="M16.6407 12.0308C16.6407 12.85 16.6314 13.6303 16.6458 14.4102C16.6508 14.6815 16.5648 14.7742 16.2892 14.7704C15.3142 14.7569 14.3385 14.7487 13.3639 14.7735C12.9907 14.7831 12.8315 14.6803 12.8875 14.2974C12.9077 14.1587 12.8907 14.0145 12.8907 13.8276C12.5573 13.8276 12.2349 13.8492 11.9185 13.815C11.8177 13.8041 11.6597 13.6498 11.6533 13.553C11.6247 13.1127 11.6247 12.6686 11.6533 12.2283C11.6596 12.1312 11.8167 11.9768 11.9176 11.9653C12.224 11.9305 12.5369 11.9527 12.8688 11.9527C12.8688 11.7477 12.8688 11.5598 12.8688 11.3276C12.5562 11.3276 12.2333 11.3492 11.9164 11.3149C11.8162 11.3041 11.6596 11.1484 11.6532 11.0509C11.6247 10.6107 11.6247 10.1665 11.6534 9.72627C11.6597 9.62973 11.8181 9.47673 11.9196 9.46523C12.2258 9.43054 12.5384 9.45271 12.8907 9.45271C12.8907 9.23182 12.9016 9.02784 12.8879 8.82553C12.8715 8.58357 12.9761 8.5097 13.2088 8.51158C14.2359 8.51988 15.2633 8.52317 16.2903 8.50986C16.5673 8.50627 16.6489 8.6015 16.6457 8.87116C16.6334 9.91122 16.6407 10.9515 16.6407 12.0308ZM16.0157 11.4448C16.0157 10.6821 16.0157 9.91933 16.0157 9.16264C15.158 9.16264 14.3451 9.16264 13.5381 9.16264C13.5381 10.8312 13.5381 12.4772 13.5381 14.1177C14.3735 14.1177 15.1863 14.1177 16.0157 14.1177C16.0157 13.2379 16.0157 12.3804 16.0157 11.4448ZM12.8345 13.1981C12.8568 12.9954 12.8792 12.7927 12.9004 12.6007C12.6517 12.6007 12.4653 12.6007 12.2857 12.6007C12.2857 12.8107 12.2857 12.9971 12.2857 13.2024C12.4572 13.2024 12.609 13.2024 12.8345 13.1981ZM12.7608 10.7024C12.8182 10.5035 12.8757 10.3047 12.9342 10.102C12.6491 10.102 12.4626 10.102 12.2871 10.102C12.2871 10.3135 12.2871 10.5 12.2871 10.7026C12.4349 10.7026 12.5615 10.7026 12.7608 10.7024Z" fill="#374151"/>
<path d="M8.82797 11.4026C8.82797 12.2655 8.82797 12.2655 8.00961 12.2655C6.94309 12.2655 5.8765 12.2585 4.81011 12.2704C4.54176 12.2734 4.43988 12.1948 4.44768 11.916C4.46477 11.3052 4.46019 10.6934 4.44932 10.0823C4.44514 9.84785 4.52482 9.76017 4.76473 9.76174C6.01328 9.76992 7.26194 9.76955 8.5105 9.76198C8.74389 9.76056 8.83919 9.8355 8.8317 10.0767C8.81838 10.5055 8.82796 10.935 8.82797 11.4026ZM5.28743 11.6405C6.25729 11.6405 7.22716 11.6405 8.17523 11.6405C8.17523 11.1887 8.17523 10.7919 8.17523 10.4184C7.12596 10.4184 6.10452 10.4184 5.07797 10.4184C5.07797 10.7456 5.07797 11.0448 5.07797 11.344C5.07797 11.3701 5.06874 11.4011 5.07964 11.4213C5.12015 11.4962 5.16729 11.5675 5.28743 11.6405Z" fill="#374151"/>
<path d="M11.2497 3.20289C11.4574 3.20289 11.6285 3.18719 11.7952 3.20747C11.9504 3.22635 12.2224 3.26641 12.231 3.32705C12.2572 3.51331 12.2353 3.7479 12.1368 3.90315C11.6714 4.6362 11.1736 5.34862 10.689 6.06952C10.5981 6.20473 10.5436 6.38658 10.4203 6.47203C10.2785 6.57034 10.0803 6.60959 9.90375 6.6184C9.86362 6.6204 9.77764 6.39338 9.77203 6.2691C9.75459 5.88287 9.76564 5.49536 9.76564 5.07789C9.28356 5.07789 8.83127 5.08673 8.37967 5.07306C8.2234 5.06832 7.93941 5.01742 7.9359 4.97086C7.92078 4.77016 7.93397 4.53023 8.03504 4.36447C8.42129 3.73103 8.84562 3.12083 9.25544 2.50176C9.40111 2.28172 9.51616 2.03024 9.70152 1.85154C9.82801 1.7296 10.0493 1.68785 10.2353 1.66218C10.2694 1.65747 10.3761 1.89987 10.3834 2.03184C10.4041 2.40636 10.3906 2.78276 10.3906 3.20289C10.6743 3.20289 10.9428 3.20289 11.2497 3.20289ZM11.2313 3.96533C11.1945 3.91967 11.1597 3.83661 11.1205 3.83449C10.8876 3.8219 10.6537 3.82754 10.4201 3.82798C9.63974 3.82946 9.77894 3.86577 9.75993 3.19434C9.75961 3.18294 9.72918 3.17239 9.71401 3.16225C9.44097 3.57378 9.16798 3.98523 8.85769 4.45289C9.20274 4.45289 9.48273 4.45334 9.76271 4.4528C10.4916 4.4514 10.3807 4.4099 10.3944 5.07415C10.3948 5.09015 10.4162 5.10572 10.4331 5.12872C10.6857 4.75104 10.9344 4.37918 11.2313 3.96533Z" fill="#374151"/>
<path d="M6.01529 17.5109C6.01459 18.0027 5.79938 18.3656 5.45345 18.4923C5.09232 18.6247 4.59807 18.4967 4.33166 18.2019C4.11304 17.96 4.05688 17.3734 4.22503 17.0881C4.4465 16.7124 4.93325 16.5296 5.40133 16.6463C5.70414 16.7218 5.99233 17.1117 6.01529 17.5109ZM5.23 17.7781C5.23822 17.6535 5.27462 17.5199 5.23967 17.4089C5.22712 17.3689 5.02643 17.3469 4.94235 17.3848C4.88307 17.4116 4.82453 17.6025 4.85495 17.634C4.93559 17.7177 5.06468 17.7547 5.23 17.7781Z" fill="#374151"/>
<path d="M14.1408 13.0388C14.1406 12.8748 14.1406 12.7477 14.1406 12.5996C14.5507 12.5996 14.9447 12.5996 15.3648 12.5996C15.3648 12.775 15.3648 12.9618 15.3648 13.1996C14.994 13.1996 14.6004 13.2017 14.207 13.1943C14.1843 13.1939 14.1629 13.117 14.1408 13.0388Z" fill="#374151"/>
<path d="M14.464 10.0781C14.7832 10.0781 15.0649 10.0781 15.3687 10.0781C15.3687 10.2815 15.3687 10.4684 15.3687 10.6794C14.9769 10.6794 14.5735 10.6794 14.1553 10.6794C14.1553 10.495 14.1553 10.3182 14.1553 10.1041C14.2367 10.0963 14.3316 10.0872 14.464 10.0781Z" fill="#374151"/>
</g>
<defs>
<clipPath id="clip0_1055_51539">
<rect width="20" height="20" fill="white"/>
</clipPath>
</defs>
</svg>
