<svg width="20" height="20" viewBox="0 0 20 20" fill="none" xmlns="http://www.w3.org/2000/svg">
<g clip-path="url(#clip0_1055_51515)">
<path d="M15.0781 0.078125C15.6527 0.0781252 16.2272 0.0781252 16.8155 0.102846C16.9718 0.19881 17.1394 0.24254 17.2529 0.345765C17.9864 1.01315 18.7261 1.6758 19.424 2.37944C19.6612 2.61867 19.782 2.97289 19.9621 3.27086C19.974 3.29052 20.0382 3.27852 20.0781 3.28125C20.0781 3.8558 20.0781 4.43035 20.0542 5.01887C19.943 5.16855 19.8423 5.29756 19.7705 5.44106C19.3151 6.35164 18.652 6.39739 18.0006 5.70375C17.3954 5.05931 16.7557 4.4471 16.126 3.82598C16.0019 3.70358 15.854 3.60526 15.7486 3.52103C15.5142 3.74831 15.3037 3.95233 15.073 4.17603C15.933 5.03556 16.8062 5.90593 17.6754 6.78037C17.7725 6.87801 17.8679 6.98846 17.9262 7.111C18.0303 7.32997 17.8888 7.58196 17.6541 7.56744C17.4945 7.55756 17.3033 7.48594 17.1909 7.37588C16.2845 6.48822 15.3935 5.58489 14.5648 4.75357C14.3074 4.98806 14.0706 5.20382 13.8286 5.42425C13.8696 5.46717 13.9131 5.51464 13.9585 5.56013C14.7953 6.39725 15.6375 7.22909 16.4636 8.07667C16.5833 8.19947 16.7044 8.40607 16.6877 8.5589C16.6521 8.88495 16.2493 8.94054 15.978 8.66953C15.067 7.75985 14.1601 6.84616 13.293 5.97553C13.0545 6.21169 12.826 6.43803 12.5751 6.68652C13.211 7.31918 13.8923 7.94328 14.5068 8.62746C14.9117 9.07832 15.3412 9.23154 15.9476 9.23742C17.6786 9.25422 19.0344 9.99969 19.9164 11.5293C19.9459 11.5804 20.0231 11.6041 20.0781 11.6406C20.0781 12.1631 20.0781 12.6856 20.0545 13.222C19.7336 13.7424 19.3819 14.2046 18.8149 14.4215C17.8707 14.7827 16.8988 14.8107 15.9331 14.5283C14.5711 14.13 13.44 13.4358 12.9162 12.0186C12.895 11.9611 12.8313 11.9011 12.7733 11.8785C12.4125 11.7378 12.049 11.6037 11.6831 11.4771C11.615 11.4536 11.4887 11.4453 11.4653 11.4805C11.4265 11.539 11.4239 11.6479 11.4505 11.7189C11.5556 11.9998 11.6979 12.2679 11.7881 12.5528C11.8664 12.8003 12.0104 12.9056 12.249 13.0119C12.7819 13.2492 13.233 13.6049 13.6034 14.0821C14.4383 15.1575 14.8249 16.3617 14.6771 17.7058C14.5776 18.6106 14.3223 19.4701 13.3926 19.9168C13.3415 19.9414 13.3178 20.023 13.2812 20.0781C12.7848 20.0781 12.2884 20.0781 11.7782 20.0534C11.749 20.0078 11.7379 19.9758 11.7173 19.9677C10.9186 19.6504 10.3493 19.0845 9.91834 18.3523C9.37483 17.4289 9.09723 16.4517 9.20989 15.3721C9.22334 15.2432 9.15003 15.0708 9.05908 14.9717C8.7253 14.6078 8.36655 14.2669 8.01823 13.9164C7.56333 13.4586 7.1094 12.9998 6.68601 12.5727C6.42629 12.8367 6.20525 13.0614 5.98188 13.2885C6.07114 13.3772 6.18221 13.4868 6.29257 13.5972C7.08357 14.3883 7.88179 15.1725 8.65715 15.9787C8.76964 16.0956 8.80704 16.3175 8.80961 16.4919C8.81069 16.5653 8.61323 16.7181 8.53698 16.7005C8.36381 16.6606 8.18019 16.5678 8.0528 16.4433C7.16238 15.573 6.2852 14.6892 5.40875 13.8147C5.16524 14.0639 4.94263 14.2917 4.71911 14.5204C5.60296 15.4049 6.50113 16.3097 7.40736 17.2063C7.6125 17.4092 7.67747 17.6396 7.48775 17.8444C7.28315 18.0653 7.05265 17.9562 6.86485 17.7641C6.81944 17.7176 6.773 17.6722 6.72706 17.6262C5.97284 16.8717 5.2149 16.1208 4.46865 15.3585C4.36347 15.251 4.31544 15.0876 4.24096 14.9501C4.20355 15.0005 4.16613 15.0508 4.12872 15.1011C3.92108 15.2948 3.71344 15.4885 3.4852 15.7014C3.60333 15.8504 3.7005 15.9991 3.82284 16.1229C4.49032 16.7985 5.17277 17.4595 5.82909 18.1457C5.9847 18.3083 6.12337 18.5374 6.15975 18.7544C6.26204 19.3645 5.75611 19.5653 5.35776 19.831C5.25522 19.8994 5.17084 19.995 5.07812 20.0781C4.50357 20.0781 3.92902 20.0781 3.34074 20.0534C3.18444 19.9574 3.01685 19.9137 2.90339 19.8105C2.16981 19.1431 1.43018 18.4804 0.732293 17.7768C0.495013 17.5376 0.374288 17.1834 0.194171 16.8854C0.182287 16.8657 0.118024 16.8777 0.078125 16.875C0.078125 16.3004 0.078125 15.7259 0.102012 15.1374C0.531747 14.6214 0.902243 14.0851 1.35016 13.624C2.62673 12.3099 3.93483 11.0263 5.23106 9.73017C4.03372 9.05962 2.84898 8.40549 1.67412 7.73407C1.11523 7.41468 0.451958 7.21811 0.164872 6.54748C0.162205 6.54125 0.108175 6.55701 0.078125 6.5625C0.078125 6.11812 0.078125 5.67374 0.103724 5.21562C0.333192 4.9209 0.582554 4.83171 0.910407 4.99344C1.05512 5.06482 1.21642 5.10239 1.36982 5.15636C3.06954 5.75441 4.76862 6.35426 6.46957 6.94878C6.67184 7.01948 6.88417 7.06138 7.12302 7.12492C7.10571 7.00666 7.10622 6.95375 7.08988 6.90669C6.44588 5.05091 5.81605 3.18995 5.14374 1.34446C4.98032 0.895859 4.8057 0.498528 5.15625 0.0781252C5.60063 0.0781252 6.04501 0.0781252 6.50335 0.101637C6.80204 0.417244 7.15856 0.667232 7.35893 1.00881C8.17266 2.39594 8.93845 3.81118 9.73168 5.23356C11.1379 3.82592 12.5177 2.42975 13.918 1.05439C14.2314 0.746494 14.6181 0.513544 14.9669 0.240743C15.0162 0.202184 15.0417 0.133087 15.0781 0.078125ZM3.59631 7.93271C4.48359 8.42858 5.37244 8.92168 6.25774 9.42107C7.23052 9.96981 8.19572 10.5321 9.17292 11.0728C9.61068 11.315 10.0632 11.6123 10.5751 11.2376C10.7303 11.124 10.8385 10.9366 11.0032 10.8477C11.2034 10.7397 11.4708 10.5964 11.6561 10.6504C12.2419 10.8209 12.8058 11.0692 13.3704 11.306C13.4647 11.3455 13.5633 11.4675 13.5868 11.5683C13.7427 12.2389 14.143 12.7495 14.689 13.1162C15.6414 13.7558 16.6687 14.1324 17.8608 13.9139C19.1241 13.6824 19.8199 12.6676 19.0222 11.5493C18.5445 10.8797 17.9064 10.4438 17.155 10.1836C16.2256 9.86181 15.2851 9.76142 14.35 10.2273C14.1807 10.3116 13.9193 10.3118 13.7349 10.2491C12.3853 9.79076 11.0463 9.30151 9.70062 8.83139C7.2328 7.96923 4.76319 7.1122 2.29319 6.25629C1.80352 6.0866 1.30879 5.93155 0.775902 5.75644C0.803229 6.09617 0.859552 6.3445 1.13839 6.50227C1.94676 6.95964 2.74947 7.427 3.59631 7.93271ZM6.83569 10.6249C6.63571 10.5203 6.40436 10.4501 6.24303 10.3031C5.99557 10.0776 5.85948 10.189 5.67423 10.3755C4.21646 11.843 2.73424 13.2867 1.29557 14.7726C0.634185 15.4557 0.550313 16.253 1.06221 16.913C1.68833 17.7202 2.44008 18.4552 3.23835 19.0957C3.88514 19.6147 4.81987 19.4413 5.40079 18.8123C5.31392 18.7212 5.2278 18.6272 5.13785 18.537C4.46721 17.8646 3.79215 17.1966 3.12594 16.5198C2.67956 16.0664 2.68728 15.4003 3.13037 14.9569C4.40865 13.6778 5.68721 12.399 6.9651 11.1196C7.05185 11.0327 7.13403 10.9413 7.22968 10.84C7.08032 10.7666 6.97879 10.7167 6.83569 10.6249ZM16.7881 0.96577C16.2514 0.740285 15.7184 0.66605 15.1984 1.01046C15.0312 1.12122 14.8462 1.21602 14.7061 1.3551C13.2471 2.80265 11.7936 4.25567 10.3473 5.71582C10.2591 5.80488 10.1679 6.00455 10.2091 6.08873C10.3941 6.46711 10.6265 6.82234 10.8561 7.21018C10.9557 7.11721 11.0507 7.03365 11.14 6.9444C12.4006 5.68477 13.6604 4.42436 14.9204 3.16414C15.4165 2.66804 16.0654 2.66925 16.5696 3.17095C17.1229 3.72141 17.676 4.27203 18.2237 4.82802C18.421 5.02831 18.6023 5.24438 18.8097 5.47414C19.301 4.8258 19.5859 4.21606 19.211 3.51879C19.0107 3.14631 18.7486 2.79087 18.4512 2.49038C17.9371 1.97109 17.3738 1.5006 16.7881 0.96577ZM12.7233 19.3492C13.0307 19.2155 13.3302 19.1122 13.5412 18.7904C13.8483 18.322 13.9332 17.8089 13.9761 17.2868C14.0333 16.5898 13.8139 15.9307 13.5057 15.3214C13.1217 14.5624 12.6121 13.886 11.7337 13.6563C11.3815 13.5643 11.2614 13.3565 11.1641 13.052C11.0516 12.6996 10.8917 12.3623 10.7746 12.0736C10.3808 12.1136 10.0442 12.1478 9.7223 12.1806C9.86021 12.5847 9.97928 13.0369 10.1682 13.4578C10.3512 13.8654 10.3266 14.2136 10.1318 14.6113C9.99809 14.8844 9.94649 15.2156 9.92937 15.5247C9.87197 16.561 10.18 17.5081 10.8067 18.3206C11.2639 18.9133 11.8281 19.4035 12.7233 19.3492ZM8.12257 3.88028C8.04459 3.7512 7.96401 3.6236 7.88905 3.49278C7.44613 2.71972 7.00848 1.94361 6.56045 1.17353C6.38854 0.878058 6.1188 0.776261 5.74411 0.790679C5.8503 1.08953 5.93463 1.32423 6.01716 1.55956C6.68759 3.47128 7.35607 5.3837 8.03237 7.29334C8.06848 7.39529 8.15203 7.52366 8.24322 7.55606C9.00118 7.82539 9.76613 8.07503 10.5997 8.35431C9.75422 6.84423 8.94106 5.39186 8.12257 3.88028ZM11.4033 7.77801C11.3591 7.86009 11.2558 7.97969 11.2802 8.01824C11.4561 8.2956 11.6016 8.67494 11.8627 8.79907C12.4908 9.09768 13.1751 9.2797 13.8414 9.49452C13.9476 9.52879 14.0777 9.48935 14.2396 9.48205C14.1788 9.38981 14.1681 9.36571 14.1507 9.3483C13.4338 8.63058 12.7163 7.91346 11.9744 7.17181C11.7957 7.36131 11.6186 7.54906 11.4033 7.77801ZM8.24219 13.0469C8.63259 13.4381 9.02298 13.8293 9.41338 14.2205C9.44489 14.2083 9.47639 14.1961 9.5079 14.184C9.49817 14.059 9.51082 13.9271 9.47469 13.8103C9.34542 13.3923 9.19523 12.9808 9.06118 12.5643C8.89302 12.0416 8.75262 11.5026 8.11096 11.3487C8.05777 11.3359 8.01654 11.2733 7.99021 11.2511C7.72549 11.5253 7.47949 11.78 7.23145 12.0369C7.54066 12.3459 7.87189 12.6768 8.24219 13.0469Z" fill="#374151"/>
<path d="M17.8337 11.1499C18.4572 11.5547 18.7494 12.1478 18.6002 12.632C18.4506 13.1176 18.0538 13.2974 17.6286 13.3483C16.6664 13.4634 15.7731 13.2618 14.978 12.6598C14.41 12.2297 14.1539 11.5256 14.4564 11.0242C14.5168 10.9241 14.6242 10.8401 14.7281 10.7803C15.5186 10.3251 16.3222 10.4223 17.1196 10.7559C17.3604 10.8566 17.5815 11.0046 17.8337 11.1499ZM17.3436 12.6547C17.5327 12.5783 17.7218 12.5018 17.9152 12.4236C17.4321 11.4062 15.8955 10.9259 15.0806 11.4867C15.2948 12.157 16.2323 12.6566 17.3436 12.6547Z" fill="#374151"/>
<path d="M9.31384 10.2887C9.29124 10.0875 9.25019 9.89355 9.31145 9.74064C9.33511 9.68159 9.62079 9.66152 9.73219 9.72307C9.83389 9.77926 9.91297 9.97056 9.91093 10.1009C9.90659 10.3791 9.69402 10.4468 9.31384 10.2887Z" fill="#374151"/>
<path d="M10.5623 16.6008C10.5483 16.1807 10.5117 15.7876 10.5537 15.4031C10.674 14.3027 11.4745 13.9332 12.3526 14.6785C12.9532 15.1883 13.3015 15.8878 13.3558 16.6958C13.3775 17.0181 13.4123 17.3559 13.3421 17.6641C13.2448 18.0915 13.0846 18.495 12.5451 18.6091C12.0822 18.7069 11.773 18.48 11.4748 18.2236C10.9888 17.8057 10.7826 17.2151 10.5623 16.6008ZM11.481 16.8412C11.6398 17.3117 11.9017 17.6928 12.3969 17.9132C12.6917 17.5088 12.735 17.0711 12.6043 16.6344C12.4105 15.987 12.1912 15.3372 11.4621 15.041C11.1498 15.6502 11.1937 16.2206 11.481 16.8412Z" fill="#374151"/>
</g>
<defs>
<clipPath id="clip0_1055_51515">
<rect width="20" height="20" fill="white"/>
</clipPath>
</defs>
</svg>
