<svg width="25" height="24" viewBox="0 0 25 24" fill="none" xmlns="http://www.w3.org/2000/svg">
<path d="M21.4296 8.01002L14.8796 2.77002C13.5996 1.75002 11.5996 1.74002 10.3296 2.76002L3.77957 8.01002C2.83957 8.76002 2.26957 10.26 2.46957 11.44L3.72957 18.98C4.01957 20.67 5.58957 22 7.29957 22H17.8996C19.5896 22 21.1896 20.64 21.4796 18.97L22.7396 11.43C22.9196 10.26 22.3496 8.76002 21.4296 8.01002ZM13.3496 18C13.3496 18.41 13.0096 18.75 12.5996 18.75C12.1896 18.75 11.8496 18.41 11.8496 18V15C11.8496 14.59 12.1896 14.25 12.5996 14.25C13.0096 14.25 13.3496 14.59 13.3496 15V18Z" fill="#286FFF"/>
</svg>
