<svg width="25" height="24" viewBox="0 0 25 24" fill="none" xmlns="http://www.w3.org/2000/svg">
<path d="M22.4605 10.44L21.4805 14.62C20.6405 18.23 18.9805 19.69 15.8605 19.39C15.3605 19.35 14.8205 19.26 14.2405 19.12L12.5605 18.72C8.39047 17.73 7.10047 15.67 8.08047 11.49L9.06047 7.30001C9.26047 6.45001 9.50047 5.71001 9.80047 5.10001C10.9705 2.68001 12.9605 2.03001 16.3005 2.82001L17.9705 3.21001C22.1605 4.19001 23.4405 6.26001 22.4605 10.44Z" stroke="#6B7280" stroke-width="1.5" stroke-linecap="round" stroke-linejoin="round"/>
<path d="M15.8601 19.39C15.2401 19.81 14.4601 20.16 13.5101 20.47L11.9301 20.99C7.96015 22.27 5.87015 21.2 4.58015 17.23L3.30015 13.28C2.02015 9.30998 3.08015 7.20998 7.05015 5.92998L8.63015 5.40998C9.04015 5.27998 9.43015 5.16998 9.80015 5.09998C9.50015 5.70998 9.26015 6.44998 9.06015 7.29998L8.08015 11.49C7.10015 15.67 8.39015 17.73 12.5601 18.72L14.2401 19.12C14.8201 19.26 15.3601 19.35 15.8601 19.39Z" stroke="#6B7280" stroke-width="1.5" stroke-linecap="round" stroke-linejoin="round"/>
</svg>
