<svg width="25" height="24" viewBox="0 0 25 24" fill="none" xmlns="http://www.w3.org/2000/svg">
<path d="M14.3501 20.16C14.0901 20.27 13.8101 20.37 13.5101 20.47L11.9301 20.99C7.96015 22.27 5.87015 21.2 4.58015 17.23L3.30015 13.28C2.02015 9.31004 3.08015 7.21004 7.05015 5.93004L8.59015 5.42004C8.40015 5.90004 8.24015 6.45004 8.09015 7.07004L7.11015 11.26C6.01015 15.97 7.62015 18.57 12.3301 19.69L14.0101 20.09C14.1201 20.12 14.2401 20.14 14.3501 20.16Z" fill="#286FFF"/>
<path d="M17.9705 3.21001L16.3005 2.82001C12.9605 2.03001 10.9705 2.68001 9.80047 5.10001C9.50047 5.71001 9.26047 6.45001 9.06047 7.30001L8.08047 11.49C7.10047 15.67 8.39047 17.73 12.5605 18.72L14.2405 19.12C14.8205 19.26 15.3605 19.35 15.8605 19.39C18.9805 19.69 20.6405 18.23 21.4805 14.62L22.4605 10.44C23.4405 6.26001 22.1605 4.19001 17.9705 3.21001Z" fill="#286FFF"/>
</svg>
