<svg width="20" height="20" viewBox="0 0 20 20" fill="none" xmlns="http://www.w3.org/2000/svg">
<g clip-path="url(#clip0_1055_51606)">
<path d="M12.9688 20.0781C12.5764 20.0781 12.184 20.0781 11.7776 20.0554C11.1832 19.6575 10.9611 19.1335 11.0055 18.44C11.0511 17.7268 11.0184 17.0084 11.0146 16.2923C11.0123 15.8586 10.7866 15.6332 10.3576 15.6256C10.1669 15.6222 9.97616 15.625 9.76562 15.625C9.76562 16.2097 9.75765 16.7545 9.76745 17.299C9.78311 18.1696 9.02426 18.8091 8.24297 18.8186C6.02988 18.8457 3.81612 18.8408 1.60292 18.8184C1.10534 18.8134 0.644863 18.629 0.364572 18.1508C0.302317 18.0446 0.175315 17.9764 0.078125 17.8906C0.0781252 14.4775 0.0781252 11.0644 0.102841 7.63762C0.157742 7.59936 0.205704 7.58047 0.215513 7.5495C0.461462 6.77291 1.03992 6.3716 1.78651 6.17591C2.11809 6.089 2.51584 6.08954 2.26789 5.5612C2.2531 5.52966 2.26142 5.48283 2.26977 5.44553C2.43557 4.70505 2.76605 4.10637 3.59375 3.95373C3.59375 3.74847 3.60461 3.56613 3.58965 3.38594C3.58076 3.27876 3.56442 3.13527 3.49419 3.07656C3.20402 2.83397 2.89735 2.60982 2.58671 2.39331C2.14409 2.08481 1.83382 1.73685 1.94221 1.12909C2.00288 0.788938 1.95313 0.429095 1.95313 0.078125C3.90788 0.078125 5.86264 0.078125 7.85401 0.114737C7.89062 0.632899 7.90513 1.11515 7.88191 1.59558C7.87482 1.74235 7.79573 1.91455 7.69337 2.02104C7.53846 2.18221 7.31874 2.27937 7.1541 2.43321C6.72284 2.83615 6.02951 3.08481 6.25156 3.89336C6.25841 3.91827 6.26645 3.94286 6.27393 3.9676C6.60375 4.10069 6.93867 4.25341 7.16633 4.5037C7.55595 4.93206 7.56235 5.48406 7.45511 6.0473C7.67272 6.09186 7.86824 6.13226 8.06393 6.17189C9.03311 6.3682 9.78622 7.37106 9.77328 8.30394C9.74745 10.1647 9.76562 12.0261 9.76562 13.8872C9.76562 14.1965 9.76562 14.5059 9.76562 14.8438C9.92269 14.8438 10.0493 14.8408 10.1758 14.8442C11.1786 14.8715 11.7755 15.441 11.7265 16.4013C11.688 17.1542 11.7126 17.9107 11.7209 18.6655C11.7265 19.1626 12.0297 19.4466 12.4522 19.3746C12.7487 19.3241 12.9679 18.9984 12.9682 18.5967C12.9695 17.0479 12.9688 15.4991 12.9688 13.9503C12.9688 9.74652 12.9692 5.54271 12.9681 1.3389C12.968 0.893848 13.1225 0.534018 13.5006 0.277294C13.5527 0.241924 13.5637 0.14601 13.5938 0.078125C14.6631 0.078125 15.7324 0.078125 16.8159 0.100819C17.1784 0.418479 17.5223 0.712656 17.5021 1.23466C17.4905 1.53255 17.5 1.83126 17.5 2.1296C17.5 2.72045 17.5 3.3113 17.5 3.93C17.7674 3.93 17.9814 3.93 18.2031 3.93C18.2031 4.32179 18.1896 4.68503 18.2111 5.04618C18.2178 5.15795 18.293 5.3001 18.3826 5.36622C18.6897 5.59279 18.8334 5.88226 18.8295 6.25962C18.8241 6.77298 18.8281 7.28644 18.8281 7.8125C19.2765 7.8125 19.6773 7.8125 20.0781 7.8125C20.0781 8.43913 20.0781 9.06577 20.0416 9.72901C19.5925 9.76562 19.1801 9.76562 18.828 9.76562C18.6939 9.94565 18.6234 10.1316 18.4929 10.1962C18.2374 10.3227 18.1967 10.5014 18.1987 10.7547C18.2084 12.0041 18.2027 13.2536 18.2039 14.5031C18.204 14.615 18.2146 14.727 18.2218 14.8667C18.4428 14.8667 18.6313 14.8667 18.8018 14.8667C18.8018 15.5534 18.8018 16.2101 18.8018 16.8488C17.7022 16.8488 16.629 16.8488 15.5722 16.8488C15.5722 16.1649 15.5722 15.5074 15.5722 14.8211C15.7862 14.8211 15.9747 14.8211 16.1719 14.8211C16.1719 13.3995 16.1753 12.0076 16.1649 10.6159C16.1641 10.5143 16.0886 10.3772 16.0046 10.3186C15.6835 10.0945 15.5389 9.80609 15.5431 9.41286C15.5542 8.37173 15.5554 7.33031 15.5431 6.28921C15.5374 5.80865 15.6835 5.44412 16.1897 5.27141C16.1897 4.81721 16.1897 4.36695 16.1897 3.91712C16.4072 3.90756 16.5957 3.89927 16.7969 3.89042C16.7969 3.03958 16.8016 2.22088 16.7948 1.40228C16.7916 1.02034 16.555 0.787967 16.171 0.783081C15.6114 0.775961 15.0517 0.781195 14.492 0.781265C13.8528 0.781345 13.6719 0.961492 13.6719 1.59842C13.6719 7.28622 13.6712 12.974 13.673 18.6618C13.6732 19.2066 13.5002 19.6506 13.0059 19.9345C12.9759 19.9517 12.9803 20.0289 12.9688 20.0781ZM0.914805 16.1716C3.62885 16.1716 6.34289 16.1716 9.0625 16.1716C9.0625 13.5122 9.07544 10.9084 9.0453 8.30505C9.04173 7.99682 8.86481 7.63901 8.66025 7.39455C8.09111 6.71438 7.21096 6.63267 6.4423 6.59645C4.97518 6.52733 3.48748 6.41358 2.03471 6.86417C1.30064 7.09185 0.781266 7.65903 0.781259 8.41746C0.781235 10.8651 0.780324 13.3127 0.78373 15.7603C0.783919 15.8961 0.819998 16.0318 0.914805 16.1716ZM0.993639 16.875C0.922881 16.934 0.798916 16.9858 0.789696 17.0532C0.708256 17.6488 1.17165 18.1218 1.84056 18.1233C3.8835 18.1279 5.92646 18.1268 7.96941 18.1241C8.7218 18.123 9.12602 17.6489 9.02309 16.875C6.37376 16.875 3.72128 16.875 0.993639 16.875ZM16.25 6.84107C16.25 7.65846 16.2535 8.47587 16.2481 9.29322C16.2463 9.56902 16.3654 9.69448 16.6427 9.68926C17.0188 9.68217 17.399 9.71772 17.7694 9.67115C17.9001 9.65471 18.1059 9.45325 18.1094 9.33152C18.1372 8.34625 18.1282 7.35984 18.123 6.37381C18.1214 6.07135 17.9876 5.89803 17.6494 5.93382C17.4569 5.95418 17.2605 5.94047 17.0659 5.93699C16.219 5.92181 16.2336 5.91031 16.25 6.84107ZM6.65093 5.05388C6.43207 4.91173 6.22118 4.66428 5.99288 4.64701C5.28293 4.5933 4.56395 4.59236 3.85349 4.64225C3.53339 4.66472 3.24784 4.88058 3.10386 5.21568C2.94993 5.57393 3.0694 5.85352 3.40653 5.85632C4.42106 5.86472 5.43571 5.85964 6.45031 5.85915C6.75194 5.859 6.82014 5.6672 6.79258 5.41802C6.7804 5.30783 6.73065 5.2018 6.65093 5.05388ZM2.7344 0.981181C2.74046 1.09209 2.74652 1.203 2.75239 1.31035C4.21607 1.31035 5.65081 1.31035 7.09264 1.31035C7.09264 1.13101 7.09264 0.969707 7.09264 0.781471C5.67777 0.781471 4.27944 0.780199 2.88115 0.786759C2.83216 0.786989 2.78354 0.865165 2.7344 0.981181ZM17.4219 13.5545C17.4219 12.5338 17.4219 11.513 17.4219 10.4855C17.2247 10.4855 17.0635 10.4855 16.899 10.4855C16.899 11.9465 16.899 13.3907 16.899 14.8196C17.0849 14.8196 17.2462 14.8196 17.4219 14.8196C17.4219 14.4079 17.4219 14.0203 17.4219 13.5545ZM4.41607 2.03125C4.09998 2.03125 3.78389 2.03125 3.44097 2.03125C4.06049 2.99852 6.01166 2.82638 6.36492 2.03125C5.73845 2.03125 5.11601 2.03125 4.41607 2.03125ZM17.6868 16.1719C17.8252 16.1719 17.9636 16.1719 18.1089 16.1719C18.1089 15.9751 18.1089 15.8143 18.1089 15.6494C17.481 15.6494 16.8694 15.6494 16.2738 15.6494C16.2738 15.8351 16.2738 15.9961 16.2738 16.1719C16.7352 16.1719 17.1729 16.1719 17.6868 16.1719ZM4.29688 3.63281C4.30182 3.76491 4.24581 3.92176 4.48797 3.9103C4.83187 3.89403 5.17711 3.90617 5.53244 3.90617C5.53244 3.71179 5.53244 3.55123 5.53244 3.35947C5.17394 3.35947 4.82846 3.34914 4.48466 3.36849C4.41871 3.3722 4.35932 3.49255 4.29688 3.63281ZM16.8753 5.10408C17.0476 5.15933 17.2199 5.21458 17.3979 5.27166C17.3979 4.99212 17.3979 4.80598 17.3979 4.63071C17.2131 4.63071 17.0527 4.63071 16.875 4.63071C16.875 4.77829 16.875 4.9047 16.8753 5.10408ZM18.8284 8.93416C19.0014 8.9885 19.1744 9.04284 19.3503 9.09809C19.3503 8.84612 19.3503 8.68569 19.3503 8.53732C19.1647 8.53732 19.0043 8.53732 18.8281 8.53732C18.8281 8.65976 18.8281 8.76061 18.8284 8.93416Z" fill="#374151"/>
<path d="M16.6768 20.0784C16.5626 19.976 16.447 19.8845 16.4134 19.7692C16.2848 19.3275 16.1825 18.878 16.0789 18.4652C15.9896 18.6037 15.8405 18.8209 15.706 19.0467C15.5022 19.3889 15.1847 19.5541 14.8359 19.4447C14.4852 19.3346 14.3358 19.0702 14.3753 18.7046C14.4314 18.1858 14.4904 17.6672 14.5541 17.0947C14.801 17.1306 15.0434 17.1658 15.2696 17.1987C15.2264 17.6125 15.1853 18.0056 15.1443 18.3987C15.1638 18.4042 15.1834 18.4096 15.203 18.4151C15.3724 18.1716 15.5412 17.9278 15.7114 17.6848C15.9188 17.3887 16.2611 17.4426 16.486 17.533C16.666 17.6053 16.8049 17.9055 16.8602 18.1297C16.9237 18.3875 16.8808 18.673 16.8731 18.9461C16.8665 19.1806 16.9222 19.3676 17.1956 19.372C17.4896 19.3766 17.4083 19.144 17.4217 18.9762C17.448 18.6457 17.4803 18.3155 17.4977 17.9846C17.5119 17.7142 17.6616 17.5381 17.906 17.511C18.1888 17.4798 18.5102 17.4135 18.7091 17.7337C18.8658 17.9858 19.0256 18.236 19.2386 18.5736C19.1717 18.0607 19.1172 17.643 19.0611 17.213C19.2116 17.1756 19.3426 17.1327 19.4771 17.1118C19.7326 17.0722 19.8421 17.1612 19.8542 17.4484C19.8699 17.8216 19.9614 18.1917 20.0492 18.5395C20.078 18.6498 20.078 18.7837 20.0538 18.9285C19.6872 19.3857 19.2696 19.6286 19.035 19.4289C18.7222 19.1625 18.4969 18.7934 18.247 18.4845C18.1987 18.8263 18.1821 19.1817 18.0887 19.5155C18.0315 19.7202 17.8564 19.8919 17.7343 20.0784C17.3939 20.0784 17.0535 20.0784 16.6768 20.0784Z" fill="#374151"/>
<path d="M4.26391 7.82547C4.94569 7.82625 5.58821 7.77196 6.22347 8.033C7.47869 8.5488 8.20016 9.45483 8.4393 10.7776C8.6713 12.0609 8.25931 13.131 7.34575 14.0106C6.68179 14.6498 5.86598 14.9229 4.93095 14.9325C3.8989 14.943 3.04315 14.5871 2.34398 13.8599C1.42188 12.9007 1.11737 11.7514 1.45225 10.4637C1.82769 9.01998 2.80643 8.18613 4.26391 7.82547ZM3.73556 8.75148C3.55934 8.86169 3.38311 8.97189 3.27645 9.0386C3.50143 9.28221 3.71854 9.51731 3.93566 9.7524C3.88154 9.70436 3.82743 9.65632 3.77331 9.60827C3.98566 9.47599 4.19528 9.33905 4.41087 9.21228C5.07366 8.82254 5.94203 9.2376 5.93567 10.1345C5.93437 10.3174 5.91878 10.4879 6.15678 10.5502C6.22543 10.5682 6.26943 10.6702 6.33109 10.7267C6.66832 11.0358 6.59558 11.4504 6.54888 11.8155C6.47308 12.408 6.76572 12.7515 7.19459 13.0547C8.07382 11.9038 7.87309 10.503 7.17148 9.63909C6.26558 8.52359 4.92101 8.23172 3.73556 8.75148ZM2.61369 13.0445C3.53835 14.3115 5.32411 14.6449 6.61646 13.6457C6.45422 13.4801 6.29077 13.3133 6.12755 13.1467C5.53652 13.772 4.73441 13.7508 4.12743 13.4751C3.16848 13.0395 3.01711 11.2575 3.50937 10.658C3.20024 10.3373 2.89814 10.0238 2.59242 9.70664C1.867 10.7849 1.87174 11.8884 2.61369 13.0445ZM4.3519 12.7454C4.41151 12.7195 4.5212 12.6965 4.52284 12.6673C4.53673 12.4208 4.50902 12.1707 4.53619 11.9264C4.57552 11.5728 4.43637 11.3366 4.13642 11.1745C3.84968 11.4976 3.93504 12.2668 4.3519 12.7454ZM4.75793 9.89322C4.69322 10.0407 4.62851 10.1881 4.54537 10.3775C4.82902 10.3775 5.0202 10.3775 5.21099 10.3775C5.22389 9.9461 5.08229 9.76855 4.75793 9.89322ZM5.66955 11.5659C5.72347 11.6122 5.77738 11.6585 5.84931 11.7202C5.86932 11.0978 5.81946 11.051 5.17646 11.1473C5.35429 11.297 5.49075 11.412 5.66955 11.5659Z" fill="#374151"/>
</g>
<defs>
<clipPath id="clip0_1055_51606">
<rect width="20" height="20" fill="white"/>
</clipPath>
</defs>
</svg>
