<svg width="32" height="32" viewBox="0 0 32 32" fill="none" xmlns="http://www.w3.org/2000/svg">
<g clip-path="url(#clip0_954_59676)">
<path d="M11.6254 16.1355C11.6258 15.1667 11.6258 15.1667 12.6254 15.0866C12.6254 14.1219 12.6123 13.1495 12.63 12.1777C12.6419 11.5218 12.4547 10.6169 12.8008 10.2808C13.154 9.93781 14.0501 10.1533 14.7086 10.1258C14.8125 10.1215 14.9181 10.1362 15.0206 10.1233C15.4798 10.0655 15.6442 10.2515 15.6343 10.7214C15.6081 11.9698 15.6254 13.2191 15.6254 14.468C15.6254 14.6704 15.6254 14.8728 15.6254 15.0997C15.9717 15.0997 16.2565 15.0997 16.6254 15.0997C16.6254 13.9859 16.6254 12.8699 16.6254 11.754C16.6254 10.1252 16.6254 10.1252 18.258 10.1252C19.6254 10.1252 19.6254 10.1252 19.6254 11.5195C19.6254 12.7017 19.6254 13.8839 19.6254 15.1254C19.836 15.1254 19.9963 15.1348 20.1552 15.1234C20.5078 15.0982 20.639 15.2617 20.6292 15.6053C20.6143 16.1253 20.684 16.6555 20.6023 17.1627C20.5564 17.4471 20.3191 17.7378 20.0951 17.9478C19.754 18.2675 19.5456 18.5986 19.6234 19.0798C19.7205 19.6805 19.5237 20.2202 19.2079 20.711C18.7337 21.4481 18.5661 22.2352 18.6134 23.1104C18.666 24.0835 18.6254 24.0857 17.6254 24.1619C17.6254 24.4609 17.6254 24.7666 17.6254 25.0723C17.6254 26.8625 17.6038 28.653 17.6381 30.4425C17.649 31.0097 17.4544 31.1736 16.9192 31.134C16.3809 31.0941 15.8355 31.0966 15.2968 31.1334C14.786 31.1684 14.6052 31.0062 14.6137 30.4703C14.6438 28.5765 14.6254 26.682 14.6254 24.7878C14.6254 24.5845 14.6254 24.3811 14.6254 24.125C14.4088 24.125 14.2475 24.1159 14.0876 24.1269C13.7291 24.1515 13.5822 23.9723 13.6279 23.6374C13.8035 22.3514 13.4237 21.2077 12.7536 20.134C12.7005 20.0489 12.6243 19.9426 12.6368 19.8576C12.7806 18.8793 12.4716 18.1272 11.7172 17.4529C11.4919 17.2515 11.6455 16.6262 11.6254 16.1355ZM18.0587 20.5043C18.3138 19.9336 18.7476 19.4224 18.6269 18.7286C18.5143 18.0813 18.7182 17.5573 19.2616 17.1737C19.6279 16.915 19.7134 16.5732 19.574 16.1576C17.2509 16.1576 14.9496 16.1576 12.4328 16.1576C12.6759 16.5891 12.8461 16.906 13.0304 17.2144C13.2216 17.5346 13.6125 17.8598 13.5912 18.1598C13.5216 19.1426 13.8512 19.9725 14.3414 20.7639C14.4458 20.9325 14.6972 21.0992 14.889 21.109C15.6565 21.1481 16.4287 21.0962 17.1962 21.1363C17.6436 21.1596 17.9037 21.019 18.0587 20.5043ZM15.6397 30.0178C15.9471 30.0642 16.2544 30.1106 16.5975 30.1624C16.5975 28.7713 16.5975 27.4772 16.5975 26.1562C16.2722 26.1562 15.9749 26.1562 15.6275 26.1562C15.6275 27.4242 15.6275 28.6619 15.6397 30.0178ZM18.3009 15.1248C18.4085 15.0412 18.6085 14.9592 18.6099 14.8739C18.6302 13.6382 18.6238 12.4021 18.6238 11.1641C18.2574 11.1641 17.96 11.1641 17.6614 11.1641C17.6614 12.4977 17.6614 13.792 17.6614 15.1251C17.8593 15.1251 18.0214 15.1251 18.3009 15.1248ZM14.0678 15.1251C14.2447 15.1131 14.4216 15.101 14.5856 15.0899C14.5856 13.7436 14.5856 12.4491 14.5856 11.17C14.247 11.17 13.9493 11.17 13.6257 11.17C13.6257 12.3931 13.6158 13.5719 13.6399 14.75C13.6425 14.877 13.8421 15 14.0678 15.1251ZM15.5724 22.1252C15.2693 22.1252 14.9663 22.1252 14.6651 22.1252C14.6651 22.4955 14.6651 22.7925 14.6651 23.0888C15.6661 23.0888 16.627 23.0888 17.5854 23.0888C17.5854 22.7538 17.5854 22.4571 17.5854 22.1252C16.9287 22.1252 16.3116 22.1252 15.5724 22.1252ZM16.1827 25.1251C17.0736 25.095 16.4412 24.4875 16.6215 24.1646C16.2506 24.1646 15.9539 24.1646 15.5722 24.1646C15.8234 24.4986 15.2115 25.1382 16.1827 25.1251Z" fill="#286FFF"/>
<path d="M17.8742 3.12975C17.803 3.30197 17.7401 3.42784 17.6415 3.62523C18.1288 3.62523 18.556 3.60573 18.98 3.63357C19.1877 3.64721 19.5305 3.70676 19.5642 3.81954C19.6308 4.04285 19.6086 4.37744 19.4768 4.56093C18.811 5.48782 18.0985 6.38116 17.4017 7.28576C17.016 7.78647 16.6629 8.31879 16.2271 8.77134C16.035 8.97083 15.6787 9.04726 15.3849 9.0842C15.3261 9.09159 15.1515 8.67051 15.1369 8.44024C15.1003 7.8629 15.1248 7.28169 15.1248 6.6252C14.4923 6.6252 13.8967 6.62701 13.3012 6.62474C12.5889 6.62203 12.4055 6.36088 12.7394 5.70168C13.2538 4.68598 13.8211 3.69701 14.368 2.6978C14.3974 2.64416 14.4668 2.60644 14.4815 2.55165C14.8279 1.25825 15.7107 0.910259 16.9411 1.11701C17.265 1.17143 17.6057 1.124 17.9388 1.12547C18.6449 1.1286 18.8464 1.46421 18.5019 2.10172C18.3183 2.44134 18.0904 2.75696 17.8742 3.12975ZM16.1962 4.50082C16.2814 4.07972 16.3151 3.63888 16.4667 3.24321C16.6117 2.86467 16.8793 2.53309 17.1952 2.01252C16.6372 2.1343 16.0775 2.09148 15.9321 2.31642C15.2646 3.3492 14.7129 4.45682 14.0715 5.62521C14.4014 5.62521 14.6422 5.62517 14.8831 5.62522C16.0867 5.62545 16.0863 5.62548 16.1358 6.83234C16.1367 6.85543 16.1849 6.87658 16.2137 6.90085C16.7878 6.16783 17.3618 5.43508 17.9718 4.65628C17.3726 4.62968 16.8229 4.60527 16.1962 4.50082Z" fill="#286FFF"/>
<path d="M8.21701 15.3452C8.77137 14.9245 9.29321 14.5354 9.83827 14.1289C10.0668 14.4257 10.2888 14.7139 10.5381 15.0376C9.8207 15.5717 9.12629 16.0887 8.41128 16.6211C8.18424 16.327 7.97266 16.0529 7.72363 15.7304C7.87777 15.6121 8.03113 15.4945 8.21701 15.3452Z" fill="#286FFF"/>
<path d="M23.0995 14.6606C23.592 15.0236 24.0527 15.3548 24.5417 15.7064C24.2957 16.0279 24.075 16.3164 23.8402 16.6233C23.123 16.0884 22.4285 15.5704 21.7148 15.0382C21.9514 14.728 22.1601 14.4544 22.4054 14.1328C22.6332 14.3034 22.8505 14.466 23.0995 14.6606Z" fill="#286FFF"/>
<path d="M23.9792 8.79275C24.1653 9.03999 24.3219 9.25424 24.5267 9.53453C23.8365 10.0534 23.1345 10.5812 22.4126 11.124C22.1798 10.8224 21.9682 10.5483 21.7129 10.2175C22.4136 9.6937 23.1081 9.17323 23.8081 8.66024C23.823 8.64935 23.901 8.72466 23.9792 8.79275Z" fill="#286FFF"/>
<path d="M9.411 10.838C8.83186 10.3873 8.28799 9.96395 7.72363 9.5247C7.94902 9.22935 8.1576 8.95604 8.40576 8.63086C9.11013 9.15213 9.80126 9.66361 10.6416 10.2855C10.0744 10.3204 10.2846 11.397 9.411 10.838Z" fill="#286FFF"/>
<path d="M7.40988 12.1259C8.16686 12.125 8.8647 12.125 9.59327 12.125C9.59327 12.4717 9.59327 12.7684 9.59327 13.0951C8.77656 13.0951 7.98182 13.0951 7.02051 13.0951C7.14505 12.7299 7.24789 12.4283 7.40988 12.1259Z" fill="#286FFF"/>
<path d="M22.9095 13.1242C22.7427 12.8352 22.635 12.547 22.4951 12.1729C23.451 12.1729 24.2606 12.1729 25.0979 12.1729C25.0979 12.4671 25.0979 12.7502 25.0979 13.1251C24.3964 13.1251 23.6825 13.1251 22.9095 13.1242Z" fill="#286FFF"/>
<path d="M14.6253 17.6255C14.5941 17.2836 14.6394 17.1067 15.0066 17.1177C15.8512 17.143 16.6972 17.1257 17.5837 17.1257C17.5837 17.4549 17.5837 17.7522 17.5837 18.1239C16.6881 18.1239 15.7848 18.1364 14.8831 18.1047C14.7923 18.1015 14.711 17.8304 14.6253 17.6255Z" fill="#286FFF"/>
<path d="M15.633 20.1251C15.2848 20.1251 14.9978 20.1251 14.668 20.1251C14.668 19.7985 14.668 19.5013 14.668 19.1641C15.6172 19.1641 16.5782 19.1641 17.5823 19.1641C17.5823 19.4523 17.5823 19.7495 17.5823 20.1251C16.9602 20.1251 16.3271 20.1251 15.633 20.1251Z" fill="#286FFF"/>
</g>
<defs>
<clipPath id="clip0_954_59676">
<rect width="32" height="32" fill="white"/>
</clipPath>
</defs>
</svg>
