<svg width="20" height="20" viewBox="0 0 20 20" fill="none" xmlns="http://www.w3.org/2000/svg">
<g clip-path="url(#clip0_1055_51475)">
<path d="M7.26553 10.0849C7.26574 9.47944 7.26574 9.47944 7.89053 9.42936C7.89053 8.82643 7.88234 8.2187 7.89339 7.61131C7.90085 7.20138 7.78382 6.63582 8.00012 6.42576C8.22086 6.21138 8.78095 6.34606 9.19251 6.32887C9.25745 6.32616 9.32346 6.33539 9.38749 6.32732C9.67452 6.29116 9.77724 6.40742 9.77108 6.70112C9.75471 7.48136 9.76553 8.26217 9.76553 9.04276C9.76553 9.16924 9.76553 9.29573 9.76553 9.43758C9.98197 9.43758 10.1599 9.43758 10.3905 9.43758C10.3905 8.74143 10.3905 8.04396 10.3905 7.34649C10.3905 6.32849 10.3905 6.32849 11.4109 6.32849C12.2655 6.32849 12.2655 6.32849 12.2655 7.19995C12.2655 7.93881 12.2655 8.67767 12.2655 9.4536C12.3971 9.4536 12.4973 9.45952 12.5966 9.4524C12.817 9.43659 12.899 9.53882 12.8929 9.75357C12.8836 10.0786 12.9271 10.4099 12.876 10.7269C12.8474 10.9047 12.6991 11.0864 12.559 11.2176C12.3459 11.4174 12.2157 11.6244 12.2643 11.9251C12.325 12.3005 12.2019 12.6379 12.0046 12.9446C11.7082 13.4053 11.6035 13.8972 11.633 14.4442C11.6659 15.0524 11.6405 15.0538 11.0155 15.1014C11.0155 15.2883 11.0155 15.4794 11.0155 15.6704C11.0155 16.7893 11.002 17.9084 11.0234 19.0268C11.0302 19.3813 10.9087 19.4837 10.5741 19.459C10.2377 19.4341 9.8968 19.4356 9.56012 19.4586C9.24087 19.4805 9.12788 19.3791 9.13321 19.0442C9.15204 17.8606 9.14053 16.6765 9.14053 15.4926C9.14053 15.3655 9.14053 15.2384 9.14053 15.0784C9.00513 15.0784 8.90432 15.0727 8.80438 15.0795C8.58031 15.095 8.48852 14.9829 8.51709 14.7736C8.62684 13.9699 8.38948 13.2551 7.97064 12.584C7.93744 12.5308 7.8898 12.4644 7.89761 12.4112C7.98752 11.7998 7.79439 11.3297 7.32289 10.9083C7.18206 10.7824 7.27805 10.3916 7.26553 10.0849ZM11.2863 12.8154C11.4458 12.4588 11.7169 12.1392 11.6414 11.7056C11.5711 11.3011 11.6985 10.9736 12.0381 10.7338C12.2671 10.5721 12.3205 10.3585 12.2334 10.0988C10.7815 10.0988 9.34316 10.0988 7.77013 10.0988C7.92205 10.3685 8.02845 10.5665 8.14362 10.7593C8.26316 10.9594 8.50745 11.1626 8.49416 11.3501C8.45065 11.9644 8.65662 12.4831 8.963 12.9777C9.02828 13.0831 9.18541 13.1872 9.30526 13.1933C9.78496 13.2178 10.2676 13.1854 10.7472 13.2104C11.0269 13.225 11.1894 13.1371 11.2863 12.8154ZM9.77447 18.7614C9.96656 18.7904 10.1587 18.8194 10.3731 18.8518C10.3731 17.9823 10.3731 17.1735 10.3731 16.3479C10.1698 16.3479 9.98398 16.3479 9.76682 16.3479C9.76682 17.1404 9.76682 17.9139 9.77447 18.7614ZM11.4377 9.45325C11.505 9.40102 11.6299 9.34973 11.6308 9.29641C11.6435 8.52412 11.6395 7.75154 11.6395 6.97784C11.4105 6.97784 11.2246 6.97784 11.038 6.97784C11.038 7.81128 11.038 8.62023 11.038 9.45345C11.1617 9.45345 11.263 9.45345 11.4377 9.45325ZM8.79201 9.45345C8.90258 9.44592 9.01314 9.43839 9.11566 9.4314C9.11566 8.58998 9.11566 7.78095 9.11566 6.98148C8.90402 6.98148 8.71796 6.98148 8.51568 6.98148C8.51568 7.74593 8.50952 8.48269 8.52458 9.21902C8.5262 9.29839 8.65098 9.37523 8.79201 9.45345ZM9.73237 13.8285C9.54297 13.8285 9.35358 13.8285 9.16534 13.8285C9.16534 14.0599 9.16534 14.2456 9.16534 14.4308C9.79092 14.4308 10.3915 14.4308 10.9905 14.4308C10.9905 14.2214 10.9905 14.0359 10.9905 13.8285C10.5801 13.8285 10.1944 13.8285 9.73237 13.8285ZM10.1138 15.7035C10.6706 15.6846 10.2754 15.3049 10.3881 15.1031C10.1563 15.1031 9.97084 15.1031 9.73225 15.1031C9.88926 15.3118 9.50679 15.7116 10.1138 15.7035Z" fill="#374151"/>
<path d="M11.1713 1.95573C11.1269 2.06336 11.0876 2.14203 11.0259 2.2654C11.3305 2.2654 11.5975 2.25321 11.8625 2.27062C11.9923 2.27914 12.2066 2.31636 12.2276 2.38685C12.2693 2.52641 12.2554 2.73553 12.173 2.85022C11.7569 3.42952 11.3116 3.98786 10.8761 4.55323C10.635 4.86617 10.4143 5.19888 10.1419 5.48172C10.0219 5.6064 9.79917 5.65417 9.61557 5.67726C9.57881 5.68188 9.46967 5.4187 9.46055 5.27478C9.43768 4.91394 9.45299 4.55069 9.45299 4.14039C9.0577 4.14039 8.68546 4.14151 8.31323 4.1401C7.86809 4.1384 7.75341 3.97519 7.9621 3.56319C8.28365 2.92837 8.63821 2.31026 8.98002 1.68576C8.99837 1.65223 9.04174 1.62866 9.05091 1.59441C9.26744 0.786042 9.81917 0.568546 10.5882 0.697762C10.7906 0.731775 11.0036 0.702134 11.2117 0.703054C11.653 0.705006 11.779 0.914768 11.5637 1.31321C11.449 1.52547 11.3065 1.72273 11.1713 1.95573ZM10.1226 2.81265C10.1759 2.54946 10.1969 2.27393 10.2917 2.02664C10.3823 1.79005 10.5496 1.58281 10.747 1.25746C10.3983 1.33357 10.0485 1.30681 9.95759 1.4474C9.5404 2.09289 9.19558 2.78515 8.79471 3.51539C9.00085 3.51539 9.1514 3.51537 9.30195 3.5154C10.0542 3.51554 10.0539 3.51556 10.0849 4.26984C10.0854 4.28427 10.1156 4.29749 10.1335 4.31266C10.4924 3.85453 10.8511 3.39656 11.2324 2.90981C10.8579 2.89318 10.5143 2.87793 10.1226 2.81265Z" fill="#374151"/>
<path d="M5.13551 9.59027C5.48198 9.32732 5.80813 9.08411 6.14879 8.83008C6.29165 9.01556 6.43038 9.1957 6.58618 9.398C6.13781 9.73183 5.70381 10.055 5.25693 10.3877C5.11502 10.2039 4.98279 10.0326 4.82715 9.83099C4.92348 9.75708 5.01933 9.68355 5.13551 9.59027Z" fill="#374151"/>
<path d="M14.4367 9.16285C14.7445 9.38976 15.0325 9.59678 15.3381 9.81648C15.1843 10.0175 15.0464 10.1977 14.8996 10.3896C14.4514 10.0553 14.0173 9.73153 13.5713 9.39887C13.7192 9.20498 13.8496 9.03398 14.0029 8.83301C14.1452 8.93961 14.281 9.04128 14.4367 9.16285Z" fill="#374151"/>
<path d="M14.9867 5.49559C15.1031 5.65012 15.2009 5.78402 15.329 5.95921C14.8976 6.28353 14.4588 6.61338 14.0077 6.95259C13.8622 6.76411 13.7299 6.59279 13.5703 6.38607C14.0083 6.05869 14.4423 5.73339 14.8798 5.41277C14.8891 5.40596 14.9379 5.45303 14.9867 5.49559Z" fill="#374151"/>
<path d="M5.88175 6.77401C5.51979 6.49228 5.17987 6.22772 4.82715 5.95318C4.96802 5.76859 5.09838 5.59777 5.25348 5.39453C5.69371 5.72032 6.12567 6.04 6.65091 6.4287C6.29635 6.45052 6.42773 7.12339 5.88175 6.77401Z" fill="#374151"/>
<path d="M4.63105 7.57867C5.10417 7.57813 5.54032 7.57812 5.99567 7.57812C5.99567 7.79479 5.99567 7.98025 5.99567 8.18443C5.48523 8.18443 4.98852 8.18443 4.3877 8.18443C4.46553 7.95618 4.52981 7.7677 4.63105 7.57867Z" fill="#374151"/>
<path d="M14.3186 8.20204C14.2143 8.02138 14.147 7.84126 14.0596 7.60742C14.657 7.60742 15.163 7.60742 15.6863 7.60742C15.6863 7.79133 15.6863 7.96826 15.6863 8.20259C15.2478 8.20259 14.8017 8.20259 14.3186 8.20204Z" fill="#374151"/>
<path d="M9.14081 11.0159C9.12129 10.8023 9.14964 10.6917 9.37912 10.6985C9.90702 10.7143 10.4357 10.7036 10.9898 10.7036C10.9898 10.9093 10.9898 11.0951 10.9898 11.3274C10.4301 11.3274 9.8655 11.3353 9.30192 11.3154C9.24519 11.3134 9.19437 11.144 9.14081 11.0159Z" fill="#374151"/>
<path d="M9.77108 12.5782C9.55351 12.5782 9.37409 12.5782 9.16797 12.5782C9.16797 12.3741 9.16797 12.1883 9.16797 11.9775C9.76122 11.9775 10.3618 11.9775 10.9894 11.9775C10.9894 12.1577 10.9894 12.3434 10.9894 12.5782C10.6006 12.5782 10.2049 12.5782 9.77108 12.5782Z" fill="#374151"/>
</g>
<defs>
<clipPath id="clip0_1055_51475">
<rect width="20" height="20" fill="white"/>
</clipPath>
</defs>
</svg>
