<svg width="20" height="21" viewBox="0 0 20 21" fill="none" xmlns="http://www.w3.org/2000/svg">
<path d="M10.442 17.5167H5.17533C2.54199 17.5167 1.66699 15.7667 1.66699 14.0084V6.99173C1.66699 4.3584 2.54199 3.4834 5.17533 3.4834H10.442C13.0753 3.4834 13.9503 4.3584 13.9503 6.99173V14.0084C13.9503 16.6417 13.067 17.5167 10.442 17.5167Z" stroke="#121212" stroke-width="1.5" stroke-linecap="round" stroke-linejoin="round"/>
<path d="M16.2669 14.7501L13.9502 13.1251V7.86678L16.2669 6.24178C17.4002 5.45011 18.3335 5.93344 18.3335 7.32511V13.6751C18.3335 15.0668 17.4002 15.5501 16.2669 14.7501Z" stroke="#121212" stroke-width="1.5" stroke-linecap="round" stroke-linejoin="round"/>
<path d="M9.58301 9.66699C10.2734 9.66699 10.833 9.10735 10.833 8.41699C10.833 7.72664 10.2734 7.16699 9.58301 7.16699C8.89265 7.16699 8.33301 7.72664 8.33301 8.41699C8.33301 9.10735 8.89265 9.66699 9.58301 9.66699Z" stroke="#121212" stroke-width="1.5" stroke-linecap="round" stroke-linejoin="round"/>
</svg>
