<svg width="20" height="21" viewBox="0 0 20 21" fill="none" xmlns="http://www.w3.org/2000/svg">
<path d="M7.50033 18.8337H12.5003C16.667 18.8337 18.3337 17.167 18.3337 13.0003V8.00033C18.3337 3.83366 16.667 2.16699 12.5003 2.16699H7.50033C3.33366 2.16699 1.66699 3.83366 1.66699 8.00033V13.0003C1.66699 17.167 3.33366 18.8337 7.50033 18.8337Z" stroke="#121212" stroke-width="1.5" stroke-linecap="round" stroke-linejoin="round"/>
<path d="M7.49967 8.83333C8.42015 8.83333 9.16634 8.08714 9.16634 7.16667C9.16634 6.24619 8.42015 5.5 7.49967 5.5C6.5792 5.5 5.83301 6.24619 5.83301 7.16667C5.83301 8.08714 6.5792 8.83333 7.49967 8.83333Z" stroke="#121212" stroke-width="1.5" stroke-linecap="round" stroke-linejoin="round"/>
<path d="M2.22461 16.2918L6.33294 13.5335C6.99128 13.0918 7.94128 13.1418 8.53294 13.6501L8.80794 13.8918C9.45794 14.4501 10.5079 14.4501 11.1579 13.8918L14.6246 10.9168C15.2746 10.3585 16.3246 10.3585 16.9746 10.9168L18.3329 12.0835" stroke="#121212" stroke-width="1.5" stroke-linecap="round" stroke-linejoin="round"/>
</svg>
