<svg width="25" height="24" viewBox="0 0 25 24" fill="none" xmlns="http://www.w3.org/2000/svg">
<path d="M12.56 10.87C12.46 10.86 12.34 10.86 12.23 10.87C9.84996 10.79 7.95996 8.84 7.95996 6.44C7.95996 3.99 9.93996 2 12.4 2C14.85 2 16.84 3.99 16.84 6.44C16.83 8.84 14.94 10.79 12.56 10.87Z" stroke="#6B7280" stroke-width="1.5" stroke-linecap="round" stroke-linejoin="round"/>
<path d="M7.56012 14.56C5.14012 16.18 5.14012 18.82 7.56012 20.43C10.3101 22.27 14.8201 22.27 17.5701 20.43C19.9901 18.81 19.9901 16.17 17.5701 14.56C14.8301 12.73 10.3201 12.73 7.56012 14.56Z" stroke="#6B7280" stroke-width="1.5" stroke-linecap="round" stroke-linejoin="round"/>
</svg>
