<svg width="25" height="24" viewBox="0 0 25 24" fill="none" xmlns="http://www.w3.org/2000/svg">
<path d="M12.3994 2C9.77941 2 7.64941 4.13 7.64941 6.75C7.64941 9.32 9.65941 11.4 12.2794 11.49C12.3594 11.48 12.4394 11.48 12.4994 11.49C12.5194 11.49 12.5294 11.49 12.5494 11.49C12.5594 11.49 12.5594 11.49 12.5694 11.49C15.1294 11.4 17.1394 9.32 17.1494 6.75C17.1494 4.13 15.0194 2 12.3994 2Z" fill="#286FFF"/>
<path d="M17.4794 14.15C14.6894 12.29 10.1394 12.29 7.32937 14.15C6.05937 15 5.35938 16.15 5.35938 17.38C5.35938 18.61 6.05938 19.75 7.31938 20.59C8.71938 21.53 10.5594 22 12.3994 22C14.2394 22 16.0794 21.53 17.4794 20.59C18.7394 19.74 19.4394 18.6 19.4394 17.36C19.4294 16.13 18.7394 14.99 17.4794 14.15Z" fill="#286FFF"/>
</svg>
