<svg width="25" height="24" viewBox="0 0 25 24" fill="none" xmlns="http://www.w3.org/2000/svg">
<path d="M8.20002 22H16.2C20.22 22 20.94 20.39 21.15 18.43L21.9 10.43C22.17 7.99 21.47 6 17.2 6H7.20002C2.93002 6 2.23002 7.99 2.50002 10.43L3.25002 18.43C3.46002 20.39 4.18002 22 8.20002 22Z" stroke="#6B7280" stroke-width="1.5" stroke-miterlimit="10" stroke-linecap="round" stroke-linejoin="round"/>
<path d="M8.2002 6V5.2C8.2002 3.43 8.2002 2 11.4002 2H13.0002C16.2002 2 16.2002 3.43 16.2002 5.2V6" stroke="#6B7280" stroke-width="1.5" stroke-miterlimit="10" stroke-linecap="round" stroke-linejoin="round"/>
<path d="M14.2002 13V14C14.2002 14.01 14.2002 14.01 14.2002 14.02C14.2002 15.11 14.1902 16 12.2002 16C10.2202 16 10.2002 15.12 10.2002 14.03V13C10.2002 12 10.2002 12 11.2002 12H13.2002C14.2002 12 14.2002 12 14.2002 13Z" stroke="#6B7280" stroke-width="1.5" stroke-miterlimit="10" stroke-linecap="round" stroke-linejoin="round"/>
<path d="M21.8502 11C19.5402 12.68 16.9002 13.68 14.2002 14.02" stroke="#6B7280" stroke-width="1.5" stroke-miterlimit="10" stroke-linecap="round" stroke-linejoin="round"/>
<path d="M2.82031 11.27C5.07031 12.81 7.61031 13.74 10.2003 14.03" stroke="#6B7280" stroke-width="1.5" stroke-miterlimit="10" stroke-linecap="round" stroke-linejoin="round"/>
</svg>
