<svg width="25" height="24" viewBox="0 0 25 24" fill="none" xmlns="http://www.w3.org/2000/svg">
<path d="M21.2902 6.98002C20.4402 6.04002 19.0202 5.57002 16.9602 5.57002H16.7202V5.53002C16.7202 3.85002 16.7202 1.77002 12.9602 1.77002H11.4402C7.68023 1.77002 7.68023 3.86002 7.68023 5.53002V5.58002H7.44023C5.37023 5.58002 3.96023 6.05002 3.11023 6.99002C2.12023 8.09002 2.15023 9.57002 2.25023 10.58L2.26023 10.65L2.33769 11.4633C2.35195 11.6131 2.43262 11.7484 2.55851 11.8307C2.79831 11.9877 3.19966 12.2464 3.44023 12.38C3.58023 12.47 3.73023 12.55 3.88023 12.63C5.59023 13.57 7.47023 14.2 9.38023 14.51C9.47023 15.45 9.88023 16.55 12.0702 16.55C14.2602 16.55 14.6902 15.46 14.7602 14.49C16.8002 14.16 18.7702 13.45 20.5502 12.41C20.6102 12.38 20.6502 12.35 20.7002 12.32C21.0969 12.0958 21.5085 11.8195 21.8837 11.5489C21.9967 11.4673 22.069 11.3413 22.0844 11.2028L22.1002 11.06L22.1502 10.59C22.1602 10.53 22.1602 10.48 22.1702 10.41C22.2502 9.40002 22.2302 8.02002 21.2902 6.98002ZM13.2902 13.83C13.2902 14.89 13.2902 15.05 12.0602 15.05C10.8302 15.05 10.8302 14.86 10.8302 13.84V12.58H13.2902V13.83ZM9.11023 5.57002V5.53002C9.11023 3.83002 9.11023 3.20002 11.4402 3.20002H12.9602C15.2902 3.20002 15.2902 3.84002 15.2902 5.53002V5.58002H9.11023V5.57002Z" fill="#286FFF"/>
<path d="M21.0735 13.7341C21.4271 13.5659 21.8344 13.8462 21.799 14.2361L21.44 18.19C21.23 20.19 20.41 22.23 16.01 22.23H8.39004C3.99004 22.23 3.17004 20.19 2.96004 18.2L2.61933 14.4521C2.58429 14.0667 2.98224 13.7867 3.33488 13.9463C4.47429 14.4618 6.57744 15.3764 7.87661 15.7166C8.04092 15.7597 8.17381 15.8773 8.24575 16.0311C8.85272 17.3292 10.1692 18.02 12.07 18.02C13.9521 18.02 15.2852 17.3026 15.8942 16.0013C15.9662 15.8474 16.0993 15.7298 16.2637 15.6865C17.6432 15.3235 19.8818 14.3012 21.0735 13.7341Z" fill="#286FFF"/>
</svg>
