<svg width="20" height="20" viewBox="0 0 20 20" fill="none" xmlns="http://www.w3.org/2000/svg">
<path d="M11.0836 6.75843L12.1836 8.95843C12.3336 9.25843 12.7336 9.55843 13.067 9.60843L15.0586 9.94177C16.3336 10.1584 16.6336 11.0751 15.717 11.9918L14.167 13.5501C13.9086 13.8084 13.7586 14.3168 13.842 14.6834L14.2836 16.6084C14.6336 18.1251 13.8253 18.7168 12.4836 17.9251L10.617 16.8168C10.2753 16.6168 9.7253 16.6168 9.38364 16.8168L7.50864 17.9168C6.16697 18.7084 5.35864 18.1168 5.70864 16.6001L6.1503 14.6751C6.23364 14.3168 6.08364 13.8084 5.8253 13.5418L4.28364 12.0001C3.36697 11.0834 3.66697 10.1584 4.94197 9.9501L6.93364 9.61677C7.26697 9.55843 7.66697 9.26677 7.81697 8.96677L8.91697 6.76677C9.50864 5.56677 10.492 5.56677 11.0836 6.75843Z" fill="#F97316"/>
<path d="M5 8.12508C4.65833 8.12508 4.375 7.84175 4.375 7.50008V1.66675C4.375 1.32508 4.65833 1.04175 5 1.04175C5.34167 1.04175 5.625 1.32508 5.625 1.66675V7.50008C5.625 7.84175 5.34167 8.12508 5 8.12508Z" fill="#F97316"/>
<path d="M15 8.12508C14.6583 8.12508 14.375 7.84175 14.375 7.50008V1.66675C14.375 1.32508 14.6583 1.04175 15 1.04175C15.3417 1.04175 15.625 1.32508 15.625 1.66675V7.50008C15.625 7.84175 15.3417 8.12508 15 8.12508Z" fill="#F97316"/>
<path d="M10 3.95841C9.65833 3.95841 9.375 3.67508 9.375 3.33341V1.66675C9.375 1.32508 9.65833 1.04175 10 1.04175C10.3417 1.04175 10.625 1.32508 10.625 1.66675V3.33341C10.625 3.67508 10.3417 3.95841 10 3.95841Z" fill="#F97316"/>
</svg>
