<svg width="20" height="20" viewBox="0 0 20 20" fill="none" xmlns="http://www.w3.org/2000/svg">
<g clip-path="url(#clip0_1055_51688)">
<path d="M2.42158 11.4066C2.42158 10.8747 2.42158 10.3818 2.42158 9.94663C2.04457 10.0924 1.66923 10.3081 1.26932 10.3734C0.813854 10.4478 0.522227 10.2057 0.390885 9.81658C0.239838 9.36911 0.353531 8.90907 0.688159 8.6487C2.44001 7.28561 4.1979 5.93023 5.94434 4.56024C7.23383 3.5487 8.50649 2.51573 9.79316 1.50056C9.9906 1.34478 10.1908 1.35822 10.4119 1.53658C11.3668 2.3071 12.3379 3.05746 13.3591 3.85906C13.3591 3.39778 13.3651 3.00217 13.3573 2.60682C13.3504 2.25414 13.5137 2.10205 13.8644 2.10716C14.4891 2.11627 15.1142 2.11794 15.7388 2.10628C16.0546 2.10038 16.1784 2.22984 16.1751 2.54428C16.1653 3.49446 16.2111 4.4471 16.1561 5.39419C16.1252 5.92711 16.32 6.24147 16.7248 6.54018C17.6632 7.23273 18.5795 7.95564 19.4941 8.67969C19.9075 9.00697 19.965 9.68473 19.6364 10.0886C19.4119 10.3645 18.7436 10.5577 18.3152 10.2424C18.1368 10.1111 17.9485 9.99306 17.7341 9.84826C17.7341 10.8328 17.7341 11.7793 17.7341 12.7259C17.7341 14.5743 17.7301 16.4228 17.7379 18.2713C17.7393 18.5837 17.6609 18.7545 17.3068 18.7541C12.4903 18.7485 7.67384 18.7484 2.85737 18.7545C2.50816 18.7549 2.41691 18.597 2.41788 18.2798C2.4248 16.0018 2.42158 13.7237 2.42158 11.4066ZM8.12229 5.35492C7.92858 5.49673 7.73 5.63241 7.54192 5.78134C6.14767 6.88543 4.76228 8.00094 3.35443 9.08736C3.17012 9.22958 3.12203 9.34867 3.1223 9.55118C3.12589 12.2849 3.1247 15.0187 3.1247 17.7524C3.12471 17.8402 3.12471 17.9279 3.12471 18.0192C7.77824 18.0192 12.4017 18.0192 17.031 18.0192C17.031 15.1534 17.0334 12.3157 17.0223 9.47804C17.0219 9.35986 16.9217 9.20871 16.8227 9.12944C15.8419 8.34389 14.8501 7.57223 13.8644 6.79278C12.6099 5.80076 11.3582 4.80516 10.0855 3.79543C9.43438 4.30944 8.79818 4.81167 8.12229 5.35492ZM6.72163 4.80086C6.42682 5.04379 6.13708 5.29321 5.83625 5.52844C4.90759 6.25463 3.97366 6.97407 3.04382 7.69876C2.43339 8.17451 1.8236 8.6512 1.22008 9.13563C1.07104 9.25526 0.897459 9.40686 1.07199 9.6186C1.22563 9.80497 1.38228 9.72224 1.54953 9.5893C2.37341 8.93443 3.20746 8.29237 4.03578 7.64307C4.82487 7.02453 5.61076 6.40192 6.39908 5.7824C7.43626 4.96729 8.48361 4.16475 9.50823 3.33417C10.001 2.93474 10.1172 2.9146 10.6215 3.31449C11.4359 3.96033 12.2589 4.5954 13.076 5.23787C14.0841 6.03045 15.0889 6.82716 16.0969 7.61981C16.9343 8.27838 17.7776 8.9296 18.6106 9.59378C18.7804 9.72915 18.9634 9.80495 19.0753 9.60803C19.1306 9.51065 19.0542 9.25042 18.9525 9.16605C18.2103 8.54991 17.4498 7.95563 16.6888 7.36235C15.6697 6.56776 14.6405 5.7859 13.6238 4.9883C12.4364 4.0569 11.2578 3.11441 10.0894 2.18788C8.97114 3.05686 7.86994 3.91261 6.72163 4.80086ZM15.0774 5.1952C15.183 5.29527 15.2886 5.39533 15.445 5.54349C15.445 4.5754 15.445 3.70153 15.445 2.83652C14.9729 2.83652 14.5245 2.83652 14.0622 2.83652C14.0622 3.32736 14.0581 3.79469 14.0662 4.2618C14.0676 4.34243 14.0973 4.45141 14.1543 4.49735C14.4391 4.7272 14.7374 4.94041 15.0774 5.1952Z" fill="#374151"/>
<path d="M14.6873 9.57229C14.7365 10.3223 14.61 10.9636 14.0403 11.4791C13.6068 11.8714 13.0987 12.0737 12.5526 12.0077C12.2161 11.967 12.0675 12.0963 11.8734 12.3171C12.6518 13.0911 13.4197 13.8831 14.2202 14.6404C14.7358 15.1281 14.9265 16.1891 14.2725 16.7859C13.7027 17.3059 12.7751 17.3592 12.153 16.7245C11.379 15.935 10.5948 15.1554 9.71781 14.2738C9.64088 14.598 9.52747 14.8316 9.54155 15.0574C9.61531 16.2399 8.56187 17.2812 7.35727 17.1846C7.17044 17.1697 6.97976 17.1343 6.80347 17.0724C6.54235 16.9808 6.48754 16.7084 6.66606 16.4951C6.91788 16.1942 7.16837 15.8922 7.40151 15.6122C7.2809 15.4717 7.17178 15.3445 7.04601 15.1979C6.76754 15.4438 6.50972 15.6709 6.25249 15.8987C5.91662 16.1961 5.67805 16.1361 5.54641 15.711C5.14366 14.4105 6.11432 13.11 7.38081 13.1237C8.11119 13.1316 8.11126 13.125 8.68361 12.4027C7.93411 11.6511 7.20048 10.8781 6.42082 10.1548C6.16374 9.91628 5.76483 9.83146 5.64589 9.43701C5.64244 9.42555 5.6279 9.41792 5.62169 9.40675C5.42642 9.05584 5.59162 8.79909 5.84593 8.57064C6.14619 8.30092 6.37805 7.84717 6.90105 8.12072C7.19996 8.27705 7.52067 8.42724 7.58098 8.82437C7.58782 8.86938 7.62859 8.91422 7.66354 8.94926C8.40673 9.69446 9.15134 10.4382 9.95359 11.2402C10.1738 10.9999 10.3897 10.7785 10.5854 10.5405C10.6329 10.4827 10.6303 10.3689 10.6232 10.2832C10.5308 9.17193 11.0695 8.27968 12.107 8.02471C12.4616 7.93758 12.856 7.94252 13.2216 7.98888C13.622 8.03966 13.7113 8.38103 13.4423 8.70069C13.2113 8.97502 12.9676 9.23852 12.7111 9.5275C12.8288 9.65401 12.9409 9.77466 13.0751 9.91899C13.3405 9.70829 13.5938 9.49002 13.8645 9.29599C14.3786 8.9275 14.4543 8.95444 14.6873 9.57229ZM12.3571 8.67164C11.5814 8.89576 11.1392 9.58836 11.3522 10.3365C11.4292 10.6072 11.3692 10.7774 11.2009 10.9466C10.2832 11.869 9.36431 12.7902 8.44008 13.7059C8.2985 13.8462 8.15781 13.942 7.90481 13.8512C7.67575 13.769 7.38729 13.7904 7.13876 13.8379C6.67079 13.9274 6.05513 14.5758 6.2261 14.9677C6.42103 14.8038 6.59614 14.5995 6.81805 14.4904C6.96008 14.4206 7.21947 14.4246 7.34153 14.5128C7.61203 14.7082 7.82466 14.9822 8.06923 15.2154C8.33565 15.4694 8.3314 15.7053 8.06763 15.9615C7.91926 16.1056 7.79837 16.278 7.6081 16.5059C8.53097 16.3043 9.0206 15.5243 8.78046 14.7335C8.73796 14.5935 8.82882 14.351 8.94058 14.236C9.8563 13.2937 10.7961 12.3749 11.7171 11.4377C11.9064 11.2452 12.0954 11.2061 12.3371 11.2851C12.9346 11.4805 13.8761 11.0717 13.9784 10.1187C13.7791 10.2882 13.614 10.4141 13.4661 10.5577C13.2403 10.7771 13.0209 10.7721 12.7967 10.5664C12.6915 10.4698 12.5928 10.3662 12.4917 10.2651C11.7391 9.51257 11.7391 9.51252 12.5177 8.68749C12.528 8.66129 12.5383 8.63509 12.5486 8.60889C12.5046 8.62788 12.4605 8.64686 12.3571 8.67164ZM12.3833 14.3752C12.5397 14.5317 12.6962 14.688 12.8526 14.8446C13.0824 15.0747 13.3191 15.2984 13.5395 15.5372C13.6927 15.7033 13.7416 15.9355 13.5476 16.0639C13.4326 16.1401 13.2091 16.0763 13.0423 16.0396C12.9676 16.0231 12.912 15.919 12.848 15.8545C12.0978 15.0995 11.3477 14.3445 10.6278 13.6199C10.5094 13.7109 10.4107 13.7869 10.3073 13.8664C11.1121 14.6698 11.8936 15.4526 12.6785 16.2321C13.0248 16.576 13.4421 16.5905 13.762 16.2789C14.0913 15.958 14.078 15.5245 13.7229 15.1668C12.9437 14.3817 12.1625 13.5984 11.3705 12.8029C11.2726 12.9016 11.1835 12.9914 11.0904 13.0852C11.515 13.5089 11.9296 13.9225 12.3833 14.3752ZM8.47703 11.1721C8.71211 11.4258 8.94718 11.6795 9.18226 11.9332C9.23587 11.9012 9.28947 11.8693 9.34308 11.8373C9.31144 11.7422 9.3062 11.6221 9.24376 11.5563C8.91342 11.2078 8.55309 10.887 8.23265 10.5301C7.76479 10.009 7.13133 9.63069 6.85366 8.94094C6.83053 8.88349 6.66962 8.8155 6.63794 8.83928C6.52035 8.92755 6.41693 9.04417 6.34032 9.16975C6.32453 9.19563 6.4365 9.31926 6.50765 9.37462C6.71463 9.53566 6.95015 9.66437 7.13943 9.84291C7.58313 10.2614 8.00641 10.7016 8.47703 11.1721Z" fill="#374151"/>
</g>
<defs>
<clipPath id="clip0_1055_51688">
<rect width="20" height="20" fill="white"/>
</clipPath>
</defs>
</svg>
