<svg width="32" height="32" viewBox="0 0 32 32" fill="none" xmlns="http://www.w3.org/2000/svg">
<g clip-path="url(#clip0_954_59700)">
<path d="M13.6836 32.125C13.5833 31.8046 13.506 31.4842 13.5054 31.1637C13.4973 26.9976 13.5 22.8315 13.5 18.6654C13.5 17.6749 13.5 17.6749 14.5 17.5793C14.5 17.192 14.5288 16.7972 14.4933 16.4082C14.4406 15.831 14.749 15.6149 15.2474 15.4868C15.4343 15.4388 15.6706 15.2728 15.7343 15.1039C16.2636 13.7007 17.2339 13.0001 18.7186 13C21.1974 12.9999 23.6791 12.9273 26.1542 13.0235C28.0691 13.0979 29.2183 12.0103 29.0088 10.2152C28.4226 10.593 27.796 11.0204 27.1428 11.4023C26.9664 11.5055 26.7095 11.4961 26.4895 11.4963C22.0943 11.5012 17.6991 11.5 13.3038 11.5C13.0988 11.5 12.8938 11.5 12.625 11.5C12.625 12.7753 12.6422 14.0178 12.6194 15.2595C12.6023 16.1936 12.3706 17.0972 11.4234 17.4727C10.8523 17.699 10.1749 17.6574 9.50002 17.7418C9.50002 18.6044 9.46542 19.6467 9.50925 20.6856C9.55801 21.8416 8.42899 22.9207 7.33975 22.9012C6.22954 22.8814 5.13142 21.9406 5.24512 20.7048C5.27715 20.3567 5.25002 20.0031 5.25002 19.6494C4.86147 19.686 4.52195 19.7432 4.18208 19.7454C2.99454 19.7531 2.12573 18.8709 2.12542 17.6729C2.12436 13.5901 2.08015 9.50662 2.14831 5.42498C2.17363 3.90923 2.4881 2.39301 3.60028 1.22807C3.98805 0.821901 4.51356 0.547235 4.98809 0.168757C12.3776 0.125 19.7552 0.125 27.1914 0.125C29.0905 1.08236 29.8845 2.70717 29.9839 4.67372C30.0969 6.907 30.2049 9.1533 30.0834 11.3813C29.9981 12.9435 28.7043 14.0907 27.0662 14.1143C24.3405 14.1536 21.6138 14.1101 18.8878 14.1334C17.9795 14.1411 17.2583 14.5346 16.8343 15.4576C17.6388 15.5261 17.843 15.997 17.7559 16.6911C17.7202 16.9759 17.75 17.269 17.75 17.5529C18.75 17.7132 18.75 17.7132 18.75 18.758C18.75 22.9202 18.7522 27.0823 18.7447 31.2444C18.7443 31.5022 18.6678 31.7598 18.6258 32.0712C16.9974 32.125 15.3698 32.125 13.6836 32.125ZM8.16917 10.3543C14.2481 10.3612 20.327 10.3742 26.4059 10.3657C27.0208 10.3648 27.5315 10.0357 27.8693 9.51589C28.7326 8.18789 29.0567 6.75028 28.8984 5.15302C28.7876 4.03478 28.4911 3.02251 27.8679 2.10645C27.4946 1.55786 26.99 1.24142 26.2776 1.24294C20.4271 1.25545 14.5766 1.25 8.72611 1.25C8.53087 1.25 8.33562 1.25 8.11981 1.25C9.92432 4.30993 10.0309 7.28478 8.16917 10.3543ZM10.5529 11.5C9.09535 11.5 7.63467 11.4411 6.18113 11.5177C4.9012 11.5851 4.01237 11.0341 3.25002 9.95971C3.25002 10.5949 3.25001 11.1269 3.25002 11.6589C3.25002 13.5538 3.24355 15.4486 3.25311 17.3434C3.2571 18.1357 3.68719 18.6458 4.29138 18.625C4.87294 18.6049 5.24688 18.0979 5.24988 17.3244C5.25074 17.1027 5.25002 16.8809 5.25002 16.6561C5.65475 16.6561 5.99694 16.6561 6.37502 16.6561C6.37502 17.9948 6.37863 19.3028 6.37338 20.6107C6.37103 21.1948 6.68345 21.6121 7.20354 21.6985C7.48647 21.7455 7.92641 21.511 8.11725 21.2651C8.31529 21.0099 8.36033 20.5885 8.36459 20.2384C8.38691 18.4063 8.37502 16.5738 8.37502 14.7415C8.37502 14.5002 8.37502 14.2589 8.37502 14.0388C8.79479 14.0388 9.13732 14.0388 9.50005 14.0388C9.50005 14.6168 9.38193 15.1941 9.53879 15.6832C9.65656 16.0504 10.0913 16.4852 10.4518 16.5577C10.8112 16.6299 11.3474 16.3193 11.3612 15.7986C11.3992 14.3726 11.3743 12.9448 11.3743 11.5C11.0882 11.5 10.8816 11.5 10.5529 11.5ZM17.625 29.1869C17.625 25.7171 17.625 22.2473 17.625 18.786C16.586 18.786 15.6186 18.786 14.6607 18.786C14.6607 22.8722 14.6607 26.9223 14.6607 30.964C15.6642 30.964 16.6316 30.964 17.625 30.964C17.625 30.3893 17.625 29.8504 17.625 29.1869ZM8.36852 5.69549C8.32902 5.54074 8.26088 5.38714 8.25462 5.23105C8.20991 4.11662 7.90374 3.10058 7.26134 2.17129C6.4127 0.943657 5.19658 0.930129 4.36917 2.16255C3.48867 3.47403 3.21052 4.89689 3.35308 6.4687C3.45473 7.58951 3.72255 8.62858 4.38954 9.51149C5.19148 10.573 6.21196 10.7339 7.07121 9.68378C7.58126 9.06045 7.83379 8.20304 8.10719 7.41783C8.28329 6.91205 8.28718 6.3463 8.36852 5.69549ZM15.7172 16.7567C15.6813 17.0387 15.6454 17.3208 15.6112 17.5889C16.007 17.5889 16.3052 17.5889 16.5933 17.5889C16.5933 17.2957 16.5933 17.039 16.5933 16.7505C16.3197 16.7505 16.0768 16.7505 15.7172 16.7567Z" fill="#286FFF"/>
<path d="M16.7496 29.7393C16.6524 29.9071 16.5666 30.0932 16.4558 30.1096C16.159 30.1535 15.8515 30.1246 15.5244 30.1246C15.5244 29.7379 15.5244 29.3986 15.5244 29.0293C15.9174 29.0293 16.2984 29.0293 16.7497 29.0293C16.7497 29.2446 16.7497 29.4625 16.7496 29.7393Z" fill="#286FFF"/>
<path d="M7.13093 4.2769C7.51129 5.25546 7.50888 6.23148 7.21606 7.14036C6.85717 8.25431 5.94588 8.87953 5.00435 8.1013C4.68266 7.83541 4.4924 7.34139 4.37214 6.91493C4.10047 5.95153 4.11559 4.94449 4.55128 4.04918C5.08318 2.95617 6.22133 2.80904 6.95679 3.90329C7.02387 4.00309 7.06786 4.11841 7.13093 4.2769ZM6.21873 6.47108C6.28569 5.73882 6.32835 5.01124 5.8289 4.37562C5.19493 5.19525 5.19322 6.40996 5.8711 7.31411C5.97298 7.02384 6.05718 6.78397 6.21873 6.47108Z" fill="#286FFF"/>
</g>
<defs>
<clipPath id="clip0_954_59700">
<rect width="32" height="32" fill="white"/>
</clipPath>
</defs>
</svg>
