<svg width="20" height="20" viewBox="0 0 20 20" fill="none" xmlns="http://www.w3.org/2000/svg">
<g clip-path="url(#clip0_1055_51496)">
<path d="M8.55261 20.0781C8.48996 19.8779 8.44164 19.6776 8.44125 19.4773C8.43616 16.8735 8.43787 14.2697 8.43788 11.6659C8.43788 11.0468 8.43789 11.0468 9.06288 10.987C9.06288 10.745 9.08084 10.4982 9.05865 10.2551C9.02573 9.8944 9.21851 9.75931 9.52999 9.67928C9.64682 9.64926 9.79447 9.54549 9.83428 9.43996C10.1651 8.56294 10.7716 8.12504 11.6995 8.12501C13.2488 8.12496 14.7998 8.07954 16.3467 8.13966C17.5436 8.18617 18.2618 7.50644 18.1309 6.38451C17.7645 6.62064 17.3728 6.88772 16.9646 7.12645C16.8543 7.19094 16.6938 7.18505 16.5563 7.1852C13.8093 7.18828 11.0623 7.1875 8.31526 7.1875C8.18711 7.1875 8.05896 7.1875 7.891 7.1875C7.891 7.98454 7.90172 8.7611 7.88749 9.53721C7.87678 10.121 7.732 10.6858 7.13998 10.9204C6.78303 11.0619 6.35968 11.0359 5.93788 11.0886C5.93788 11.6278 5.91626 12.2792 5.94365 12.9285C5.97412 13.651 5.26849 14.3254 4.58771 14.3133C3.89383 14.3009 3.2075 13.7129 3.27857 12.9405C3.29859 12.7229 3.28163 12.5019 3.28163 12.2809C3.03878 12.3038 2.82659 12.3395 2.61417 12.3409C1.87195 12.3457 1.32895 11.7943 1.32875 11.0456C1.32809 8.49384 1.30046 5.94164 1.34306 3.39061C1.35888 2.44327 1.55543 1.49563 2.25054 0.767543C2.4929 0.513688 2.82134 0.342022 3.11792 0.105473C7.73638 0.078125 12.3474 0.078125 16.995 0.078125C18.1819 0.676476 18.6782 1.69198 18.7403 2.92108C18.8109 4.31687 18.8784 5.72081 18.8025 7.11331C18.7492 8.08968 17.9405 8.80666 16.9167 8.82143C15.2132 8.846 13.509 8.81883 11.8052 8.83335C11.2376 8.83819 10.7868 9.0841 10.5218 9.66101C11.0246 9.70383 11.1523 9.99814 11.0978 10.4319C11.0755 10.61 11.0941 10.7931 11.0941 10.9706C11.7191 11.0707 11.7191 11.0707 11.7191 11.7238C11.7191 14.3251 11.7205 16.9264 11.7158 19.5278C11.7155 19.6889 11.6677 19.8499 11.6415 20.0445C10.6237 20.0781 9.60649 20.0781 8.55261 20.0781ZM5.1061 6.47143C8.90542 6.47574 12.7047 6.48385 16.5041 6.47855C16.8884 6.47801 17.2075 6.2723 17.4187 5.94743C17.9582 5.11743 18.1608 4.21893 18.0619 3.22063C17.9926 2.52174 17.8073 1.88907 17.4178 1.31653C17.1845 0.973665 16.8691 0.775889 16.4238 0.77684C12.7673 0.784654 9.11074 0.78125 5.45419 0.78125C5.33216 0.78125 5.21013 0.78125 5.07525 0.78125C6.20307 2.6937 6.26967 4.55299 5.1061 6.47143ZM6.59594 7.1875C5.68496 7.1875 4.77204 7.1507 3.86357 7.19855C3.06362 7.24069 2.5081 6.89633 2.03163 6.22482C2.03163 6.62182 2.03163 6.95432 2.03163 7.28682C2.03163 8.4711 2.02758 9.65539 2.03356 10.8396C2.03605 11.3348 2.30486 11.6536 2.68248 11.6406C3.04595 11.6281 3.27966 11.3112 3.28154 10.8277C3.28208 10.6892 3.28163 10.5506 3.28163 10.41C3.53458 10.41 3.74846 10.41 3.98475 10.41C3.98475 11.2467 3.98701 12.0642 3.98373 12.8817C3.98226 13.2468 4.17752 13.5076 4.50258 13.5616C4.67941 13.5909 4.95437 13.4444 5.07365 13.2907C5.19742 13.1312 5.22557 12.8678 5.22824 12.649C5.24218 11.504 5.23475 10.3586 5.23475 9.21341C5.23475 9.06262 5.23475 8.91183 5.23475 8.77428C5.49711 8.77428 5.71119 8.77428 5.9379 8.77428C5.9379 9.13549 5.86407 9.49629 5.96211 9.80197C6.03572 10.0315 6.30746 10.3033 6.53273 10.3485C6.75738 10.3937 7.09246 10.1996 7.10113 9.87414C7.12486 8.98285 7.1093 8.0905 7.1093 7.1875C6.93049 7.1875 6.80138 7.1875 6.59594 7.1875ZM11.016 18.2418C11.016 16.0732 11.016 13.9046 11.016 11.7412C10.3666 11.7412 9.76199 11.7412 9.1633 11.7412C9.1633 14.2951 9.1633 16.8264 9.1633 19.3525C9.79046 19.3525 10.3951 19.3525 11.016 19.3525C11.016 18.9933 11.016 18.6565 11.016 18.2418ZM5.23069 3.55968C5.206 3.46296 5.16341 3.36696 5.1595 3.26941C5.13156 2.57289 4.9402 1.93786 4.5387 1.35705C4.0083 0.589786 3.24823 0.581331 2.7311 1.35159C2.18079 2.17127 2.00694 3.06056 2.09604 4.04294C2.15957 4.74344 2.32696 5.39286 2.74383 5.94468C3.24504 6.60815 3.88284 6.70867 4.41987 6.05236C4.73865 5.66278 4.89649 5.1269 5.06736 4.63615C5.17742 4.32003 5.17986 3.96644 5.23069 3.55968ZM9.82363 10.4729C9.80118 10.6492 9.77872 10.8255 9.75738 10.9931C10.0047 10.9931 10.1911 10.9931 10.3712 10.9931C10.3712 10.8098 10.3712 10.6494 10.3712 10.4691C10.2002 10.4691 10.0483 10.4691 9.82363 10.4729Z" fill="#374151"/>
<path d="M10.4689 18.5873C10.4081 18.6922 10.3545 18.8085 10.2852 18.8187C10.0998 18.8462 9.90758 18.8281 9.70312 18.8281C9.70312 18.5865 9.70312 18.3744 9.70312 18.1436C9.94873 18.1436 10.1869 18.1436 10.4689 18.1436C10.4689 18.2781 10.4689 18.4143 10.4689 18.5873Z" fill="#374151"/>
<path d="M4.45634 2.67355C4.69407 3.28515 4.69256 3.89516 4.50955 4.46322C4.28524 5.15943 3.71569 5.5502 3.12723 5.0638C2.92617 4.89762 2.80726 4.58886 2.7321 4.32232C2.56231 3.7202 2.57176 3.0908 2.84406 2.53123C3.1765 1.8481 3.88784 1.75614 4.3475 2.44005C4.38943 2.50242 4.41693 2.5745 4.45634 2.67355ZM3.88622 4.04492C3.92807 3.58725 3.95473 3.13252 3.64258 2.73525C3.24634 3.24752 3.24527 4.00671 3.66895 4.57181C3.73263 4.39039 3.78525 4.24047 3.88622 4.04492Z" fill="#374151"/>
</g>
<defs>
<clipPath id="clip0_1055_51496">
<rect width="20" height="20" fill="white"/>
</clipPath>
</defs>
</svg>
