<svg width="20" height="20" viewBox="0 0 20 20" fill="none" xmlns="http://www.w3.org/2000/svg">
<g clip-path="url(#clip0_1055_51761)">
<path d="M6.32852 1.56355C6.32852 1.88857 6.35034 2.17703 6.32201 2.46048C6.29677 2.71311 6.39469 2.88159 6.57944 3.0223C6.63895 3.06763 6.70804 3.10019 6.76906 3.14376C7.01336 3.31819 7.34624 3.69359 7.48224 3.63203C7.85009 3.46555 8.14026 3.12022 8.44581 2.82961C8.50506 2.77325 8.51205 2.64362 8.51311 2.54745C8.51912 2.00098 8.50007 1.45367 8.52538 0.908313C8.53336 0.736388 8.60947 0.509388 8.7345 0.421269C8.82024 0.360848 9.06641 0.462639 9.20315 0.550572C10.1476 1.15796 10.5936 2.03663 10.6304 3.15615C10.6722 4.43141 10.1386 5.37188 9.07855 6.05178C8.95843 6.12883 8.8398 6.31744 8.83898 6.45503C8.82453 8.87532 8.82508 11.2957 8.83827 13.716C8.83896 13.8425 8.95084 14.0152 9.06215 14.087C10.0457 14.7212 10.5933 15.583 10.6346 16.7801C10.6667 17.7112 10.3639 18.4958 9.7608 19.1721C9.56161 19.3955 9.30383 19.5776 9.04618 19.7348C8.77535 19.9001 8.52489 19.6953 8.51839 19.3121C8.50913 18.7657 8.53237 18.2183 8.50634 17.673C8.49824 17.5032 8.41107 17.3073 8.29729 17.1791C8.09454 16.9507 7.85993 16.7403 7.60504 16.5738C7.511 16.5124 7.29164 16.5507 7.18261 16.6233C6.95022 16.7781 6.73142 16.9668 6.54855 17.1775C6.43568 17.3076 6.34612 17.5016 6.33827 17.6711C6.31239 18.2295 6.3322 18.7898 6.32727 19.3493C6.3238 19.7425 6.083 19.882 5.75052 19.6761C4.05409 18.6251 3.7378 16.3825 4.84823 14.9722C5.11668 14.6313 5.49778 14.3806 5.81245 14.0735C5.90595 13.9822 6.00699 13.8401 6.00755 13.7208C6.01884 11.2875 6.01895 8.85409 6.00698 6.42077C6.0064 6.30443 5.90146 6.1472 5.79869 6.07936C5.00659 5.55655 4.44264 4.87028 4.27554 3.92123C4.09323 2.88576 4.26044 1.91907 5.01354 1.13019C5.25709 0.875075 5.5416 0.646945 5.84125 0.461105C6.10982 0.294539 6.31332 0.431494 6.32629 0.744121C6.33706 1.00393 6.32851 1.26455 6.32852 1.56355ZM6.7157 3.94087C6.4576 3.73462 6.20256 3.52436 5.94036 3.32346C5.749 3.17685 5.68658 2.99756 5.6975 2.75487C5.71828 2.29285 5.70352 1.82923 5.70352 1.36628C5.66541 1.35004 5.6273 1.3338 5.58919 1.31756C5.36703 1.72724 5.06546 2.11374 4.93782 2.55101C4.57842 3.78228 5.16115 5.05489 6.32975 5.58515C6.55394 5.68688 6.64799 5.82615 6.64703 6.08649C6.63721 8.74218 6.63816 11.3979 6.64572 14.0536C6.64643 14.3025 6.57588 14.4519 6.34426 14.5643C5.25133 15.0947 4.76663 15.9916 4.84955 17.1874C4.8943 17.8327 5.23071 18.3478 5.70352 18.8623C5.70352 18.3013 5.6875 17.8195 5.71258 17.3399C5.72089 17.1809 5.79575 16.9868 5.90777 16.879C6.29467 16.5066 6.69603 16.1446 7.12614 15.8246C7.25399 15.7295 7.55602 15.7022 7.67243 15.7877C8.11458 16.1127 8.52593 16.4836 8.92082 16.8662C9.04061 16.9823 9.12123 17.1885 9.13127 17.3586C9.15931 17.8339 9.14102 18.3118 9.14102 18.8496C9.21969 18.7814 9.25646 18.7543 9.28758 18.7218C10.5179 17.4372 10.1546 15.3411 8.51246 14.5217C8.37098 14.4511 8.21752 14.2303 8.2165 14.0783C8.19857 11.4097 8.19854 8.74089 8.21675 6.07227C8.21777 5.92213 8.38701 5.74785 8.5185 5.63009C8.69455 5.47243 8.92651 5.37791 9.10599 5.22324C9.79199 4.63205 10.0805 3.8735 9.99952 2.97488C9.94108 2.32649 9.6817 1.77954 9.14102 1.30412C9.14102 1.83463 9.16096 2.3008 9.13112 2.76375C9.11933 2.94661 9.04171 3.16763 8.91593 3.29266C8.56303 3.64345 8.15386 3.93731 7.79724 4.28478C7.54679 4.52879 7.32619 4.49207 7.08998 4.3083C6.96766 4.21314 6.86572 4.09179 6.7157 3.94087Z" fill="#374151"/>
<path d="M3.82786 10.5702C3.82786 13.0926 3.82078 15.5785 3.83246 18.0643C3.83568 18.7494 3.52995 19.2543 2.9619 19.5598C2.37314 19.8766 1.74413 19.8681 1.16394 19.482C0.655388 19.1436 0.393092 18.6588 0.392057 18.0484C0.387932 15.6146 0.390355 13.1808 0.390358 10.747C0.390358 10.1002 0.403162 10.0876 1.06436 10.0775C1.11422 10.0767 1.16402 10.0718 1.24973 10.0666C1.24973 9.6322 1.24973 9.20617 1.24973 8.78014C1.24973 7.32246 1.25494 5.86474 1.243 4.40715C1.24154 4.22894 1.20538 3.97722 1.08753 3.88634C0.531091 3.45722 0.56549 2.91905 0.702195 2.32973C0.8217 1.81456 0.91555 1.29328 1.01406 0.773441C1.06264 0.517101 1.16032 0.363968 1.46796 0.383507C1.89573 0.410676 2.32669 0.397702 2.75595 0.387693C3.03111 0.381277 3.16448 0.462559 3.21318 0.769846C3.33132 1.51535 3.52511 2.24911 3.63544 2.99543C3.66248 3.17828 3.53568 3.44267 3.39323 3.57996C3.06101 3.90014 2.9521 4.25106 2.95873 4.70865C2.98325 6.40024 2.96848 8.09241 2.96848 9.78436C2.96848 9.8724 2.96848 9.96044 2.96848 10.0392C3.29526 10.1756 3.86349 9.83912 3.82786 10.5702ZM1.01536 11.2935C1.01536 13.5331 1.00684 15.7727 1.02035 18.0121C1.02461 18.719 1.51703 19.1166 2.11409 19.1355C2.71267 19.1544 3.20246 18.6276 3.20262 18.0033C3.20322 15.6857 3.20311 13.368 3.20207 11.0503C3.20202 10.9385 3.19051 10.8266 3.18502 10.7272C2.44571 10.7272 1.73683 10.7272 1.01536 10.7272C1.01536 10.9066 1.01536 11.0616 1.01536 11.2935ZM1.32786 2.53656C1.19558 2.86656 1.23422 3.13692 1.53143 3.38224C1.8619 3.65502 1.88886 4.03933 1.88375 4.45592C1.86237 6.19955 1.87473 7.94359 1.87473 9.68748C1.87473 9.81324 1.87473 9.939 1.87473 10.056C2.05376 10.056 2.18959 10.056 2.34348 10.056C2.34348 8.08378 2.33554 6.1333 2.35465 4.18308C2.35677 3.96631 2.47464 3.72339 2.60619 3.54124C2.83154 3.22922 3.09035 2.96788 2.90035 2.52343C2.7938 2.2742 2.77741 1.98398 2.73593 1.70988C2.62688 0.989307 2.63042 0.996405 1.88503 1.01076C1.65807 1.01514 1.57747 1.07898 1.5522 1.31937C1.51155 1.70604 1.40613 2.08591 1.32786 2.53656Z" fill="#374151"/>
<path d="M14.5958 3.47627C14.6345 3.35246 14.6714 3.25809 14.6853 3.16044C14.7259 2.87575 14.8784 2.72972 15.1713 2.73319C15.4574 2.73658 15.7449 2.75045 16.0296 2.72972C16.3809 2.70414 16.5118 2.90658 16.5603 3.19846C16.6598 3.79675 16.9875 3.94641 17.5049 3.62483C17.8105 3.43492 18.1004 3.43175 18.3626 3.71095C18.4871 3.84356 18.6207 3.96759 18.7457 4.09972C18.9984 4.3667 19.1054 4.63288 18.8357 4.97395C18.4674 5.43986 18.739 5.85173 19.2109 5.922C19.6603 5.98893 19.792 6.21823 19.7666 6.62058C19.7592 6.7372 19.7655 6.85469 19.7655 6.97178C19.7655 7.63018 19.7397 7.66255 19.0958 7.81278C18.7338 7.89723 18.5484 8.31311 18.7683 8.62425C18.9338 8.8585 19.1104 9.12863 18.9399 9.35341C18.6863 9.68776 18.3511 9.97535 18.0033 10.2138C17.9007 10.2841 17.6067 10.1656 17.4553 10.057C17.0465 9.76361 16.6567 9.96319 16.5651 10.452C16.4946 10.828 16.3006 11.0129 15.9283 11.015C15.7852 11.0159 15.6421 11.0152 15.499 11.0152C14.8491 11.0152 14.8491 11.0152 14.6566 10.3991C14.5051 9.91412 14.1962 9.80138 13.7703 10.0756C13.3773 10.3288 13.1425 10.3112 12.8053 9.946C12.5732 9.69459 12.1699 9.53039 12.2691 9.07746C12.3027 8.9238 12.3652 8.77251 12.4376 8.63204C12.6457 8.22832 12.4809 7.88169 12.0376 7.81214C11.5701 7.73878 11.4862 7.64109 11.4844 7.16439C11.4834 6.9172 11.487 6.66996 11.4835 6.42281C11.4793 6.1306 11.6244 5.97723 11.9091 5.93624C12.5056 5.85035 12.6596 5.45297 12.3694 4.95655C12.2634 4.77513 12.2949 4.43359 12.3961 4.23132C12.5173 3.98887 12.75 3.7597 12.9913 3.63319C13.1829 3.53272 13.511 3.50382 13.6895 3.60313C14.1864 3.87954 14.1681 3.91244 14.5958 3.47627ZM17.3101 4.37831C17.0605 4.35118 16.75 4.40701 16.5749 4.27845C16.275 4.05834 16.0599 3.72284 15.7411 3.3579C15.5521 3.34404 15.2492 3.28553 15.1471 3.77441C15.0806 4.09289 14.7906 4.35756 14.4241 4.36518C14.0463 4.37304 13.6669 4.30443 13.2964 4.27004C13.2017 4.34623 13.0533 4.46546 12.9094 4.5812C13.4185 5.60398 13.1052 6.37037 12.1178 6.52651C12.1178 6.73128 12.1178 6.93743 12.1178 7.1414C13.1808 7.4937 13.496 8.27844 12.9579 9.05083C13.0944 9.22232 13.2223 9.38298 13.3455 9.53767C14.1743 9.10342 14.8973 9.24682 15.1438 9.95422C15.2946 10.3869 15.5188 10.4632 15.8995 10.3652C16.0699 9.47376 16.8581 8.95633 17.8699 9.51501C18.014 9.38391 18.1526 9.25792 18.28 9.14198C18.0769 8.75291 17.9514 8.37276 18.0989 7.9588C18.2719 7.47333 18.6487 7.22934 19.1255 7.15369C19.1826 6.77737 19.1753 6.48268 18.716 6.39908C18.5561 6.36998 18.3948 6.21139 18.2846 6.07201C17.9022 5.58836 17.9852 5.08684 18.2972 4.58736C18.1444 4.43392 17.9989 4.28779 17.896 4.18439C17.6963 4.25729 17.5352 4.31607 17.3101 4.37831Z" fill="#374151"/>
<path d="M15.0759 17.1818C14.8627 17.4305 13.9697 17.5337 13.7509 17.3355C13.6554 17.2489 13.6569 17.0638 13.5839 16.9416C13.5138 16.824 13.4044 16.7299 13.3058 16.6181C13.1458 16.7116 13.0162 16.8269 12.8664 16.8676C12.4096 16.9915 12.1928 16.6246 11.9557 16.3545C11.7701 16.1431 11.7507 15.9004 11.9588 15.644C12.1465 15.4127 12.01 15.2073 11.7567 15.1659C11.3777 15.1039 11.2508 14.9021 11.2455 14.5427C11.2356 13.8635 11.2679 13.6712 11.7723 13.5839C12.0049 13.5437 12.1123 13.3592 11.9824 13.1162C11.7235 12.6317 11.7435 12.5869 12.2858 12.0435C12.5787 11.75 12.8513 11.8514 13.1377 12.0319C13.1801 12.0587 13.2248 12.0817 13.3399 12.1471C13.4255 11.9773 13.5165 11.8114 13.5937 11.6393C13.6741 11.4598 13.7403 11.2845 13.9983 11.3242C14.138 11.3457 14.2861 11.3447 14.4263 11.3248C14.8315 11.2675 15.0853 11.3878 15.1628 11.829C15.212 12.1089 15.4101 12.1287 15.63 11.9823C15.9159 11.7917 16.1748 11.8083 16.4101 12.0711C16.4966 12.1677 16.5896 12.2593 16.6859 12.3461C16.9234 12.5601 16.9564 12.7777 16.7628 13.052C16.5405 13.3669 16.6082 13.487 17.0015 13.5962C17.2666 13.6698 17.4679 13.7997 17.4248 14.1316C17.4049 14.285 17.405 14.4452 17.4248 14.5987C17.4692 14.9444 17.271 15.083 16.9825 15.1558C16.6073 15.2505 16.5802 15.3664 16.7606 15.7212C16.8329 15.8636 16.865 16.1198 16.7851 16.2284C16.5608 16.5332 16.3717 16.9534 15.8753 16.8679C15.7109 16.8396 15.5605 16.7302 15.3251 16.6217C15.2475 16.7874 15.1625 16.9686 15.0759 17.1818ZM12.6428 13.6467C12.4403 13.8235 12.2349 13.9971 12.0372 14.1791C11.9727 14.2385 11.9097 14.314 11.8849 14.3942C11.8763 14.4221 11.9776 14.5031 12.0413 14.5312C12.5808 14.7688 12.7923 15.2619 12.5959 15.8148C12.5686 15.8914 12.5638 16.0373 12.6046 16.0634C12.6768 16.1094 12.7996 16.1151 12.8881 16.0905C13.481 15.9259 13.8199 16.0801 14.1492 16.6578C14.1891 16.7278 14.3066 16.7677 14.3958 16.7882C14.4299 16.7961 14.5036 16.7186 14.5285 16.6656C14.7971 16.0935 15.1769 15.9251 15.786 16.0883C15.8992 16.1186 16.0357 16.0621 16.1873 16.0424C15.8585 15.3595 16.0393 14.8522 16.6175 14.5815C16.6921 14.5466 16.7941 14.4375 16.7832 14.3826C16.7658 14.2944 16.6802 14.1943 16.5964 14.1488C16.0098 13.8298 15.8578 13.3794 16.1915 12.6786C16.0175 12.6696 15.8649 12.6175 15.7521 12.6634C15.2114 12.8833 14.5139 12.4794 14.5027 11.799C14.3637 11.8995 14.2394 11.946 14.1855 12.035C13.7823 12.7014 13.6074 12.7743 12.8069 12.6257C12.7311 12.6116 12.5498 12.7461 12.5514 12.8082C12.558 13.0668 12.6159 13.3242 12.6428 13.6467Z" fill="#374151"/>
<path d="M17.4063 5.64827C18.1804 6.84009 17.6074 8.58029 16.2081 8.91657C14.999 9.20712 13.8255 8.66598 13.5015 7.29804C13.1776 5.93017 14.3539 4.59642 15.6982 4.69456C16.3868 4.74482 16.9979 5.00024 17.4063 5.64827ZM14.2084 7.44868C14.4308 7.94547 14.8081 8.2758 15.3426 8.35239C16.4289 8.50803 17.264 7.67157 17.1031 6.58462C16.9892 5.81574 16.1692 5.11115 15.2852 5.38161C14.3098 5.68003 14.0042 6.2493 14.2084 7.44868Z" fill="#374151"/>
<path d="M12.813 13.7799C13.3745 12.4062 15.1652 12.4424 15.7703 13.5318C16.0791 14.0877 16.0646 14.87 15.655 15.3993C15.244 15.9303 14.5658 16.1065 13.9174 15.9495C12.8625 15.6939 12.5472 14.642 12.813 13.7799ZM13.4624 14.8314C13.7918 15.3855 14.2707 15.5317 14.8032 15.2408C15.3305 14.9527 15.497 14.4624 15.2421 13.9482C15.0077 13.4753 14.4702 13.2389 14.0416 13.42C13.4417 13.6735 13.2135 14.1851 13.4624 14.8314Z" fill="#374151"/>
</g>
<defs>
<clipPath id="clip0_1055_51761">
<rect width="20" height="20" fill="white"/>
</clipPath>
</defs>
</svg>
