<svg width="17" height="16" viewBox="0 0 17 16" fill="none" xmlns="http://www.w3.org/2000/svg">
<path d="M7.52907 6.33843C7.67111 5.93467 7.95145 5.59421 8.32045 5.37734C8.68946 5.16047 9.1233 5.0812 9.54515 5.15356C9.967 5.22592 10.3496 5.44524 10.6253 5.77268C10.9009 6.10012 11.0518 6.51454 11.0511 6.94255C11.0511 8.15081 9.23875 8.75493 9.23875 8.75493M9.26212 11.1732H9.27018M9.14128 15.2038C12.9255 15.2038 15.9932 12.1361 15.9932 8.35188C15.9932 4.56769 12.9255 1.5 9.14128 1.5C5.35709 1.5 2.2894 4.56769 2.2894 8.35188C2.2894 9.11768 2.41503 9.85413 2.6468 10.5418C2.73402 10.8005 2.77763 10.9299 2.7855 11.0293C2.79326 11.1275 2.78739 11.1963 2.76311 11.2917C2.73852 11.3883 2.68422 11.4888 2.57564 11.6898L1.25713 14.1303C1.06906 14.4784 0.975021 14.6525 0.996067 14.7868C1.0144 14.9038 1.08326 15.0069 1.18437 15.0685C1.30045 15.1393 1.49724 15.119 1.89081 15.0783L6.01889 14.6516C6.1439 14.6387 6.20641 14.6322 6.26338 14.6344C6.31941 14.6365 6.35897 14.6418 6.41361 14.6544C6.46917 14.6672 6.53903 14.6941 6.67876 14.7479C7.44299 15.0424 8.27329 15.2038 9.14128 15.2038Z" stroke="#121212" stroke-width="1.25" stroke-linecap="round" stroke-linejoin="round"/>
</svg>
