<svg width="20" height="20" viewBox="0 0 20 20" fill="none" xmlns="http://www.w3.org/2000/svg">
<g clip-path="url(#clip0_1055_51668)">
<path d="M1.24995 17.8906C0.390279 17.8906 0.390279 17.8906 0.390279 17.068C0.390279 12.9152 0.395309 8.76242 0.381846 4.60966C0.380614 4.22946 0.487552 4.12498 0.862818 4.13208C2.07259 4.155 3.28307 4.14062 4.34575 4.14062C4.90335 3.38352 5.32842 2.63173 5.91754 2.04452C6.99041 0.975147 8.31585 0.415863 9.86783 0.379018C11.2395 0.346455 12.4628 0.698301 13.5819 1.48028C14.4497 2.08669 15.0713 2.88753 15.5091 3.83686C15.6125 4.06101 15.7195 4.1537 15.9837 4.14902C17.1029 4.12921 18.2228 4.14969 19.3421 4.13473C19.6511 4.13059 19.7741 4.19529 19.7731 4.5418C19.7611 8.86381 19.762 13.1859 19.772 17.5079C19.7727 17.8309 19.6608 17.9111 19.3626 17.8961C18.936 17.8746 18.5075 17.8906 18.0655 17.8906C18.2027 18.3127 18.334 18.7168 18.4697 19.1341C18.6752 19.1341 18.8818 19.1341 19.1143 19.1341C19.1143 19.3358 19.1143 19.5244 19.1143 19.74C13.1032 19.74 7.07236 19.74 1.02839 19.74C1.02839 19.5534 1.02839 19.3744 1.02839 19.1627C1.23369 19.1627 1.4481 19.1627 1.67522 19.1627C1.81785 18.7269 1.95214 18.3165 2.09149 17.8906C1.80811 17.8906 1.54797 17.8906 1.24995 17.8906ZM14.5748 10.3094C13.7095 11.2252 12.6821 11.8548 11.4423 12.1375C11.2565 12.1798 11.0915 12.3581 10.941 12.4992C10.7347 12.6927 10.578 12.951 10.348 13.1028C10.2177 13.1889 9.94148 13.1859 9.80548 13.1021C9.58039 12.9634 9.42398 12.7177 9.22263 12.5347C9.0531 12.3806 8.87968 12.1732 8.67556 12.1241C7.30511 11.7941 6.17437 11.102 5.33048 9.97245C4.76062 9.20971 4.33737 8.37089 4.22096 7.40907C4.16588 6.95403 4.14021 6.49542 4.10096 6.03548C3.49636 6.03548 2.89183 6.03548 2.28505 6.03548C2.28505 9.36799 2.28505 12.6806 2.28505 15.9962C7.4923 15.9962 12.6798 15.9962 17.8709 15.9962C17.8709 12.6641 17.8709 9.35146 17.8709 6.03522C17.2468 6.03522 16.6422 6.03522 16.0998 6.03522C16.0005 6.72966 15.9508 7.40622 15.7985 8.05882C15.6043 8.89076 15.1232 9.59266 14.5748 10.3094ZM13.2277 10.5447C13.6685 10.0584 14.1748 9.61578 14.5353 9.07585C15.1316 8.18284 15.3621 7.17085 15.3231 6.07852C15.2726 4.66934 14.7198 3.48833 13.7323 2.54473C12.6392 1.50024 11.3113 0.992897 9.75813 1.08306C8.44239 1.15944 7.31899 1.65473 6.40891 2.55676C5.25604 3.69943 4.6916 5.09589 4.83072 6.761C4.88996 7.47013 5.07978 8.12607 5.39752 8.73808C6.06702 10.0276 7.10401 10.9016 8.50563 11.3327C8.9821 11.4792 9.50866 11.5451 9.80937 12.0314C9.88398 12.152 9.98413 12.2568 10.0881 12.3887C10.1585 12.2942 10.1885 12.2353 10.2346 12.195C10.508 11.9559 10.7508 11.5978 11.0679 11.5093C11.8277 11.2972 12.5459 11.0384 13.2277 10.5447ZM18.6267 17.2656C18.7912 17.2656 18.9556 17.2656 19.1196 17.2656C19.1196 13.0784 19.1196 8.93229 19.1196 4.78191C18.0227 4.78191 16.9465 4.78191 15.8534 4.78191C15.8952 4.9938 15.9332 5.18672 15.9734 5.39062C16.6886 5.39062 17.391 5.40353 18.0926 5.3847C18.403 5.37637 18.5245 5.44686 18.5232 5.79247C18.5102 9.28188 18.5125 12.7714 18.5204 16.2608C18.5211 16.5435 18.448 16.6467 18.1489 16.6463C12.7715 16.6385 7.39404 16.6387 2.01664 16.6458C1.72979 16.6462 1.63395 16.5656 1.63468 16.2707C1.64337 12.7683 1.64327 9.26579 1.6348 5.76333C1.6341 5.47196 1.72287 5.3779 2.01395 5.38488C2.74036 5.4023 3.46747 5.39062 4.18635 5.39062C4.22666 5.17612 4.26127 4.99199 4.29994 4.78622C3.20426 4.78622 2.12016 4.78622 1.03606 4.78622C1.03606 8.95299 1.03606 13.0991 1.03606 17.2656C6.88776 17.2656 12.7187 17.2656 18.6267 17.2656ZM10.1168 17.8906C8.18866 17.8906 6.26048 17.8906 4.31346 17.8906C4.45729 18.3291 4.58896 18.7306 4.71875 19.1263C8.30877 19.1263 11.882 19.1263 15.4392 19.1263C15.5745 18.7078 15.7041 18.3068 15.8387 17.8906C13.9396 17.8906 12.0673 17.8906 10.1168 17.8906ZM2.49965 18.9438C2.48464 19.0052 2.46962 19.0667 2.45497 19.1267C2.9529 19.1267 3.45104 19.1267 3.96257 19.1267C3.82528 18.7087 3.69345 18.3073 3.5614 17.9053C3.3109 17.9053 3.06755 17.9053 2.85523 17.9053C2.73222 18.2451 2.61738 18.5624 2.49965 18.9438ZM16.5629 17.9879C16.4405 18.3676 16.3181 18.7472 16.1961 19.1256C16.7039 19.1256 17.2015 19.1256 17.7119 19.1256C17.5746 18.7072 17.443 18.3063 17.3031 17.8802C17.06 17.8935 16.817 17.9068 16.5629 17.9879Z" fill="#374151"/>
<path d="M6.34377 4.6644C5.88887 4.31772 5.91108 3.98788 6.31312 3.63674C6.73352 3.26955 7.10769 2.84958 7.50411 2.45473C7.78329 2.17665 7.99955 2.18049 8.28681 2.46634C8.63731 2.81513 8.97743 3.17492 9.33853 3.51231C9.61054 3.76646 9.83493 4.01134 9.78109 4.43475C9.76412 4.56817 9.93279 4.7252 10.0112 4.86207C10.4267 4.70308 10.4262 4.39615 10.3857 4.10141C10.2817 3.34471 10.9851 2.44051 11.7065 2.32882C12.0753 2.2717 12.4679 2.28472 12.8379 2.34219C13.1648 2.39298 13.2385 2.71637 13.0149 2.96152C12.8575 3.13418 12.6659 3.27826 12.5239 3.46171C12.3879 3.63745 12.2963 3.84753 12.1742 4.06179C12.5527 4.21795 12.7563 4.11674 12.9422 3.89869C13.1018 3.71134 13.2798 3.5373 13.4644 3.37403C13.6935 3.17139 13.9723 3.25616 14.0659 3.55787C14.4702 4.86083 13.5341 6.0634 12.3571 6.01948C12.144 6.01154 11.9293 6.05041 11.7153 6.06767C11.7073 6.10839 11.6994 6.1491 11.6915 6.18981C12.3236 6.82015 12.9479 7.45866 13.59 8.07871C14.3525 8.815 14.3577 8.84721 13.5854 9.5802C13.359 9.79503 13.1408 10.0186 12.9211 10.2403C12.6845 10.4792 12.4572 10.4666 12.2237 10.2319C11.5536 9.55861 10.8806 8.88821 10.208 8.21741C10.1184 8.12813 10.0246 8.04317 9.83509 7.86369C9.80524 8.16096 9.74691 8.36472 9.77211 8.55756C9.87103 9.31434 9.1748 10.2022 8.44779 10.3326C8.10995 10.3932 7.75127 10.4164 7.41257 10.3734C7.00164 10.3213 6.90614 9.94023 7.1955 9.64193C7.34035 9.49261 7.50784 9.36116 7.63136 9.19634C7.76505 9.01798 7.85944 8.81017 7.98208 8.59578C7.60423 8.43915 7.40033 8.53879 7.21435 8.75732C7.05482 8.94476 6.87671 9.11863 6.69225 9.28206C6.46233 9.48577 6.18366 9.40215 6.08991 9.10007C5.68561 7.79722 6.61969 6.5976 7.79741 6.63775C8.33805 6.65618 8.33857 6.64085 8.59142 6.33052C8.46589 6.0576 8.24411 6.00601 7.96186 6.00419C7.80579 6.00318 7.61829 5.91838 7.50074 5.81055C7.10797 5.45023 6.74037 5.06249 6.34377 4.6644ZM13.1889 4.66865C13.0841 4.70107 12.9803 4.75857 12.8746 4.76207C11.615 4.80375 11.6112 4.80154 11.6461 3.5468C11.6496 3.42025 11.7328 3.29591 11.8139 3.14067C11.8242 3.11447 11.8344 3.08828 11.8447 3.06208C11.8007 3.08106 11.7567 3.10004 11.6573 3.12505C11.2121 3.38662 10.9955 3.79555 11.1082 4.28149C11.2135 4.7358 11.0283 5.00209 10.7216 5.2578C10.676 5.29589 10.6462 5.35314 10.6117 5.39813C10.9952 5.8175 10.9943 5.81657 11.3826 5.45407C11.5419 5.30533 11.6808 5.21507 11.9478 5.29335C12.5208 5.46132 13.0587 5.18696 13.3312 4.67834C13.3344 4.63618 13.3375 4.59402 13.3407 4.55186C13.3063 4.57646 13.272 4.60106 13.1889 4.66865ZM6.9668 7.98813C7.07153 7.95572 7.17543 7.89822 7.28111 7.89472C8.54072 7.85304 8.54452 7.85525 8.50961 9.10999C8.50609 9.23654 8.42286 9.36088 8.34181 9.51612C8.33152 9.54232 8.32124 9.56851 8.31095 9.59471C8.35499 9.57573 8.39902 9.55674 8.4984 9.53173C9.02485 9.238 9.1516 8.74549 9.04297 8.21956C8.98637 7.94556 9.05183 7.79161 9.21497 7.62088C9.57263 7.24661 9.56021 7.16379 9.07738 6.85998C9.03484 6.91473 8.98885 6.97811 8.93856 7.03789C8.71669 7.30166 8.48887 7.43592 8.09226 7.36174C7.48182 7.24757 7.08689 7.4917 6.82448 7.97845C6.82132 8.02061 6.81816 8.06277 6.815 8.10493C6.84934 8.08033 6.88368 8.05573 6.9668 7.98813ZM7.77772 3.20058C7.46792 3.50897 7.15812 3.81737 6.82234 4.15162C7.17464 4.49614 7.51009 4.80129 7.81695 5.1329C7.99853 5.32912 8.18663 5.41169 8.45565 5.40227C8.5987 5.39726 8.77634 5.47563 8.88552 5.57464C9.23844 5.89465 9.56687 6.24166 9.88208 6.55569C10.0416 6.41388 10.1813 6.28961 10.3485 6.14102C9.99212 5.79445 9.64373 5.46585 9.30968 5.12328C9.22891 5.04045 9.13462 4.90094 9.15103 4.80545C9.21794 4.41607 9.01727 4.17991 8.75613 3.94685C8.50482 3.72258 8.28079 3.46798 8.03519 3.2369C7.98355 3.18831 7.89015 3.18409 7.77772 3.20058ZM10.4255 7.41966C11.135 8.13426 11.8445 8.84887 12.527 9.53625C12.7937 9.26587 13.0259 9.03051 13.2108 8.8431C12.4749 8.10719 11.7191 7.35149 10.936 6.56842C10.7797 6.73501 10.5863 6.92641 10.4139 7.13519C10.3705 7.18772 10.3945 7.2959 10.4255 7.41966Z" fill="#374151"/>
</g>
<defs>
<clipPath id="clip0_1055_51668">
<rect width="20" height="20" fill="white"/>
</clipPath>
</defs>
</svg>
