<svg width="32" height="32" viewBox="0 0 32 32" fill="none" xmlns="http://www.w3.org/2000/svg">
<g clip-path="url(#clip0_954_59717)">
<path d="M32.0623 10.5963C31.8636 10.8664 31.6097 10.9709 31.2958 10.9626C30.8899 10.952 30.4832 10.9687 30.0774 10.956C29.8497 10.9489 29.7599 11.0259 29.7675 11.2609C29.7813 11.6874 29.7739 12.1147 29.7698 12.5417C29.766 12.9434 29.5171 13.1996 29.1097 13.2076C28.6621 13.2165 28.2139 13.2182 27.7664 13.2059C27.5401 13.1997 27.4476 13.2719 27.4552 13.5089C27.4694 13.9458 27.4628 14.3836 27.4577 14.8209C27.4529 15.2264 27.2235 15.4538 26.8138 15.4586C26.366 15.4637 25.9179 15.4689 25.4704 15.4558C25.2337 15.4489 25.1292 15.5162 25.1417 15.773C25.1605 16.1574 25.1323 16.5441 25.15 16.9286C25.1687 17.334 25.0385 17.6183 24.6211 17.7264C24.5759 17.738 24.5382 17.7785 24.4823 17.8154C25.5354 18.7583 26.4435 19.8176 27.4878 20.7393C27.8998 21.1028 28.3147 21.4762 28.6223 21.9371C29.5153 23.2752 28.8236 25.1392 27.1788 25.4606C26.3046 25.6314 25.5775 25.3755 24.9384 24.7614C23.8204 23.6872 22.7283 22.5869 21.6139 21.5096C21.2817 21.1885 20.9484 20.8593 20.5633 20.5379C20.4832 20.8558 20.5279 21.1442 20.5231 21.4281C20.5128 22.0326 20.2773 22.2712 19.6696 22.2718C19.2738 22.2722 18.878 22.2773 18.4824 22.2701C18.2818 22.2664 18.2004 22.3471 18.2073 22.5486C18.2169 22.8294 18.1787 23.1149 18.2152 23.3913C18.3051 24.0711 17.9583 24.5195 17.4647 24.8954C17.3524 24.9809 17.3236 25.0495 17.3766 25.1804C17.8194 26.2738 17.522 27.2913 16.984 28.2455C16.3994 29.2825 15.6094 30.1627 14.7057 30.9409C13.9944 31.5535 12.9566 31.5675 12.2522 30.9556C11.8547 30.6102 11.4213 30.2953 11.1214 29.8566C10.6808 29.2121 10.678 28.4905 11.0829 27.6442C10.1635 26.7734 9.29703 25.8366 8.36448 24.9632C8.00356 24.6251 7.74116 24.4882 7.23058 24.6809C6.50786 24.9536 5.82201 24.6967 5.24969 24.1907C4.73351 23.7344 4.25183 23.2428 4.04282 22.5613C3.82433 21.8488 4.13088 21.2595 4.59368 20.7754C5.501 19.8261 6.49743 18.9783 7.7202 18.4463C8.53452 18.092 9.37704 17.9372 10.2276 18.2797C10.6238 18.4392 10.8158 18.1762 11.0369 17.9907C12.2669 16.9591 13.4841 15.9121 14.7463 14.8357C14.3333 14.4194 13.9524 13.9946 13.5285 13.6183C12.9906 13.1409 12.4889 12.6285 11.9847 12.1181C11.8329 11.9644 11.6996 11.8925 11.4688 11.9481C11.0891 12.0395 10.6968 12.075 10.3029 12.0304C10.2273 12.0219 10.1601 12.0419 10.108 12.1048C9.69788 12.5993 9.26241 13.0756 9.00586 13.6783C8.92866 13.8597 8.92881 14.0093 9.0278 14.2026C9.81548 15.7414 8.84609 17.514 7.07583 17.5854C6.32029 17.6159 5.70244 17.3169 5.17651 16.8048C4.63935 16.2817 4.1329 15.726 3.58089 15.2195C2.66817 14.3822 1.81541 13.4851 0.925795 12.6252C0.561456 12.273 0.244191 11.9002 0.0725711 11.3938C0.0623282 10.9777 0.0623282 10.5806 0.0776622 10.139C0.105695 10.0781 0.124519 10.0634 0.130219 10.0447C0.511925 8.79448 2.01501 8.1103 3.19908 8.67493C3.71057 8.91885 4.08213 8.77521 4.48682 8.53203C4.6915 8.40904 4.89271 8.27844 5.08486 8.13686C5.42996 7.88258 5.77542 7.63505 5.67769 7.10688C5.64359 6.92259 5.70403 6.71556 5.74397 6.52363C6.0968 4.82837 7.0848 3.65687 8.68244 3.00266C9.24361 2.77288 9.84073 2.67841 10.442 2.70347C10.663 2.71268 10.8069 2.68306 10.9646 2.53319C11.7141 1.821 12.5942 1.3108 13.5735 1.00082C14.8085 0.609851 16.0606 0.619782 17.31 0.974608C18.5784 1.33486 19.705 1.95272 20.7024 2.81176C20.92 2.99917 21.0545 3.22157 20.9836 3.51762C20.8691 3.99512 20.5431 4.18345 20.0364 4.05088C19.6888 3.95996 19.3472 3.92636 18.992 3.99999C17.5964 4.28929 16.4776 5.08792 15.3752 5.92877C15.1319 6.11434 15.1182 6.3035 15.1578 6.56858C15.2472 7.16592 15.2662 7.76922 15.1248 8.36159C15.0826 8.53848 15.1059 8.65267 15.233 8.77635C16.2097 9.72642 17.1841 10.6788 18.1526 11.6372C18.2988 11.7819 18.3902 11.7689 18.5393 11.6369C19.0201 11.2115 19.5155 10.8028 20.0069 10.3896C20.7205 9.78951 21.4377 9.19355 22.1493 8.59113C22.7897 8.049 23.423 7.49844 24.0629 6.95562C24.513 6.57374 24.9707 6.20084 25.4217 5.81992C26.1025 5.24477 26.7696 4.65262 27.4638 4.09419C27.8609 3.77479 28.3103 3.86666 28.5847 4.29715C29.042 5.01455 29.4816 5.74324 29.9277 6.46776C30.6397 7.62405 31.3508 8.78082 32.0623 9.93739C32.0623 10.1475 32.0623 10.3575 32.0623 10.5963ZM13.0236 20.7588C14.1697 21.7947 15.2211 22.9298 16.3349 23.9869C16.6715 23.7592 16.8258 23.506 16.7983 23.1243C16.7661 22.6789 16.7815 22.229 16.7944 21.7816C16.8101 21.2325 17.0253 20.862 17.6648 20.9103C18.0376 20.9384 18.4154 20.8969 18.7888 20.9211C19.1008 20.9412 19.1855 20.817 19.1706 20.5246C19.1501 20.1195 19.1626 19.7126 19.1667 19.3065C19.1708 18.8943 19.3906 18.6717 19.8024 18.6669C20.2605 18.6616 20.7191 18.6559 21.1769 18.6688C21.4122 18.6754 21.4883 18.5835 21.4812 18.3567C21.4688 17.9614 21.5072 17.5627 21.4707 17.1703C21.423 16.657 21.8007 16.3417 22.2972 16.3516C22.7032 16.3597 23.1096 16.3465 23.5155 16.355C23.7163 16.3592 23.7969 16.2828 23.7926 16.0803C23.7843 15.6848 23.7907 15.2889 23.7917 14.8932C23.7932 14.332 24.0214 14.1059 24.5922 14.1033C24.9983 14.1014 25.4046 14.0955 25.8105 14.1058C26.0239 14.1112 26.1113 14.0353 26.1057 13.8163C26.095 13.4 26.1007 12.9833 26.1038 12.5667C26.1072 12.0958 26.3435 11.8579 26.8131 11.8542C27.2505 11.8506 27.688 11.8458 28.1252 11.856C28.3406 11.8611 28.4233 11.7817 28.4183 11.5646C28.4081 11.1275 28.4091 10.6898 28.4185 10.2526C28.4274 9.83468 28.6693 9.60634 29.0882 9.60343C29.4265 9.60108 29.7649 9.60295 30.1833 9.60295C29.3568 8.25718 28.5765 6.9866 27.7732 5.67862C22.3682 10.2526 17.0096 14.7873 11.5691 19.3913C12.0826 19.8738 12.5367 20.3003 13.0236 20.7588ZM13.2554 9.22063C13.3521 8.99053 13.5137 8.79749 13.6084 8.56307C13.9231 7.78444 13.9019 7.00761 13.6446 6.22239C13.5386 5.89904 13.5888 5.59645 13.8483 5.36706C14.6659 4.6444 15.5356 3.99263 16.498 3.47085C16.9787 3.2102 17.4778 2.98884 17.9916 2.79485C17.9686 2.74789 17.9638 2.72559 17.9501 2.71307C17.9273 2.69231 17.9006 2.67415 17.8726 2.66125C16.8635 2.19642 15.823 1.97773 14.7054 2.17474C13.4598 2.39431 12.4616 3.04897 11.5596 3.88453C11.4109 4.0223 11.2683 4.08849 11.0658 4.0891C10.6419 4.09039 10.2192 4.06382 9.79423 4.14576C8.76855 4.34356 8.0191 4.92123 7.48651 5.79052C7.09123 6.43567 7.04226 7.1624 7.08493 7.89839C7.09617 8.09221 7.08136 8.28082 6.92934 8.41588C6.61986 8.69083 6.29425 8.94774 5.98694 9.22501C5.66241 9.51781 5.25326 9.68576 4.88858 9.97334C5.80562 10.9904 6.86828 11.8288 7.80635 12.8571C8.23746 12.1278 8.70959 11.489 9.29076 10.9324C9.467 10.7636 9.63033 10.6552 9.88243 10.6613C10.3794 10.6733 10.8794 10.6949 11.365 10.5442C12.1209 10.3096 12.7451 9.88534 13.2554 9.22063ZM16.1592 26.4952C16.2315 26.0247 16.0817 25.6573 15.7151 25.3376C15.2307 24.9151 14.7808 24.4522 14.3152 24.0083C12.9148 22.6729 11.5422 21.3077 10.1836 19.9295C9.78688 19.527 9.35975 19.4602 8.8512 19.5663C8.22604 19.6967 7.69995 20.0241 7.18767 20.3819C6.62398 20.7756 6.11574 21.2331 5.65049 21.7377C5.32613 22.0895 5.33038 22.2323 5.66072 22.5804C5.84704 22.7767 6.04448 22.9624 6.23263 23.157C6.46941 23.4019 6.74682 23.4087 7.03423 23.2837C7.17519 23.2224 7.29892 23.1211 7.42964 23.0367C7.85076 22.7647 8.15588 22.7877 8.51728 23.13C9.12876 23.709 9.70755 24.3206 10.3293 24.8909C11.0729 25.573 11.7649 26.3115 12.4775 27.0272C12.7728 27.3238 12.7997 27.6548 12.563 28.0091C12.517 28.078 12.4692 28.1459 12.4196 28.2122C12.1112 28.6237 12.1233 28.9266 12.4832 29.2831C12.6669 29.4651 12.872 29.6252 13.0656 29.7973C13.3784 30.0753 13.5662 30.0844 13.8696 29.7901C14.2495 29.4216 14.6331 29.0577 14.9691 28.6434C15.4831 28.0093 15.9535 27.3578 16.1592 26.4952ZM7.45106 16.0503C7.99388 15.6391 8.04291 15.2903 7.67517 14.7223C7.52728 14.4938 7.29411 14.3738 7.11635 14.1883C5.81243 12.8276 4.41538 11.5616 3.09186 10.2209C3.0626 10.1912 3.0335 10.1613 3.0023 10.1337C2.63718 9.81154 2.0779 9.79852 1.71342 10.1032C1.35031 10.4068 1.3198 10.8377 1.61193 11.3005C1.79485 11.5903 2.08905 11.7595 2.31967 11.9958C3.59944 13.3069 4.93489 14.5611 6.24221 15.844C6.63699 16.2314 6.90421 16.2853 7.45106 16.0503ZM26.764 22.017C25.4837 20.7685 24.2035 19.52 22.9232 18.2716C22.8934 18.2872 22.8635 18.3028 22.8337 18.3185C22.8337 18.6576 22.8324 18.9968 22.8341 19.336C22.8357 19.6443 22.6689 19.8351 22.4052 19.9593C22.3337 19.993 22.26 20.0222 22.1496 20.0696C22.6137 20.5222 23.0496 20.9476 23.4961 21.3647C24.3693 22.1803 25.1616 23.0795 26.0625 23.8677C26.4703 24.2245 26.9883 24.1919 27.3958 23.7768C27.7033 23.4636 27.6732 22.9353 27.3248 22.5778C27.1505 22.3991 26.9719 22.2246 26.764 22.017ZM16.6036 12.1137C15.8884 11.4149 15.2223 10.6632 14.4061 10.0393C14.0816 10.5418 13.6603 10.9177 13.1778 11.2687C14.0267 12.1574 14.879 12.9903 15.7583 13.7961C15.8327 13.8643 15.9112 13.8549 15.983 13.7942C16.3914 13.4495 16.7985 13.1032 17.2572 12.7141C17.0316 12.5083 16.8333 12.3272 16.6036 12.1137Z" fill="#286FFF"/>
<path d="M11.694 22.8676C12.4987 23.5312 13.1689 24.3018 13.9058 25.0033C14.2048 25.2881 14.2286 25.7725 13.9793 26.0401C13.7294 26.3083 13.2605 26.2923 12.9457 26.0248C12.2395 25.4246 11.6287 24.7274 10.9599 24.0895C10.532 23.6813 10.0993 23.2781 9.66985 22.8715C9.4943 22.7053 9.33529 22.5177 9.30083 22.2745C9.26136 21.996 9.31228 21.7325 9.59069 21.576C9.90099 21.4015 10.2481 21.4322 10.5086 21.6832C10.9052 22.0655 11.2889 22.4613 11.694 22.8676Z" fill="#286FFF"/>
</g>
<defs>
<clipPath id="clip0_954_59717">
<rect width="32" height="32" fill="white"/>
</clipPath>
</defs>
</svg>
