<svg width="20" height="20" viewBox="0 0 20 20" fill="none" xmlns="http://www.w3.org/2000/svg">
<g clip-path="url(#clip0_1055_51510)">
<path d="M20.0391 6.62254C19.9149 6.79138 19.7562 6.85669 19.56 6.85153C19.3063 6.84486 19.0521 6.85531 18.7985 6.84737C18.6562 6.84292 18.6001 6.89108 18.6048 7.03792C18.6134 7.3045 18.6088 7.57159 18.6063 7.83844C18.6039 8.08953 18.4483 8.24961 18.1937 8.25464C17.9139 8.26017 17.6338 8.26124 17.3541 8.25356C17.2127 8.24968 17.1548 8.29484 17.1596 8.44292C17.1685 8.71601 17.1644 8.98963 17.1612 9.26297C17.1582 9.51638 17.0148 9.65853 16.7587 9.66148C16.4789 9.6647 16.1988 9.66793 15.9191 9.65977C15.7712 9.65546 15.7059 9.69749 15.7137 9.85802C15.7254 10.0983 15.7078 10.3399 15.7189 10.5803C15.7305 10.8336 15.6492 11.0113 15.3883 11.0788C15.3601 11.0862 15.3365 11.1114 15.3015 11.1345C15.9598 11.7238 16.5273 12.3859 17.18 12.9619C17.4375 13.1891 17.6968 13.4225 17.8891 13.7106C18.4472 14.5469 18.0149 15.7119 16.9869 15.9127C16.4405 16.0195 15.986 15.8595 15.5866 15.4757C14.8879 14.8044 14.2053 14.1167 13.5088 13.4434C13.3012 13.2427 13.0928 13.037 12.8522 12.836C12.8021 13.0348 12.8301 13.215 12.827 13.3925C12.8206 13.7703 12.6735 13.9194 12.2936 13.9198C12.0463 13.92 11.7989 13.9232 11.5516 13.9187C11.4262 13.9164 11.3754 13.9668 11.3797 14.0927C11.3857 14.2683 11.3618 14.4467 11.3846 14.6194C11.4408 15.0443 11.2241 15.3246 10.9156 15.5595C10.8454 15.613 10.8274 15.6558 10.8605 15.7376C11.1372 16.421 10.9514 17.0569 10.6151 17.6533C10.2498 18.3014 9.75598 18.8516 9.19118 19.338C8.7466 19.7208 8.09797 19.7296 7.65778 19.3471C7.4093 19.1313 7.13842 18.9344 6.95099 18.6602C6.67564 18.2575 6.6739 17.8064 6.92695 17.2775C6.35229 16.7332 5.81076 16.1477 5.22792 15.6018C5.00235 15.3906 4.83835 15.305 4.51923 15.4254C4.06754 15.5959 3.63888 15.4353 3.28118 15.1191C2.95856 14.8339 2.65751 14.5266 2.52689 14.1007C2.39033 13.6554 2.58192 13.2871 2.87117 12.9845C3.43825 12.3912 4.06102 11.8613 4.82524 11.5288C5.3342 11.3073 5.86077 11.2107 6.39236 11.4247C6.63998 11.5244 6.76002 11.36 6.8982 11.2441C7.66693 10.5993 8.42766 9.94496 9.21654 9.27221C8.95841 9.01199 8.72038 8.74651 8.45543 8.51135C8.11922 8.21293 7.8057 7.89267 7.49057 7.57367C7.39571 7.47765 7.31235 7.43268 7.16813 7.46742C6.9308 7.52459 6.68561 7.54674 6.43945 7.5189C6.3922 7.51356 6.3502 7.52604 6.31761 7.56535C6.0613 7.87447 5.78913 8.1721 5.62878 8.54882C5.58053 8.66219 5.58063 8.75566 5.6425 8.87652C6.1348 9.83823 5.52893 10.9461 4.42252 10.9908C3.9503 11.0098 3.56414 10.8229 3.23544 10.5029C2.89971 10.1759 2.58318 9.82861 2.23818 9.51209C1.66773 8.98875 1.13475 8.42805 0.578744 7.8906C0.351032 7.67049 0.152741 7.43751 0.045479 7.121C0.0390772 6.86096 0.0390772 6.61275 0.0486609 6.33676C0.0661816 6.29867 0.0779467 6.2895 0.0815089 6.27784C0.320075 5.49643 1.25951 5.06882 1.99954 5.42171C2.31923 5.57416 2.55145 5.48438 2.80439 5.3324C2.93231 5.25553 3.05807 5.1739 3.17816 5.08541C3.39385 4.92649 3.60976 4.77178 3.54868 4.44168C3.52737 4.3265 3.56514 4.1971 3.59011 4.07715C3.81062 3.01761 4.42812 2.28542 5.42665 1.87654C5.77738 1.73293 6.15058 1.67388 6.52638 1.68955C6.6645 1.6953 6.75445 1.67679 6.85301 1.58312C7.32141 1.138 7.87152 0.819127 8.48353 0.625392C9.25546 0.381035 10.038 0.387242 10.8189 0.609008C11.6116 0.834165 12.3157 1.22033 12.9391 1.75723C13.0751 1.87436 13.1592 2.01336 13.1148 2.19839C13.0433 2.49683 12.8396 2.61453 12.5229 2.53168C12.3056 2.47485 12.0921 2.45385 11.8701 2.49987C10.9979 2.68068 10.2986 3.17983 9.6096 3.70536C9.45754 3.82134 9.44897 3.93957 9.47375 4.10524C9.5296 4.47858 9.54152 4.85564 9.45312 5.22587C9.42672 5.33643 9.44132 5.4078 9.52078 5.4851C10.1312 6.07889 10.7402 6.67411 11.3455 7.27311C11.4369 7.36354 11.494 7.35542 11.5872 7.27293C11.8877 7.00709 12.1973 6.75166 12.5045 6.49339C12.9505 6.11832 13.3987 5.74585 13.8434 5.36933C14.2437 5.03051 14.6395 4.6864 15.0394 4.34714C15.3207 4.10847 15.6068 3.8754 15.8887 3.63733C16.3142 3.27786 16.7311 2.90777 17.165 2.55874C17.4132 2.35912 17.6941 2.41654 17.8656 2.6856C18.1514 3.13397 18.4261 3.5894 18.705 4.04223C19.1499 4.76491 19.5944 5.48789 20.0391 6.21074C20.0391 6.34205 20.0391 6.47335 20.0391 6.62254ZM8.13987 12.9741C8.85616 13.6216 9.5133 14.331 10.2094 14.9917C10.4198 14.8494 10.5163 14.6912 10.499 14.4526C10.4789 14.1742 10.4886 13.893 10.4966 13.6134C10.5065 13.2702 10.641 13.0386 11.0406 13.0688C11.2736 13.0864 11.5098 13.0604 11.7431 13.0755C11.9381 13.0882 11.991 13.0105 11.9818 12.8278C11.9689 12.5746 11.9768 12.3202 11.9793 12.0664C11.9819 11.8088 12.1193 11.6697 12.3766 11.6667C12.663 11.6634 12.9495 11.6598 13.2357 11.6679C13.3828 11.672 13.4303 11.6146 13.4259 11.4728C13.4181 11.2257 13.4421 10.9765 13.4193 10.7313C13.3895 10.4105 13.6255 10.2134 13.9359 10.2196C14.1896 10.2247 14.4436 10.2164 14.6973 10.2217C14.8228 10.2244 14.8732 10.1766 14.8705 10.0501C14.8653 9.80285 14.8693 9.55544 14.87 9.30811C14.8709 8.95736 15.0135 8.81609 15.3702 8.81442C15.624 8.81323 15.878 8.80954 16.1317 8.816C16.2651 8.81941 16.3197 8.77196 16.3162 8.63508C16.3095 8.3749 16.3131 8.11443 16.315 7.85409C16.3171 7.55976 16.4648 7.41109 16.7583 7.40873C17.0317 7.40653 17.3051 7.40351 17.5784 7.40991C17.713 7.41306 17.7647 7.36345 17.7615 7.22778C17.7552 6.95458 17.7558 6.68101 17.7617 6.40777C17.7673 6.14655 17.9185 6.00384 18.1802 6.00202C18.3917 6.00055 18.6032 6.00172 18.8647 6.00172C18.3481 5.16061 17.8604 4.3665 17.3584 3.54902C13.9803 6.40774 10.6311 9.24195 7.23084 12.1194C7.55178 12.421 7.83554 12.6876 8.13987 12.9741ZM8.28473 5.76277C8.34521 5.61896 8.44619 5.49831 8.5054 5.3518C8.70208 4.86515 8.68881 4.37964 8.52798 3.88887C8.46176 3.68678 8.49311 3.49766 8.65532 3.35429C9.16632 2.90263 9.70987 2.49527 10.3113 2.16916C10.6118 2.00626 10.9238 1.8679 11.2449 1.74666C11.2305 1.71731 11.2275 1.70337 11.2189 1.69555C11.2047 1.68257 11.188 1.67122 11.1705 1.66316C10.5398 1.37264 9.88948 1.23596 9.19097 1.35909C8.41248 1.49632 7.78865 1.90548 7.2249 2.42771C7.13195 2.51381 7.04283 2.55518 6.91623 2.55557C6.65133 2.55637 6.38709 2.53976 6.12151 2.59098C5.48047 2.7146 5.01206 3.07565 4.67919 3.61895C4.43214 4.02217 4.40154 4.47638 4.4282 4.93637C4.43523 5.05751 4.42597 5.17539 4.33096 5.2598C4.13753 5.43165 3.93403 5.59222 3.74196 5.76551C3.53913 5.94851 3.28341 6.05348 3.05549 6.23322C3.62864 6.86886 4.2928 7.39287 4.87909 8.03559C5.14854 7.57972 5.44362 7.18048 5.80684 6.83262C5.91699 6.72713 6.01908 6.65935 6.17664 6.66316C6.48726 6.67068 6.79977 6.68421 7.10324 6.59001C7.57571 6.44336 7.96579 6.17822 8.28473 5.76277ZM10.0996 16.5594C10.1448 16.2653 10.0512 16.0357 9.82208 15.8359C9.51929 15.5718 9.23811 15.2825 8.94713 15.0051C8.07187 14.1704 7.21397 13.3172 6.36489 12.4558C6.11692 12.2043 5.84997 12.1625 5.53212 12.2288C5.1414 12.3103 4.81259 12.5149 4.49241 12.7386C4.14011 12.9847 3.82246 13.2706 3.53168 13.5859C3.32895 13.8058 3.33161 13.8951 3.53807 14.1126C3.65452 14.2353 3.77792 14.3514 3.89552 14.473C4.0435 14.6261 4.21688 14.6303 4.39651 14.5522C4.48462 14.5139 4.56195 14.4506 4.64365 14.3978C4.90685 14.2278 5.09755 14.2422 5.32342 14.4561C5.7056 14.818 6.06734 15.2003 6.45594 15.5567C6.92071 15.983 7.35317 16.4446 7.79858 16.8919C7.98312 17.0772 7.99994 17.2842 7.852 17.5056C7.82323 17.5486 7.7934 17.5911 7.76235 17.6325C7.56964 17.8897 7.5772 18.079 7.80212 18.3018C7.91691 18.4155 8.04515 18.5156 8.16614 18.6232C8.36162 18.797 8.479 18.8026 8.6686 18.6187C8.90607 18.3884 9.14583 18.161 9.35578 17.902C9.67706 17.5057 9.97106 17.0985 10.0996 16.5594ZM4.65704 10.0313C4.9963 9.77429 5.02694 9.55634 4.7971 9.20129C4.70467 9.05851 4.55894 8.98351 4.44784 8.86758C3.63289 8.01716 2.75974 7.22585 1.93254 6.38793C1.91424 6.3694 1.89606 6.35066 1.87656 6.33345C1.64836 6.13209 1.29881 6.12395 1.07101 6.31439C0.844067 6.5041 0.824998 6.77344 1.00758 7.0627C1.12191 7.24383 1.30578 7.34957 1.44992 7.49725C2.24977 8.31671 3.08443 9.10056 3.9015 9.90237C4.14824 10.1445 4.31526 10.1782 4.65704 10.0313ZM16.7276 13.7605C15.9274 12.9802 15.1273 12.1999 14.3271 11.4196C14.3085 11.4294 14.2898 11.4391 14.2712 11.4489C14.2712 11.6609 14.2704 11.8729 14.2714 12.0849C14.2724 12.2776 14.1682 12.3968 14.0034 12.4744C13.9587 12.4955 13.9126 12.5137 13.8436 12.5434C14.1337 12.8262 14.4061 13.0921 14.6852 13.3528C15.2309 13.8625 15.7261 14.4246 16.2892 14.9172C16.5441 15.1402 16.8678 15.1198 17.1225 14.8604C17.3147 14.6646 17.2959 14.3345 17.0781 14.111C16.9692 13.9993 16.8576 13.8902 16.7276 13.7605ZM10.3774 7.57094C9.9304 7.13418 9.51408 6.66439 9.00391 6.27444C8.80111 6.58848 8.53783 6.82345 8.23627 7.04281C8.7668 7.59827 9.29952 8.11882 9.84904 8.62244C9.89559 8.66509 9.9446 8.65919 9.98952 8.62127C10.2447 8.40579 10.4992 8.18939 10.7859 7.94619C10.6449 7.81754 10.5209 7.70438 10.3774 7.57094Z" fill="#374151"/>
<path d="M7.30873 14.2921C7.81169 14.7069 8.23059 15.1885 8.6911 15.627C8.878 15.8049 8.89286 16.1077 8.73706 16.2749C8.58088 16.4426 8.28781 16.4326 8.09109 16.2654C7.6497 15.8902 7.26797 15.4545 6.84995 15.0558C6.58249 14.8007 6.31204 14.5487 6.04365 14.2946C5.93394 14.1907 5.83456 14.0734 5.81302 13.9215C5.78835 13.7474 5.82018 13.5827 5.99418 13.4849C6.18812 13.3758 6.40505 13.395 6.56785 13.5519C6.81578 13.7908 7.05559 14.0382 7.30873 14.2921Z" fill="#374151"/>
</g>
<defs>
<clipPath id="clip0_1055_51510">
<rect width="20" height="20" fill="white"/>
</clipPath>
</defs>
</svg>
