<svg width="11" height="10" viewBox="0 0 11 10" fill="none" xmlns="http://www.w3.org/2000/svg">
<path d="M6.04182 3.37897L6.59182 4.47897C6.66682 4.62897 6.86682 4.77897 7.03348 4.80397L8.02932 4.97064C8.66682 5.07897 8.81682 5.53731 8.35848 5.99564L7.58348 6.77481C7.45432 6.90397 7.37932 7.15814 7.42098 7.34147L7.64182 8.30397C7.81682 9.06231 7.41265 9.35814 6.74182 8.96231L5.80848 8.40814C5.63765 8.30814 5.36265 8.30814 5.19182 8.40814L4.25432 8.95814C3.58348 9.35397 3.17932 9.05814 3.35432 8.29981L3.57515 7.33731C3.61682 7.15814 3.54182 6.90397 3.41265 6.77064L2.64182 5.99981C2.18349 5.54147 2.33349 5.07897 2.97098 4.97481L3.96682 4.80814C4.13348 4.77897 4.33348 4.63314 4.40848 4.48314L4.95848 3.38314C5.25432 2.78314 5.74598 2.78314 6.04182 3.37897Z" fill="#22C55E"/>
<path d="M3 4.06217C2.82917 4.06217 2.6875 3.92051 2.6875 3.74967V0.833008C2.6875 0.662174 2.82917 0.520508 3 0.520508C3.17083 0.520508 3.3125 0.662174 3.3125 0.833008V3.74967C3.3125 3.92051 3.17083 4.06217 3 4.06217Z" fill="#22C55E"/>
<path d="M8 4.06217C7.82917 4.06217 7.6875 3.92051 7.6875 3.74967V0.833008C7.6875 0.662174 7.82917 0.520508 8 0.520508C8.17083 0.520508 8.3125 0.662174 8.3125 0.833008V3.74967C8.3125 3.92051 8.17083 4.06217 8 4.06217Z" fill="#22C55E"/>
<path d="M5.5 1.97884C5.32917 1.97884 5.1875 1.83717 5.1875 1.66634V0.833008C5.1875 0.662174 5.32917 0.520508 5.5 0.520508C5.67083 0.520508 5.8125 0.662174 5.8125 0.833008V1.66634C5.8125 1.83717 5.67083 1.97884 5.5 1.97884Z" fill="#22C55E"/>
</svg>
