<svg width="20" height="20" viewBox="0 0 20 20" fill="none" xmlns="http://www.w3.org/2000/svg">
<g clip-path="url(#clip0_1055_51839)">
<path d="M11.3701 0.078125C11.5563 0.347268 11.7063 0.616411 11.8853 0.937504C12.5525 0.937504 13.2929 0.934189 14.0333 0.939713C14.2313 0.94119 14.4494 0.916618 14.4586 1.23267C14.4662 1.49339 14.366 1.57063 14.1156 1.56673C13.3611 1.55499 12.6063 1.5625 11.8243 1.5625C11.8243 2.04279 11.8243 2.51759 11.8243 3.04688C12.4477 3.04688 13.0923 3.04688 13.7368 3.04688C14.7657 3.04688 14.7657 3.04688 14.7657 4.09196C14.7657 4.49552 14.7512 4.89977 14.7701 5.30245C14.7865 5.65134 14.6553 5.79269 14.2988 5.78621C13.492 5.77154 12.6847 5.78338 11.8776 5.78506C11.8661 5.78508 11.8547 5.79309 11.8201 5.806C11.8201 6.06205 11.8201 6.32827 11.8201 6.64062C12.2488 6.64062 12.6881 6.61683 13.1227 6.65204C13.3028 6.66664 13.6021 6.7829 13.6234 6.89538C13.6916 7.25471 13.7202 7.64881 13.6399 8.00119C13.5629 8.33929 13.2063 8.36192 12.8903 8.36101C11.5494 8.35716 10.2085 8.361 8.86763 8.35816C8.5584 8.35751 8.21934 8.36079 8.11434 7.98687C8.00402 7.594 7.92611 7.17618 8.22796 6.82618C8.31401 6.72641 8.48341 6.65559 8.61844 6.64886C9.05956 6.6269 9.50245 6.64063 9.97235 6.64063C9.97235 6.36836 9.97235 6.10214 9.97235 5.7824C9.14213 5.7824 8.28229 5.72055 7.44003 5.81513C7.1352 5.84936 6.8682 6.25333 6.5914 6.49705C6.09034 6.93822 5.59141 7.38201 5.10132 7.83522C5.03798 7.8938 5.00433 8.0148 5.00417 8.10696C4.99985 10.6325 5.00161 13.158 5.00368 15.6835C5.0037 15.7059 5.02166 15.7283 5.03768 15.7656C6.5734 15.7656 8.11543 15.7656 9.67205 15.7656C9.67205 15.5101 9.67205 15.2702 9.67205 15C9.34814 15 9.03882 15.0003 8.72951 14.9999C8.27518 14.9994 8.05413 14.782 8.04723 14.3278C8.04529 14.1998 8.04694 14.0716 8.04694 13.8892C7.70679 13.8892 7.37449 13.9439 7.06758 13.8789C6.19295 13.6934 5.65388 13.0944 5.57196 12.2398C5.50085 11.4981 5.43658 10.7261 5.69904 9.98421C5.92653 9.34118 6.59912 8.82911 7.27577 8.82877C10.2569 8.82727 13.2381 8.82731 16.2193 8.82864C17.0724 8.82902 17.8868 9.63824 17.8903 10.4855C17.8925 11.0453 17.8629 11.6068 17.8971 12.1645C17.9504 13.0342 17.0381 13.9064 16.1399 13.9064C15.3718 13.9065 14.6038 13.9081 13.8357 13.9095C13.8239 13.9095 13.812 13.9161 13.7998 13.9194C13.7844 13.9384 13.7548 13.9589 13.7564 13.9766C13.8316 14.8287 13.5674 15.0653 12.667 15.0017C12.4993 14.9898 12.3301 15 12.1356 15C12.1356 15.2491 12.1356 15.4894 12.1356 15.7645C12.2278 15.7694 12.3395 15.7804 12.4512 15.7805C14.0264 15.7816 15.6017 15.788 17.1768 15.7753C17.4753 15.7729 17.5901 15.8429 17.5853 16.1652C17.5674 17.3496 17.5794 18.5344 17.576 19.7191C17.5757 19.8183 17.5449 19.9175 17.5532 20.0474C12.9151 20.0781 8.25201 20.0781 3.57754 20.0516C3.46369 19.5551 3.53683 19.4537 3.99112 19.4536C8.16878 19.4528 12.3464 19.4531 16.5241 19.4531C16.6619 19.4531 16.7996 19.4531 16.9306 19.4531C16.9306 18.4126 16.9306 17.4177 16.9306 16.4062C16.7667 16.4062 16.6253 16.4062 16.4838 16.4062C12.6575 16.4062 8.83124 16.4051 5.00497 16.4075C4.41264 16.4079 4.36485 16.2852 4.36801 15.7708C4.38354 13.2461 4.37806 10.7212 4.37162 8.19639C4.37072 7.84468 4.40402 7.57648 4.72904 7.31361C5.45859 6.72358 6.11027 6.03825 6.82032 5.42247C6.99306 5.27267 7.26828 5.16963 7.4975 5.16752C9.57965 5.1483 11.662 5.15625 13.7444 5.15625C13.8697 5.15625 13.995 5.15625 14.1201 5.15625C14.1201 4.64076 14.1201 4.16654 14.1201 3.67189C11.6551 3.67189 9.21057 3.66855 6.76613 3.68021C6.61953 3.68091 6.44506 3.76982 6.33186 3.87147C5.63227 4.49967 4.9475 5.14433 4.25579 5.78134C3.91506 6.09513 3.59081 6.43258 3.21933 6.70511C2.98617 6.87615 2.88416 7.03789 2.88487 7.32835C2.89377 10.9333 2.89448 14.5384 2.88717 18.1434C2.88586 18.7883 2.8386 19.4332 2.81256 20.0781C2.65306 20.0781 2.49355 20.0781 2.32484 20.0474C2.29898 19.8785 2.26788 19.7404 2.26779 19.6022C2.2652 15.5176 2.27049 11.433 2.2588 7.34842C2.25753 6.90362 2.33597 6.5922 2.71965 6.2741C3.7188 5.44573 4.65431 4.53969 5.60174 3.65028C6.04571 3.2335 6.49682 2.96882 7.15977 3.02891C7.98552 3.10376 8.8232 3.04756 9.65573 3.04605C9.76723 3.04585 9.87871 3.03455 9.9752 3.02921C9.9752 2.52222 9.9752 2.04787 9.9752 1.5625C8.84573 1.5625 7.74108 1.56597 6.63646 1.56073C6.21714 1.55873 5.83777 1.52501 5.53899 1.97041C5.28592 2.34768 4.5838 2.27709 4.24046 1.9348C3.87865 1.57409 3.8535 0.979543 4.18476 0.618592C4.70625 0.0503725 5.50313 0.200331 5.8506 0.923889C7.23208 0.923889 8.60921 0.923889 9.90017 0.923889C10.0353 0.696563 10.1425 0.518405 10.2474 0.338895C10.2974 0.253296 10.3431 0.165129 10.3907 0.078125C10.7051 0.0781251 11.0195 0.0781251 11.3701 0.078125ZM6.31934 10.2046C6.03796 10.875 6.15435 11.5752 6.21783 12.256C6.26033 12.7116 6.55523 13.1068 7.03738 13.1926C7.55892 13.2853 8.09823 13.2782 8.6979 13.3193C8.565 13.0962 8.4837 12.9428 8.38642 12.8004C8.24584 12.5946 8.26326 12.394 8.4773 12.2909C8.6795 12.1935 8.87246 12.2699 8.98655 12.497C9.12053 12.7637 9.27287 13.0211 9.41651 13.2812C9.61538 13.2812 9.79728 13.2812 9.97917 13.2812C10.1657 13.2812 10.3523 13.2812 10.595 13.2812C10.4727 13.064 10.3465 12.9208 10.3146 12.7591C10.2866 12.6165 10.3131 12.3837 10.4066 12.3154C10.5493 12.2111 10.7808 12.1821 10.8671 12.4527C11.0974 13.1744 11.5918 13.4325 12.3206 13.2824C12.3658 13.2731 12.4147 13.2812 12.496 13.2812C12.3907 13.0732 12.2694 12.9036 12.2219 12.7154C12.1896 12.5876 12.2608 12.4337 12.2858 12.2915C12.446 12.3333 12.6563 12.3264 12.7551 12.428C12.9164 12.5937 12.9889 12.8422 13.1306 13.032C13.2108 13.1395 13.3483 13.2569 13.4707 13.27C13.7832 13.3036 14.1017 13.2812 14.4611 13.2812C14.3423 13.0853 14.2524 12.9366 14.162 12.7882C14.0513 12.6065 13.998 12.4101 14.2297 12.3028C14.4241 12.2128 14.6184 12.2165 14.7217 12.4892C14.9571 13.1105 15.3775 13.4448 16.0793 13.2816C16.0917 13.2787 16.1053 13.2818 16.1182 13.2811C16.7344 13.2481 17.2639 12.6949 17.2654 12.0809C17.2667 11.5865 17.2653 11.0922 17.2658 10.5978C17.2662 10.2171 17.1006 9.91969 16.8065 9.68882C16.3452 9.32657 15.7918 9.41919 15.2932 9.48752C15.0909 9.51526 14.9385 9.91886 14.7674 10.1544C14.7312 10.2041 14.7266 10.2989 14.6836 10.3174C14.5459 10.3764 14.3969 10.4094 14.2523 10.4524C14.2121 10.3149 14.1159 10.1643 14.1444 10.0428C14.191 9.84387 14.3186 9.66387 14.4177 9.46468C14.0167 9.46468 13.6205 9.46468 13.2456 9.46468C13.0945 9.73445 12.9462 9.98318 12.8141 10.2403C12.6989 10.4644 12.483 10.5603 12.315 10.4316C12.2166 10.3563 12.2357 10.0758 12.2665 9.89895C12.2926 9.74939 12.4118 9.61608 12.5022 9.45312C12.2921 9.45312 12.117 9.48261 11.9559 9.44761C11.4669 9.34139 11.2047 9.59198 11.0147 9.99121C10.9611 10.1037 10.9085 10.2424 10.8133 10.3028C10.6932 10.379 10.5008 10.4558 10.392 10.4095C10.2124 10.333 10.1666 10.1519 10.305 9.95773C10.4072 9.81445 10.4779 9.64877 10.5552 9.50679C9.81666 9.33132 9.22042 9.39877 8.976 10.2028C8.96548 10.2373 8.93752 10.2808 8.90701 10.2927C8.76045 10.3496 8.61022 10.397 8.4613 10.4478C8.42785 10.2929 8.3423 10.1263 8.37386 9.98611C8.41536 9.80172 8.54902 9.63807 8.64979 9.45312C8.25002 9.45312 7.87203 9.46993 7.49612 9.44916C6.94318 9.4186 6.57434 9.66999 6.31934 10.2046ZM10.7422 7.73438C11.5297 7.73438 12.3172 7.73438 13.1075 7.73438C13.1075 7.56181 13.1075 7.42635 13.1075 7.29008C11.6191 7.29008 10.1483 7.29008 8.6654 7.29008C8.67461 7.45162 8.68236 7.5874 8.69074 7.73438C9.36942 7.73438 10.0168 7.73438 10.7422 7.73438ZM10.8204 13.9062C10.1108 13.9062 9.40117 13.9062 8.68988 13.9062C8.68988 14.0794 8.68988 14.2149 8.68988 14.3501C10.1784 14.3501 11.649 14.3501 13.1317 14.3501C13.1225 14.1885 13.1147 14.0527 13.1063 13.9062C12.349 13.9062 11.6237 13.9062 10.8204 13.9062ZM10.6288 2.98424C10.7968 3.01196 10.9648 3.03968 11.1719 3.07385C11.1719 2.36139 11.1881 1.7006 11.1569 1.04205C11.1513 0.924414 10.9498 0.816047 10.8388 0.7034C10.7676 0.814386 10.6383 0.923508 10.6347 1.03667C10.6146 1.66051 10.6252 2.28533 10.6288 2.98424ZM10.3126 15.5768C10.3479 15.6443 10.3807 15.7689 10.4188 15.7705C10.7726 15.7856 11.1274 15.7794 11.4586 15.7794C11.4586 15.4859 11.4586 15.2476 11.4586 15.0217C11.0646 15.0217 10.6967 15.0217 10.3126 15.0217C10.3126 15.196 10.3126 15.349 10.3126 15.5768ZM10.629 6.57992C10.8044 6.60366 10.9798 6.6274 11.1505 6.65049C11.1505 6.3245 11.1505 6.06021 11.1505 5.80042C10.9683 5.80042 10.8079 5.80042 10.6253 5.80042C10.6253 6.04832 10.6253 6.27734 10.629 6.57992ZM5.10847 1.48995C5.12539 1.34632 5.19017 1.18267 5.14157 1.06642C5.1116 0.994725 4.84261 0.930304 4.79704 0.976691C4.69618 1.07934 4.66861 1.254 4.61115 1.39928C4.76269 1.44559 4.91422 1.49189 5.10847 1.48995Z" fill="#374151"/>
<path d="M7.75236 11.0158C10.4446 11.0158 13.1001 11.0158 15.7555 11.0158C15.8336 11.0158 15.9117 11.0167 15.9898 11.0157C16.2295 11.0129 16.3977 11.1434 16.3943 11.3659C16.3907 11.6026 16.1884 11.6445 15.9714 11.6438C14.2141 11.6385 12.4568 11.6408 10.6996 11.6408C9.65822 11.6408 8.61685 11.6447 7.57556 11.6374C7.37985 11.6361 7.09303 11.7455 7.10904 11.3634C7.12275 11.0361 7.35595 11.0199 7.59836 11.0159C7.6374 11.0153 7.67646 11.0158 7.75236 11.0158Z" fill="#374151"/>
</g>
<defs>
<clipPath id="clip0_1055_51839">
<rect width="20" height="20" fill="white"/>
</clipPath>
</defs>
</svg>
