<svg width="20" height="20" viewBox="0 0 20 20" fill="none" xmlns="http://www.w3.org/2000/svg">
<path d="M10.8335 7.5H5.8335" stroke="#121212" stroke-width="1.25" stroke-linecap="round" stroke-linejoin="round"/>
<path d="M18.3333 9.14196V10.8587C18.3333 11.317 17.9667 11.692 17.5 11.7086H15.8667C14.9667 11.7086 14.1417 11.0503 14.0667 10.1503C14.0167 9.62531 14.2167 9.13364 14.5667 8.79197C14.875 8.47531 15.3 8.29199 15.7667 8.29199H17.5C17.9667 8.30866 18.3333 8.68362 18.3333 9.14196Z" stroke="#121212" stroke-width="1.25" stroke-linecap="round" stroke-linejoin="round"/>
<path d="M14.5665 8.79198C14.2165 9.13365 14.0165 9.62532 14.0665 10.1503C14.1415 11.0503 14.9665 11.7086 15.8665 11.7086H17.4998V12.917C17.4998 15.417 15.8332 17.0837 13.3332 17.0837H5.83317C3.33317 17.0837 1.6665 15.417 1.6665 12.917V7.08366C1.6665 4.81699 3.03317 3.23366 5.15817 2.96699C5.37484 2.93366 5.59984 2.91699 5.83317 2.91699H13.3332C13.5498 2.91699 13.7582 2.92532 13.9582 2.95865C16.1082 3.20865 17.4998 4.80033 17.4998 7.08366V8.292H15.7665C15.2998 8.292 14.8748 8.47532 14.5665 8.79198Z" stroke="#121212" stroke-width="1.25" stroke-linecap="round" stroke-linejoin="round"/>
</svg>
