<svg width="32" height="32" viewBox="0 0 32 32" fill="none" xmlns="http://www.w3.org/2000/svg">
<g clip-path="url(#clip0_954_59647)">
<path d="M0.125 2.18324C0.205798 2.09042 0.321525 2.07935 0.361995 2.01836C0.768759 1.40527 1.30907 1.11457 2.06755 1.11622C8.77428 1.13076 15.4811 1.12456 22.1878 1.12476C23.3801 1.12479 24.112 1.84047 24.1304 3.13048C24.1301 8.33364 24.1262 13.4267 24.1304 18.5198C24.1306 18.7146 24.2086 18.9094 24.2503 19.1042C26.0414 19.111 27.8324 19.1186 29.6235 19.1244C30.6381 19.1276 31.1489 19.6215 31.1143 20.6519C31.0974 21.1531 30.9222 21.649 30.9049 22.1502C30.8942 22.4588 31.0775 22.7691 31.1162 23.0857C31.1558 23.409 31.125 23.7409 31.125 24.0753C31.4616 24.1173 31.7434 24.1525 32.0751 24.1561C32.125 26.0856 32.125 28.0465 32.0957 30.0239C31.51 30.8999 30.7321 31.1486 29.7096 31.1447C20.5361 31.1103 11.3624 31.1196 2.18876 31.1334C1.37415 31.1347 0.747363 30.9019 0.341069 30.1714C0.317434 30.1289 0.199206 30.139 0.125 30.1247C0.125 20.8304 0.125 11.5361 0.125 2.18324ZM1.16611 3.20724C1.15242 4.25254 1.13014 5.29785 1.1312 6.34313C1.13146 6.59685 1.20857 6.85049 1.36632 7.12161C8.60346 7.12161 15.8406 7.12161 23.0568 7.12161C23.0922 7.01896 23.1162 6.98161 23.1163 6.94416C23.1207 5.88256 23.1244 4.82095 23.1245 3.75935C23.1247 2.55955 22.6971 2.12537 21.513 2.12505C17.5993 2.12402 13.6856 2.12466 9.77182 2.12466C7.37778 2.12467 4.98373 2.12073 2.5897 2.12676C1.71358 2.12897 1.37808 2.38637 1.16611 3.20724ZM1.17508 8.21382C1.15845 8.37798 1.12733 8.54215 1.12727 8.70632C1.1248 15.3131 1.12423 21.9199 1.12948 28.5267C1.12964 28.726 1.19448 28.9253 1.24703 29.2192C1.43692 29.8988 1.78894 30.1239 2.68718 30.124C8.35345 30.1252 14.0197 30.1249 19.686 30.1235C19.8666 30.1235 20.0472 30.1067 20.2343 30.0975C20.1919 29.8958 20.1306 29.7383 20.13 29.5804C20.1229 27.9139 20.1141 26.2471 20.1441 24.5811C20.1469 24.4267 20.3896 24.2339 20.5644 24.1386C20.7066 24.0611 20.914 24.103 21.125 24.09C21.125 23.7359 21.0946 23.4222 21.1334 23.1174C21.1737 22.8006 21.3023 22.4955 21.3483 22.1789C21.3663 22.0555 21.2677 21.9133 21.2167 21.7819C20.9223 21.0236 21.08 19.8197 21.6452 19.4505C22.0438 19.1903 22.5762 19.135 23.0871 18.9763C23.0871 15.43 23.0871 11.7976 23.0871 8.12466C22.8245 8.12466 22.5985 8.12466 22.3725 8.12466C17.3104 8.12466 12.2482 8.12279 7.1861 8.1256C5.20751 8.1267 3.22893 8.13832 1.17508 8.21382ZM28.0622 30.1247C28.624 30.1246 29.1862 30.1369 29.7477 30.1216C30.5301 30.1003 31.0516 29.745 31.0944 29.004C31.1682 27.7267 31.1148 26.4421 31.1148 25.1665C27.7496 25.1665 24.4535 25.1665 21.125 25.1665C21.125 26.3294 21.1225 27.4508 21.1257 28.5721C21.1289 29.6785 21.577 30.1224 22.6932 30.124C24.4412 30.1265 26.1892 30.1247 28.0622 30.1247ZM23.9433 21.6247C25.708 21.6246 27.4726 21.6226 29.2372 21.6258C29.7422 21.6267 30.0909 21.4001 30.1103 20.8911C30.1285 20.4113 29.8069 20.1331 29.3333 20.1304C27.1951 20.1183 25.0567 20.1184 22.9184 20.1303C22.4448 20.1329 22.1257 20.4096 22.1395 20.8895C22.153 21.361 22.4624 21.6187 22.9488 21.6238C23.2395 21.6269 23.5301 21.6246 23.9433 21.6247ZM27.9358 24.1247C28.3316 24.1247 28.7275 24.1271 29.1232 24.1241C29.7608 24.1191 30.1224 23.8469 30.1235 23.3761C30.1246 22.9041 29.7634 22.6266 29.126 22.6257C27.1262 22.6229 25.1264 22.623 23.1265 22.6256C22.4891 22.6265 22.1273 22.9028 22.1265 23.3736C22.1257 23.8455 22.4869 24.1224 23.1243 24.1236C24.6866 24.1267 26.249 24.1247 27.9358 24.1247Z" fill="#286FFF"/>
<path d="M24.2504 19.0473C24.2088 18.9096 24.1308 18.7149 24.1306 18.5201C24.1264 13.427 24.1303 8.33385 24.1392 3.18262C24.1804 3.33867 24.2455 3.55281 24.2457 3.76703C24.2515 8.8414 24.2502 13.9158 24.2504 19.0473Z" fill="#286FFF"/>
<path d="M1.21227 8.17969C1.2486 15.0998 1.2473 22.0543 1.23736 29.0668C1.19403 28.9255 1.12919 28.7262 1.12904 28.5269C1.12378 21.9201 1.12435 15.3133 1.12683 8.70652C1.12689 8.54235 1.158 8.37819 1.21227 8.17969Z" fill="#286FFF"/>
<path d="M1.19733 3.16602C1.23583 4.41318 1.24281 5.70166 1.24991 7.0472C1.20827 6.85058 1.13115 6.59694 1.1309 6.34322C1.12984 5.29794 1.15211 4.25263 1.19733 3.16602Z" fill="#286FFF"/>
<path d="M4.12481 17.8948C4.17081 16.332 4.78413 15.0267 5.62153 13.8335C6.86818 12.0572 8.65215 10.975 10.7476 10.6745C13.0528 10.344 15.2576 10.7746 17.1637 12.3273C18.8002 13.6604 19.8242 15.3496 20.0863 17.3878C20.379 19.6642 19.9329 21.8136 18.4084 23.6792C17.0727 25.3138 15.3821 26.3358 13.3427 26.5924C9.91678 27.0236 6.7587 25.6463 5.02802 22.4667C4.25303 21.0429 4.02438 19.5389 4.12481 17.8948ZM17.5003 22.9367C17.7973 22.4765 18.1525 22.0435 18.3818 21.5517C19.6824 18.7632 18.9777 15.4096 16.5693 13.3468C13.932 11.0878 9.8405 11.1874 7.31304 13.6452C5.74834 15.1667 5.07054 17.0695 5.24578 19.2681C5.39126 21.0933 6.19055 22.6156 7.52124 23.7991C8.92669 25.0491 10.6168 25.6328 12.544 25.511C14.557 25.3838 16.1673 24.5435 17.5003 22.9367Z" fill="#286FFF"/>
<path d="M15.6228 3.12503C16.0585 3.12505 16.4323 3.1199 16.806 3.12612C17.6331 3.1399 18.1299 3.73629 18.125 4.70228C18.1207 5.552 17.5884 6.11931 16.776 6.12358C15.6757 6.12936 14.5753 6.12954 13.4749 6.12356C12.6266 6.11895 12.1225 5.53557 12.125 4.57864C12.1273 3.68528 12.6513 3.13088 13.5053 3.12586C14.1905 3.12183 14.8756 3.12504 15.6228 3.12503ZM15.552 5.12503C15.8222 5.12482 16.1171 5.1924 16.3558 5.1055C16.5988 5.017 16.7865 4.77648 16.9984 4.60253C16.7923 4.44368 16.5941 4.16183 16.3786 4.14779C15.5507 4.09386 14.7146 4.0896 13.8876 4.14967C13.6647 4.16586 13.4631 4.47466 13.2517 4.64914C13.4583 4.80747 13.6506 5.07245 13.8745 5.10257C14.385 5.17122 14.9109 5.12474 15.552 5.12503Z" fill="#286FFF"/>
<path d="M21.1548 3.13928C22.3295 3.81706 22.5212 4.99178 21.6385 5.80136C21.2393 6.16748 20.3236 6.26486 19.8504 5.99151C19.241 5.6395 18.9337 4.8546 19.1423 4.10768C19.256 3.70073 19.8911 2.98195 20.5445 3.11985C20.7236 3.15766 20.917 3.12781 21.1548 3.13928ZM20.384 4.3089C20.3751 4.51072 20.3326 4.72082 20.3789 4.90901C20.3919 4.9615 20.7026 5.01117 20.8125 4.94886C20.9173 4.88947 21.0235 4.60083 20.9801 4.55539C20.8501 4.41941 20.6471 4.35316 20.384 4.3089Z" fill="#286FFF"/>
<path d="M3.94489 3.12497C4.71687 3.35531 5.08175 3.79422 5.13047 4.39437C5.21143 5.39163 4.85047 5.7553 4.24846 6.04938C3.65865 6.33751 2.85016 6.11044 2.40912 5.59516C1.98397 5.09845 2.02793 4.51332 2.2327 3.97654C2.44073 3.43121 2.86836 3.07599 3.51816 3.12337C3.64204 3.1324 3.76713 3.12471 3.94489 3.12497ZM3.9408 4.86695C4.04409 4.55626 4.06269 4.25762 3.62849 4.27005C3.49968 4.27374 3.27444 4.49901 3.27071 4.62788C3.25814 5.06222 3.55706 5.04319 3.9408 4.86695Z" fill="#286FFF"/>
<path d="M15.7233 14.409C16.2413 15.0554 16.8991 15.5999 17.181 16.2965C18.1302 18.6418 17.7585 20.8808 16.016 22.6291C15.0578 23.5906 13.8286 24.0977 12.3919 24.1494C10.7761 24.2076 9.37899 23.7342 8.25632 22.6524C7.31276 21.7432 6.66577 20.6066 6.61877 19.2136C6.57447 17.9008 6.68275 16.6473 7.48864 15.5304C8.59689 13.9944 10.0263 13.1387 11.966 13.1093C13.3825 13.0879 14.6265 13.4324 15.7233 14.409ZM16.4997 19.1489C16.4876 18.651 16.5646 18.1311 16.4479 17.659C15.9577 15.6776 14.0637 14.1329 11.9561 14.224C9.30204 14.3387 7.22687 16.765 7.796 19.5365C8.1882 21.4465 9.90675 23.2861 12.733 22.9959C14.3783 22.827 16.1856 21.3617 16.4997 19.1489Z" fill="#286FFF"/>
<path d="M14.9712 20.8264C14.1903 21.683 13.3139 22.2522 12.1424 22.1109C11.9587 22.0888 11.6989 21.9083 11.6489 21.7469C11.5688 21.488 11.5606 21.1766 12.0043 21.1069C12.4172 21.042 12.8281 20.9107 13.216 20.7507C14.0344 20.4129 14.3839 19.742 14.5179 18.893C14.5632 18.6058 14.4857 18.1455 15.0262 18.1203C15.4296 18.1016 15.6158 18.1975 15.6408 18.6622C15.684 19.4651 15.4305 20.146 14.9712 20.8264Z" fill="#286FFF"/>
</g>
<defs>
<clipPath id="clip0_954_59647">
<rect width="32" height="32" fill="white"/>
</clipPath>
</defs>
</svg>
