<svg width="20" height="20" viewBox="0 0 20 20" fill="none" xmlns="http://www.w3.org/2000/svg">
<g clip-path="url(#clip0_1055_51450)">
<path d="M0.0781251 1.36514C0.128624 1.30712 0.200953 1.30021 0.226247 1.26208C0.480474 0.878903 0.818169 0.697219 1.29222 0.698247C5.48393 0.707333 9.67566 0.703458 13.8674 0.703583C14.6126 0.703605 15.07 1.1509 15.0815 1.95716C15.0813 5.20913 15.0789 8.39232 15.0815 11.5755C15.0816 11.6973 15.1304 11.819 15.1565 11.9407C16.2759 11.945 17.3953 11.9497 18.5147 11.9533C19.1488 11.9554 19.4681 12.264 19.4464 12.9081C19.4359 13.2213 19.3264 13.5312 19.3155 13.8445C19.3089 14.0374 19.4235 14.2313 19.4477 14.4292C19.4724 14.6312 19.4531 14.8386 19.4531 15.0477C19.6635 15.0739 19.8396 15.0959 20.0469 15.0982C20.0781 16.3041 20.0781 17.5297 20.0598 18.7655C19.6938 19.313 19.2076 19.4685 18.5685 19.4661C12.835 19.4446 7.10148 19.4503 1.36798 19.459C0.858844 19.4598 0.467102 19.3143 0.213168 18.8577C0.198396 18.8312 0.124504 18.8375 0.078125 18.8285C0.0781251 13.0196 0.0781251 7.21067 0.0781251 1.36514ZM0.728822 2.00514C0.720262 2.65845 0.70634 3.31176 0.707001 3.96507C0.707161 4.12364 0.755358 4.28217 0.853949 4.45162C5.37716 4.45162 9.90037 4.45162 14.4105 4.45162C14.4326 4.38746 14.4476 4.36412 14.4477 4.34071C14.4504 3.67721 14.4528 3.01371 14.4528 2.3502C14.4529 1.60033 14.1857 1.32896 13.4457 1.32877C10.9996 1.32812 8.55348 1.32852 6.10739 1.32852C4.61111 1.32853 3.11483 1.32606 1.61856 1.32984C1.07099 1.33122 0.861302 1.49209 0.728822 2.00514ZM0.734428 5.13425C0.724032 5.23685 0.704584 5.33945 0.704546 5.44206C0.703001 9.5713 0.702643 13.7005 0.705927 17.8298C0.706026 17.9544 0.746551 18.0789 0.779394 18.2626C0.898072 18.6874 1.11809 18.828 1.67949 18.8281C5.22091 18.8289 8.76233 18.8287 12.3038 18.8278C12.4166 18.8278 12.5295 18.8173 12.6464 18.8115C12.6199 18.6855 12.5816 18.587 12.5812 18.4884C12.5768 17.4468 12.5713 16.4051 12.5901 15.3638C12.5918 15.2673 12.7435 15.1468 12.8528 15.0873C12.9416 15.0388 13.0712 15.065 13.2031 15.0568C13.2031 14.8355 13.1841 14.6395 13.2084 14.449C13.2336 14.251 13.3139 14.0603 13.3427 13.8624C13.3539 13.7853 13.2923 13.6965 13.2604 13.6143C13.0765 13.1404 13.175 12.3879 13.5283 12.1572C13.7774 11.9945 14.1101 11.96 14.4294 11.8608C14.4294 9.64437 14.4294 7.37409 14.4294 5.07852C14.2653 5.07852 14.1241 5.07852 13.9828 5.07852C10.819 5.07852 7.65516 5.07735 4.49131 5.07911C3.2547 5.0798 2.01808 5.08706 0.734428 5.13425ZM17.5388 18.8285C17.89 18.8285 18.2414 18.8362 18.5923 18.8266C19.0813 18.8133 19.4072 18.5912 19.434 18.1281C19.4801 17.3298 19.4468 16.5269 19.4468 15.7297C17.3435 15.7297 15.2834 15.7297 13.2031 15.7297C13.2031 16.4565 13.2016 17.1573 13.2036 17.8582C13.2056 18.5497 13.4856 18.8271 14.1832 18.8281C15.2758 18.8297 16.3683 18.8285 17.5388 18.8285ZM14.9646 13.516C16.0675 13.516 17.1704 13.5148 18.2733 13.5168C18.5889 13.5173 18.8068 13.3757 18.8189 13.0576C18.8303 12.7577 18.6293 12.5838 18.3333 12.5821C16.9969 12.5745 15.6604 12.5746 14.324 12.582C14.028 12.5837 13.8286 12.7566 13.8372 13.0566C13.8456 13.3513 14.039 13.5123 14.343 13.5155C14.5247 13.5174 14.7063 13.516 14.9646 13.516ZM17.4599 15.0785C17.7073 15.0785 17.9547 15.0801 18.202 15.0782C18.6005 15.0751 18.8265 14.9049 18.8272 14.6107C18.8279 14.3157 18.6021 14.1422 18.2038 14.1417C16.9539 14.1399 15.704 14.14 14.4541 14.1416C14.0557 14.1422 13.8295 14.3148 13.8291 14.6091C13.8286 14.9041 14.0543 15.0771 14.4527 15.0779C15.4292 15.0798 16.4056 15.0785 17.4599 15.0785Z" fill="#374151"/>
<path d="M15.156 11.9047C15.13 11.8186 15.0812 11.6969 15.0811 11.5752C15.0785 8.39197 15.0809 5.20878 15.0865 1.98926C15.1123 2.08679 15.1529 2.22063 15.1531 2.35451C15.1567 5.526 15.1559 8.69749 15.156 11.9047Z" fill="#374151"/>
<path d="M0.757667 5.1123C0.780373 9.4374 0.77956 13.784 0.773348 18.1668C0.746272 18.0785 0.705746 17.9539 0.705647 17.8293C0.702363 13.7001 0.702721 9.57082 0.704266 5.44158C0.704304 5.33897 0.723752 5.23637 0.757667 5.1123Z" fill="#374151"/>
<path d="M0.748578 1.97852C0.772641 2.75799 0.777 3.56329 0.781439 4.40425C0.755411 4.28137 0.707214 4.12284 0.707054 3.96427C0.706393 3.31097 0.720314 2.65765 0.748578 1.97852Z" fill="#374151"/>
<path d="M2.57837 11.1842C2.60712 10.2075 2.99045 9.39172 3.51382 8.64596C4.29298 7.53576 5.40796 6.85941 6.71764 6.67159C8.15834 6.46498 9.53636 6.73415 10.7277 7.70457C11.7505 8.53775 12.3905 9.59348 12.5543 10.8674C12.7372 12.2901 12.4584 13.6335 11.5056 14.7995C10.6708 15.8211 9.61419 16.4599 8.33957 16.6203C6.19836 16.8897 4.22455 16.029 3.14288 14.0417C2.65851 13.1518 2.5156 12.2118 2.57837 11.1842ZM10.9381 14.3354C11.1237 14.0478 11.3457 13.7772 11.489 13.4698C12.3018 11.727 11.8614 9.63103 10.3562 8.34172C8.70784 6.92985 6.15068 6.9921 4.57102 8.52822C3.59308 9.47921 3.16945 10.6685 3.27898 12.0426C3.3699 13.1833 3.86946 14.1348 4.70114 14.8745C5.57955 15.6557 6.63584 16.0205 7.84038 15.9444C9.0985 15.8649 10.1049 15.3397 10.9381 14.3354Z" fill="#374151"/>
<path d="M9.76425 1.95339C10.0366 1.9534 10.2702 1.95018 10.5037 1.95407C11.0207 1.96268 11.3312 2.33542 11.3281 2.93917C11.3254 3.47024 10.9928 3.82481 10.485 3.82748C9.79731 3.83109 9.10953 3.83121 8.42181 3.82747C7.89165 3.82459 7.57659 3.45998 7.57813 2.8619C7.57957 2.30354 7.90707 1.95704 8.44084 1.9539C8.86904 1.95139 9.29727 1.95339 9.76425 1.95339ZM9.72002 3.20339C9.8889 3.20326 10.0732 3.24549 10.2224 3.19118C10.3742 3.13587 10.4915 2.98555 10.624 2.87682C10.4952 2.77755 10.3713 2.60139 10.2366 2.59261C9.71918 2.55891 9.19661 2.55624 8.67973 2.59379C8.54043 2.60391 8.41441 2.7969 8.28229 2.90596C8.41145 3.00492 8.53165 3.17053 8.67159 3.18935C8.9906 3.23226 9.3193 3.2032 9.72002 3.20339Z" fill="#374151"/>
<path d="M13.2214 1.96144C13.9556 2.38505 14.0754 3.11925 13.5237 3.62524C13.2742 3.85406 12.7019 3.91492 12.4061 3.74408C12.0253 3.52408 11.8332 3.03352 11.9636 2.56669C12.0346 2.31235 12.4316 1.86311 12.8399 1.9493C12.9519 1.97293 13.0727 1.95427 13.2214 1.96144ZM12.7396 2.69245C12.7341 2.81859 12.7075 2.9499 12.7365 3.06752C12.7446 3.10032 12.9388 3.13137 13.0075 3.09243C13.0729 3.05531 13.1393 2.87491 13.1122 2.84651C13.0309 2.76152 12.9041 2.72012 12.7396 2.69245Z" fill="#374151"/>
<path d="M2.46507 1.95286C2.94755 2.09682 3.17561 2.37114 3.20606 2.74624C3.25665 3.36952 3.03105 3.59682 2.6548 3.78062C2.28617 3.9607 1.78086 3.81878 1.50521 3.49673C1.23949 3.18629 1.26697 2.82058 1.39495 2.48509C1.52497 2.14426 1.79224 1.92225 2.19836 1.95186C2.27578 1.9575 2.35397 1.9527 2.46507 1.95286ZM2.46251 3.0416C2.52707 2.84742 2.53869 2.66077 2.26732 2.66854C2.18681 2.67084 2.04604 2.81164 2.04371 2.89218C2.03585 3.16364 2.22267 3.15175 2.46251 3.0416Z" fill="#374151"/>
<path d="M9.82741 9.00623C10.1512 9.41025 10.5623 9.75054 10.7385 10.1859C11.3317 11.6517 11.0994 13.0511 10.0104 14.1438C9.41147 14.7447 8.64327 15.0617 7.74529 15.094C6.73541 15.1304 5.86224 14.8345 5.16057 14.1584C4.57084 13.5901 4.16647 12.8797 4.13709 12.0091C4.10941 11.1886 4.17708 10.4052 4.68076 9.70711C5.37342 8.74711 6.26683 8.21231 7.47911 8.19395C8.3644 8.18053 9.14191 8.39586 9.82741 9.00623ZM10.3127 11.9687C10.3051 11.6575 10.3532 11.3325 10.2803 11.0375C9.97393 9.79911 8.79015 8.83369 7.47293 8.89063C5.81414 8.96233 4.51716 10.4787 4.87286 12.2109C5.11799 13.4046 6.19209 14.5544 7.95849 14.3731C8.98681 14.2675 10.1164 13.3517 10.3127 11.9687Z" fill="#374151"/>
<path d="M9.3569 13.0159C8.86884 13.5513 8.32106 13.907 7.5889 13.8187C7.47408 13.8049 7.31168 13.6921 7.28045 13.5912C7.23035 13.4294 7.22527 13.2348 7.50258 13.1912C7.76065 13.1507 8.01745 13.0686 8.25985 12.9686C8.7714 12.7574 8.9898 12.3381 9.07356 11.8075C9.10189 11.628 9.05343 11.3403 9.39126 11.3246C9.64337 11.3129 9.75976 11.3728 9.77539 11.6633C9.80239 12.1651 9.64394 12.5906 9.3569 13.0159Z" fill="#374151"/>
</g>
<defs>
<clipPath id="clip0_1055_51450">
<rect width="20" height="20" fill="white"/>
</clipPath>
</defs>
</svg>
