<svg width="32" height="32" viewBox="0 0 32 32" fill="none" xmlns="http://www.w3.org/2000/svg">
<g clip-path="url(#clip0_954_59606)">
<path d="M22.7664 21.283C22.7527 20.8544 22.7497 20.4795 22.7502 20.1046C22.7512 19.2698 22.8899 19.1045 23.7491 18.9568C23.7491 17.9479 23.7651 16.9295 23.7307 15.9127C23.7259 15.7712 23.4864 15.5409 23.3326 15.5199C22.925 15.4644 22.5048 15.5011 22.1885 15.5011C21.9348 15.9814 21.8116 16.5379 21.4673 16.7797C21.0884 17.0459 20.5076 17.1032 20.0124 17.1113C17.9717 17.1449 15.9301 17.1259 13.8889 17.1252C12.7939 17.1248 12.3012 16.7293 12.0518 15.6254C9.08329 15.6254 6.10662 15.6254 3.12994 15.6254C2.96331 15.6254 2.7515 15.6892 2.63989 15.6107C2.43697 15.468 2.15928 15.2378 2.16333 15.0494C2.16732 14.8631 2.46186 14.6564 2.66682 14.5127C2.76463 14.4441 2.95017 14.5004 3.09598 14.5004C6.07372 14.5004 9.05146 14.5004 12.077 14.5004C12.077 13.3074 12.077 12.1334 12.077 10.8754C11.8732 10.8754 11.6533 10.8754 11.4333 10.8754C8.60049 10.8754 5.76771 10.8729 2.93495 10.878C2.51006 10.8788 2.11071 10.8699 2.12746 10.2909C2.14279 9.7612 2.51653 9.74725 2.91633 9.74786C5.95639 9.75249 8.99646 9.75039 12.0272 9.75039C12.4924 8.56482 12.7737 8.3754 14.0431 8.37536C14.4993 8.37535 14.9555 8.37536 15.4556 8.37536C15.4556 8.09039 15.4556 7.83296 15.4556 7.53999C14.7905 7.49094 14.3818 7.1441 14.3488 6.37539C13.1017 6.37539 11.856 6.37606 10.6102 6.37517C9.64798 6.37447 9.00117 5.72266 8.99986 4.75475C8.99861 3.83085 9.69536 3.13016 10.631 3.12656C11.8582 3.12184 13.0855 3.1254 14.3044 3.1254C14.482 2.35358 14.7739 2.12568 15.55 2.12546C16.5915 2.12517 17.6329 2.12447 18.6744 2.12572C19.3568 2.12654 19.6643 2.39191 19.795 3.1254C20.9923 3.1254 22.1982 3.12103 23.404 3.12699C24.1674 3.13076 24.7577 3.49543 24.9803 4.08063C25.2738 4.85242 25.1569 5.50487 24.5196 6.01428C24.258 6.22341 23.8615 6.34836 23.5214 6.35953C22.295 6.39982 21.0665 6.37537 19.8459 6.37537C19.6072 7.2384 19.4554 7.38862 18.6428 7.57067C18.6428 7.81183 18.6428 8.05705 18.6428 8.37536C19.1277 8.37536 19.6013 8.39416 20.0729 8.37177C21.3879 8.30936 21.697 8.7167 22.091 9.75038C23.142 9.75038 24.2033 9.74304 25.2644 9.75187C27.6679 9.77189 29.4574 11.6214 29.4953 13.9905C29.5193 15.4898 29.495 16.9899 29.5057 18.4895C29.507 18.683 29.522 18.9655 29.6429 19.0546C30.4348 19.6384 30.1033 20.4677 30.0789 21.1851C30.0708 21.4239 29.5645 21.8354 29.2757 21.8445C27.3822 21.9041 25.4853 21.8968 23.5909 21.8512C23.3162 21.8446 23.0493 21.5162 22.7664 21.283ZM18.562 16.0004C19.1441 16.0002 19.7263 16.0053 20.3083 15.998C20.6477 15.9937 20.886 15.9073 20.8818 15.4709C20.8644 13.6416 20.8698 11.812 20.8786 9.98249C20.8803 9.64082 20.7595 9.4953 20.407 9.49659C18.2241 9.5046 16.0411 9.50409 13.8582 9.49773C13.3835 9.49635 13.2335 9.70385 13.2402 10.1751C13.2645 11.8796 13.2721 13.585 13.237 15.2891C13.2255 15.846 13.4341 16.0104 13.9465 16.0055C15.4433 15.9911 16.9402 16.0004 18.562 16.0004ZM24.4338 10.8754C23.6319 10.8754 22.83 10.8754 22.0461 10.8754C22.0461 12.0922 22.0461 13.223 22.0461 14.3754C22.4237 14.3754 22.7576 14.401 23.0863 14.3709C24.4048 14.25 24.8966 15.0332 24.8778 16.1957C24.8628 17.1217 24.8748 18.0482 24.8748 18.9527C26.094 18.9527 27.2248 18.9527 28.3747 18.9527C28.3747 17.2221 28.4278 15.5364 28.3452 13.8573C28.3171 13.2869 28.0415 12.6692 27.7135 12.1851C26.9705 11.0884 25.8394 10.76 24.4338 10.8754ZM15.4998 4.0721C15.4998 4.83291 15.4998 5.59371 15.4998 6.34558C16.5845 6.34558 17.5766 6.34558 18.5893 6.34558C18.5893 5.26715 18.5893 4.21875 18.5893 3.16675C17.5464 3.16675 16.5396 3.16675 15.4998 3.16675C15.4998 3.45515 15.4998 3.70244 15.4998 4.0721ZM10.7451 4.25047C10.5389 4.4024 10.3327 4.55433 10.1264 4.70625C10.2619 4.88626 10.3925 5.21807 10.5335 5.22256C11.8072 5.26308 13.0827 5.24627 14.348 5.24627C14.348 4.877 14.348 4.59319 14.348 4.25039C13.168 4.25039 12.0139 4.25039 10.7451 4.25047ZM22.4316 5.25039C22.7855 5.25017 23.1539 5.30909 23.4879 5.22741C23.686 5.17895 23.9223 4.92851 23.9644 4.73112C23.9907 4.60794 23.6914 4.27893 23.531 4.27389C22.2887 4.23489 21.0446 4.25239 19.7856 4.25239C19.7856 4.61034 19.7856 4.90875 19.7856 5.25039C20.6498 5.25039 21.479 5.25039 22.4316 5.25039ZM28.4157 20.7506C28.597 20.741 28.7782 20.7315 28.9623 20.7218C28.9623 20.4697 28.9623 20.2551 28.9623 20.0337C27.2554 20.0337 25.5857 20.0337 23.913 20.0337C23.913 20.2822 23.913 20.4968 23.913 20.7506C25.3984 20.7506 26.8465 20.7506 28.4157 20.7506ZM16.6251 8.05198C16.7277 8.72567 17.1805 8.22661 17.4622 8.36463C17.4622 8.04617 17.4622 7.79108 17.4622 7.47156C17.1373 7.62902 16.5782 7.17957 16.6251 8.05198Z" fill="#286FFF"/>
<path d="M29.375 27.1512C29.4205 28.5845 28.7109 29.4714 27.5046 29.9937C26.3875 30.4774 25.3504 30.2164 24.4357 29.4851C23.6439 28.8519 23.1372 27.2988 23.7399 26.1852C24.2907 25.1675 24.8339 24.144 25.432 23.1543C25.8598 22.4464 27.0368 22.4703 27.4685 23.1832C28.0047 24.0687 28.5151 24.9717 28.9907 25.8909C29.1816 26.26 29.2505 26.6922 29.375 27.1512ZM28.25 27.3111C28.206 27.1149 28.2033 26.8963 28.1112 26.7262C27.5732 25.7332 27.0142 24.7516 26.4359 23.719C25.8538 24.7233 25.2388 25.6391 24.7896 26.63C24.6056 27.0361 24.6456 27.6593 24.8208 28.0865C25.1108 28.7939 25.8143 29.13 26.5516 29.0846C27.4403 29.03 28.0676 28.3292 28.25 27.3111Z" fill="#286FFF"/>
</g>
<defs>
<clipPath id="clip0_954_59606">
<rect width="32" height="32" fill="white"/>
</clipPath>
</defs>
</svg>
