<svg width="20" height="20" viewBox="0 0 20 20" fill="none" xmlns="http://www.w3.org/2000/svg">
<g clip-path="url(#clip0_1055_51415)">
<path d="M14.2288 13.3019C14.2202 13.034 14.2183 12.7997 14.2186 12.5654C14.2193 12.0436 14.3059 11.9403 14.8429 11.848C14.8429 11.2175 14.8529 10.5809 14.8314 9.94546C14.8284 9.85702 14.6788 9.71305 14.5827 9.69996C14.3279 9.66527 14.0652 9.68819 13.8675 9.68819C13.709 9.98835 13.632 10.3362 13.4168 10.4873C13.18 10.6537 12.817 10.6895 12.5075 10.6946C11.2321 10.7156 9.95608 10.7037 8.68029 10.7032C7.99594 10.703 7.68799 10.4558 7.53214 9.76587C5.67681 9.76587 3.81639 9.76587 1.95597 9.76585C1.85183 9.76585 1.71944 9.80575 1.64969 9.7567C1.52286 9.66752 1.34931 9.52361 1.35183 9.4059C1.35433 9.28946 1.53842 9.16028 1.66652 9.07042C1.72765 9.02755 1.84362 9.06276 1.93474 9.06276C3.79583 9.06274 5.65692 9.06274 7.54788 9.06274C7.54788 8.31711 7.54788 7.5834 7.54788 6.79712C7.42053 6.79712 7.28304 6.79712 7.14554 6.79712C5.37506 6.79712 3.60458 6.79558 1.8341 6.79877C1.56855 6.79925 1.31895 6.79371 1.32942 6.43181C1.339 6.10075 1.57259 6.09203 1.82246 6.09241C3.7225 6.0953 5.62255 6.094 7.51674 6.094C7.80752 5.35301 7.98332 5.23462 8.77668 5.2346C9.06182 5.2346 9.34697 5.2346 9.65952 5.2346C9.65952 5.05649 9.65952 4.8956 9.65952 4.71249C9.24381 4.68184 8.98837 4.46506 8.96776 3.98462C8.18831 3.98462 7.40973 3.98504 6.63115 3.98448C6.02974 3.98405 5.62549 3.57666 5.62467 2.97172C5.62389 2.39428 6.05935 1.95635 6.64413 1.9541C7.41115 1.95115 8.17818 1.95338 8.94002 1.95338C9.05102 1.47099 9.23341 1.32855 9.71851 1.32842C10.3694 1.32823 11.0203 1.32779 11.6713 1.32857C12.0978 1.32909 12.29 1.49494 12.3716 1.95338C13.1199 1.95338 13.8736 1.95064 14.6272 1.95437C15.1044 1.95673 15.4733 2.18464 15.6124 2.55039C15.7959 3.03276 15.7228 3.44054 15.3245 3.75893C15.161 3.88963 14.9132 3.96772 14.7006 3.97471C13.9341 3.99989 13.1663 3.98461 12.4034 3.98461C12.2542 4.524 12.1594 4.61788 11.6515 4.73167C11.6515 4.8824 11.6515 5.03566 11.6515 5.2346C11.9546 5.2346 12.2506 5.24635 12.5453 5.23236C13.3672 5.19335 13.5604 5.44794 13.8066 6.09399C14.4635 6.09399 15.1268 6.0894 15.79 6.09492C17.2922 6.10743 18.4106 7.26336 18.4343 8.74405C18.4493 9.68113 18.4342 10.6187 18.4408 11.5559C18.4417 11.6769 18.451 11.8535 18.5266 11.9091C19.0215 12.274 18.8143 12.7923 18.7991 13.2407C18.794 13.39 18.4776 13.6471 18.2971 13.6528C17.1136 13.6901 15.928 13.6855 14.7441 13.657C14.5724 13.6529 14.4055 13.4476 14.2288 13.3019ZM11.601 10.0002C11.9648 10.0001 12.3287 10.0033 12.6924 9.99872C12.9046 9.99605 13.0535 9.94205 13.0509 9.66934C13.04 8.526 13.0434 7.38247 13.0489 6.23905C13.0499 6.02551 12.9745 5.93456 12.7541 5.93537C11.3898 5.94037 10.0255 5.94005 8.66113 5.93608C8.36444 5.93522 8.2707 6.0649 8.27489 6.35945C8.29004 7.42472 8.29482 8.49063 8.27288 9.55566C8.26571 9.90376 8.39606 10.0065 8.71633 10.0034C9.65179 9.99441 10.5874 10.0002 11.601 10.0002ZM15.2709 6.79712C14.7697 6.79712 14.2685 6.79712 13.7786 6.79712C13.7786 7.5576 13.7786 8.2644 13.7786 8.98462C14.0146 8.98462 14.2232 9.00064 14.4287 8.9818C15.2528 8.90623 15.5601 9.39573 15.5484 10.1223C15.539 10.7011 15.5465 11.2801 15.5465 11.8455C16.3085 11.8455 17.0153 11.8455 17.7339 11.8455C17.7339 10.7638 17.7672 9.71023 17.7155 8.66084C17.698 8.30434 17.5257 7.91824 17.3207 7.61571C16.8563 6.93026 16.1494 6.72498 15.2709 6.79712ZM9.68715 2.54507C9.68715 3.02057 9.68715 3.49607 9.68715 3.96599C10.3651 3.96599 10.9851 3.96599 11.6181 3.96599C11.6181 3.29197 11.6181 2.63672 11.6181 1.97922C10.9663 1.97922 10.337 1.97922 9.68715 1.97922C9.68715 2.15947 9.68715 2.31402 9.68715 2.54507ZM6.71545 2.65655C6.58656 2.7515 6.45767 2.84645 6.32878 2.94141C6.41343 3.05391 6.49506 3.26129 6.5832 3.2641C7.37924 3.28942 8.17642 3.27892 8.96724 3.27892C8.96724 3.04812 8.96724 2.87075 8.96724 2.6565C8.22977 2.6565 7.50847 2.6565 6.71545 2.65655ZM14.0195 3.28149C14.2407 3.28136 14.4709 3.31818 14.6797 3.26713C14.8035 3.23685 14.9512 3.08032 14.9775 2.95695C14.994 2.87996 14.8069 2.67433 14.7066 2.67118C13.9302 2.64681 13.1526 2.65774 12.3658 2.65774C12.3658 2.88146 12.3658 3.06797 12.3658 3.28149C12.9059 3.28149 13.4241 3.28149 14.0195 3.28149ZM17.7596 12.9691C17.8729 12.9631 17.9861 12.9572 18.1012 12.9511C18.1012 12.7936 18.1012 12.6595 18.1012 12.5211C17.0344 12.5211 15.9908 12.5211 14.9454 12.5211C14.9454 12.6764 14.9454 12.8105 14.9454 12.9691C15.8737 12.9691 16.7788 12.9691 17.7596 12.9691ZM10.3905 5.03249C10.4546 5.45354 10.7376 5.14163 10.9136 5.22789C10.9136 5.02885 10.9136 4.86943 10.9136 4.66973C10.7106 4.76814 10.3612 4.48723 10.3905 5.03249Z" fill="#374151"/>
<path d="M18.3596 16.9696C18.388 17.8654 17.9446 18.4197 17.1906 18.7462C16.4925 19.0485 15.8442 18.8854 15.2726 18.4283C14.7777 18.0326 14.461 17.0619 14.8377 16.3658C15.1819 15.7298 15.5215 15.0901 15.8953 14.4715C16.1626 14.0291 16.8983 14.044 17.1681 14.4896C17.5032 15.043 17.8222 15.6074 18.1194 16.1819C18.2387 16.4126 18.2818 16.6827 18.3596 16.9696ZM17.6565 17.0695C17.629 16.9469 17.6273 16.8103 17.5697 16.704C17.2335 16.0834 16.8841 15.4699 16.5227 14.8245C16.1589 15.4522 15.7745 16.0246 15.4938 16.6439C15.3787 16.8977 15.4038 17.2872 15.5132 17.5542C15.6945 17.9963 16.1342 18.2064 16.595 18.178C17.1504 18.1439 17.5425 17.7059 17.6565 17.0695Z" fill="#374151"/>
</g>
<defs>
<clipPath id="clip0_1055_51415">
<rect width="20" height="20" fill="white"/>
</clipPath>
</defs>
</svg>
