<svg width="20" height="20" viewBox="0 0 20 20" fill="none" xmlns="http://www.w3.org/2000/svg">
<g clip-path="url(#clip0_1055_51854)">
<path d="M17.4218 9.77861C17.4218 10.3239 17.4186 10.8317 17.4224 11.3394C17.4341 12.8822 16.7324 14.058 15.4969 14.9083C13.7719 16.0954 10.9086 15.9006 9.4213 14.147C8.75487 13.3613 8.38813 12.4517 8.36232 11.4186C8.34613 10.7706 8.3593 10.1219 8.3593 9.47267C7.82003 9.4314 7.27478 9.36268 7.17878 8.75974C7.0864 8.17955 7.05454 7.56379 7.1482 6.98841C7.21858 6.55606 7.52688 6.26628 8.03399 6.3263C8.13355 6.33808 8.2357 6.328 8.3356 6.328C8.35931 5.24717 9.24346 4.5652 10.1827 4.59363C11.9648 4.64757 13.7501 4.63472 15.5331 4.59968C16.6011 4.5787 17.4047 5.09512 17.4528 6.32473C17.812 6.33778 18.2206 6.24846 18.4592 6.62949C18.5555 6.78323 18.6473 6.964 18.6624 7.13924C18.6936 7.50111 18.6413 7.87062 18.6778 8.23147C18.7669 9.11133 18.2485 9.49673 17.4496 9.45601C17.4404 9.54973 17.4311 9.6454 17.4218 9.77861ZM13.7924 14.8478C15.2862 14.6664 16.7057 13.0719 16.7158 11.5955C16.7279 9.82633 16.7187 8.05699 16.7187 6.28771C16.7186 5.65807 16.368 5.3127 15.7262 5.31254C13.8658 5.31207 12.0055 5.31236 10.1451 5.31238C9.44222 5.31238 9.06278 5.68992 9.06258 6.3917C9.06211 8.03088 9.05909 9.67008 9.06594 11.3092C9.067 11.562 9.08577 11.8217 9.14605 12.0659C9.41794 13.1675 10.0488 14.0017 11.0577 14.5351C11.9066 14.984 12.8133 15.0229 13.7924 14.8478ZM17.4218 7.17165C17.4218 7.68792 17.4218 8.20418 17.4218 8.72931C17.7328 8.78108 17.9999 8.74714 18.0373 8.40457C18.0764 8.04628 18.0731 7.67734 18.0322 7.3195C18.0172 7.18894 17.8582 7.04722 17.7293 6.9701C17.6728 6.93629 17.5271 7.05158 17.4218 7.17165ZM8.3593 8.23396C8.3593 7.80973 8.3593 7.38549 8.3593 6.96044C7.86759 6.98428 7.81323 7.03892 7.81251 7.4739C7.81208 7.73356 7.8117 7.99323 7.81259 8.25288C7.81413 8.70194 7.87463 8.75748 8.3593 8.72942C8.3593 8.5907 8.3593 8.45002 8.3593 8.23396Z" fill="#374151"/>
<path d="M6.63077 1.79851C7.28391 0.987226 8.09219 1.2859 8.87393 1.4256C8.98566 1.44557 9.09783 1.46333 9.20918 1.48524C9.49464 1.5414 9.71655 1.64608 9.69151 2.00443C9.67249 2.27654 9.66796 2.55286 9.69302 2.82398C9.72087 3.12523 9.57309 3.23621 9.30939 3.28328C8.76382 3.38067 8.22307 3.53108 7.67397 3.57014C7.44952 3.58611 7.1422 3.42747 6.98705 3.24884C6.43585 2.61422 5.73382 2.72062 5.00027 2.74911C5.00027 3.39717 4.99189 4.03165 5.00944 4.66542C5.01203 4.75897 5.11802 4.88343 5.20927 4.93491C5.60258 5.15678 5.79946 5.4748 5.78347 5.93015C5.77297 6.22926 5.77864 6.52907 5.78221 6.8285C5.7866 7.19555 5.72586 7.56682 6.00387 7.89185C6.09479 7.99814 6.08992 8.20563 6.09049 8.36697C6.09624 9.98152 6.09518 11.5961 6.09327 13.2107C6.09268 13.7032 5.68603 14.263 5.23394 14.4614C5.13094 14.5066 5.01734 14.6597 5.01075 14.7693C4.98501 15.1974 5.00102 15.628 5.00005 16.0577C4.99866 16.6786 4.52698 17.1704 3.90437 17.1859C3.48796 17.1964 3.07108 17.1866 2.65443 17.1883C2.28996 17.1898 2.12195 17.3497 2.11136 17.7194C2.10279 18.0186 2.10128 18.3186 2.11232 18.6177C2.12058 18.8414 2.02295 18.9097 1.8095 18.9118C1.5833 18.914 1.47185 18.8514 1.48099 18.6033C1.49487 18.2262 1.48415 17.8482 1.48472 17.4706C1.48554 16.9254 1.9205 16.4904 2.47501 16.4856C2.91769 16.4818 3.36043 16.4825 3.80312 16.4855C4.13914 16.4879 4.30186 16.3255 4.29764 15.9899C4.29485 15.7686 4.28361 15.5462 4.2999 15.3261C4.33465 14.8562 4.32846 14.4726 3.76429 14.2383C3.38092 14.079 3.20994 13.6158 3.20721 13.174C3.19741 11.5855 3.20195 9.99695 3.20644 8.40843C3.20675 8.29906 3.22874 8.17818 3.27855 8.08236C3.63734 7.3923 3.49528 6.64954 3.51323 5.92506C3.52716 5.36316 3.74688 5.05178 4.29711 4.88854C4.29711 4.12661 4.29602 3.35917 4.29752 2.59173C4.29842 2.13157 4.39692 2.03379 4.85679 2.032C5.2474 2.03047 5.63875 2.01734 6.02839 2.03698C6.26783 2.04904 6.45829 1.99786 6.63077 1.79851ZM5.06673 7.8379C4.38262 7.55068 3.9066 7.8689 3.90653 8.61384C3.90639 10.0815 3.906 11.5491 3.90675 13.0167C3.90701 13.5255 4.19126 13.8315 4.65678 13.8286C5.11654 13.8256 5.39052 13.5176 5.39069 13.0005C5.39118 11.5199 5.40274 10.0391 5.37825 8.55886C5.37451 8.33288 5.2025 8.10969 5.06673 7.8379ZM8.40104 2.7348C8.59566 2.69743 8.79028 2.66007 9.05001 2.6102C8.97571 2.42541 8.92931 2.14638 8.849 2.13625C8.23138 2.05837 7.55456 1.67723 7.05978 2.40037C7.53598 2.86779 7.75737 2.92803 8.40104 2.7348ZM4.21899 5.93169C4.21899 6.29124 4.21899 6.65079 4.21899 7.01285C4.52355 7.01285 4.78913 7.01285 5.07836 7.01285C5.07836 6.65931 5.07065 6.32383 5.08113 5.98891C5.08786 5.77402 5.04656 5.58067 4.80927 5.55564C4.56458 5.52983 4.26609 5.47298 4.21899 5.93169Z" fill="#374151"/>
<path d="M11.4005 1.32812C12.0596 1.53742 12.703 1.70422 13.3033 1.96865C13.8236 2.19781 13.7924 2.5186 13.281 2.81366C13.2156 2.85137 13.1649 2.91885 13.0969 2.94679C12.4809 3.19969 11.8689 3.4683 11.1793 3.43828C10.6877 3.41689 10.2271 3.10396 10.0761 2.71543C9.86267 2.16611 10.2071 1.68294 10.601 1.50357C10.8343 1.39734 11.1097 1.38344 11.4005 1.32812ZM11.8871 2.65404C12.0912 2.57359 12.2953 2.49313 12.55 2.3927C12.2683 2.28637 12.0537 2.16606 11.8254 2.12848C11.4939 2.0739 11.1397 1.92624 10.8364 2.24446C10.6906 2.3973 10.7266 2.47407 10.8787 2.58495C11.1833 2.80696 11.4989 2.74042 11.8871 2.65404Z" fill="#374151"/>
<path d="M12.9691 9.29716C12.0981 9.29716 11.2662 9.29719 10.4343 9.29714C9.8563 9.29711 9.62964 9.16988 9.56046 8.63207C9.4948 8.12164 9.5 7.59145 9.55671 7.0791C9.60775 6.6179 9.91603 6.41021 10.4043 6.4086C12.0551 6.40318 13.706 6.39659 15.3566 6.41137C16.0283 6.41738 16.2974 6.72493 16.256 7.31118C16.2268 7.72506 16.2538 8.14271 16.2494 8.55861C16.2448 8.99318 15.942 9.29425 15.5038 9.29612C14.672 9.29969 13.84 9.29716 12.9691 9.29716ZM13.6332 7.10966C12.506 7.10966 11.3788 7.10966 10.2571 7.10966C10.2571 7.62872 10.2571 8.10307 10.2571 8.57181C12.0297 8.57181 13.7798 8.57181 15.5248 8.57181C15.5248 8.07498 15.5248 7.60063 15.5248 7.10966C14.9054 7.10966 14.3084 7.10966 13.6332 7.10966Z" fill="#374151"/>
<path d="M14.0614 11.0935C12.9829 11.0935 11.9432 11.0894 10.9037 11.0967C10.6752 11.0982 10.5386 11.0651 10.5391 10.7844C10.5395 10.5116 10.6607 10.4635 10.8968 10.4649C12.2222 10.4724 13.5478 10.4709 14.8733 10.4662C15.1042 10.4654 15.3043 10.5038 15.3069 10.7777C15.3095 11.0514 15.1122 11.102 14.8799 11.0952C14.6202 11.0876 14.3601 11.0935 14.0614 11.0935Z" fill="#374151"/>
<path d="M11.2184 11.8102C12.2673 11.7983 13.2827 11.8005 14.2981 11.795C14.5201 11.7938 14.7378 11.8092 14.7591 12.0791C14.7828 12.3807 14.531 12.4865 14.3055 12.4915C13.3687 12.512 12.4309 12.5115 11.4939 12.4949C11.0927 12.4878 10.9939 12.2431 11.2184 11.8102Z" fill="#374151"/>
<path d="M5.00047 11.6352C5.00043 11.842 5.00712 12.0109 4.99859 12.179C4.98882 12.3715 4.93344 12.5154 4.68638 12.5044C4.46042 12.4943 4.30125 12.4242 4.29975 12.1803C4.29397 11.2468 4.28587 10.313 4.31289 9.38039C4.31605 9.27119 4.55095 9.06816 4.64443 9.08607C4.77941 9.11193 4.97915 9.29584 4.98465 9.41971C5.01683 10.1443 5.00046 10.871 5.00047 11.6352Z" fill="#374151"/>
</g>
<defs>
<clipPath id="clip0_1055_51854">
<rect width="20" height="20" fill="white"/>
</clipPath>
</defs>
</svg>
